<ttFont>
    <TTGlyph name=".notdef" xMin="67" yMin="-220" xMax="659" yMax="1030">
      <contour>
        <pt x="67" y="1030" on="1"/>
        <pt x="659" y="1030" on="1"/>
        <pt x="659" y="-220" on="1"/>
        <pt x="67" y="-220" on="1"/>
      </contour>
      <contour>
        <pt x="516" y="-87" on="1"/>
        <pt x="516" y="898" on="1"/>
        <pt x="210" y="898" on="1"/>
        <pt x="210" y="-87" on="1"/>
      </contour>
    </TTGlyph>
    <TTGlyph name="A" xMin="-2" yMin="0" xMax="673" yMax="740">
      <contour>
        <pt x="-2" y="8" on="1"/>
        <pt x="199" y="740" on="1"/>
        <pt x="472" y="740" on="1"/>
        <pt x="673" y="8" on="1"/>
        <pt x="673" y="0" on="1"/>
        <pt x="501" y="0" on="1"/>
        <pt x="455" y="169" on="1"/>
        <pt x="215" y="169" on="1"/>
        <pt x="170" y="0" on="1"/>
        <pt x="-2" y="0" on="1"/>
      </contour>
      <contour>
        <pt x="419" y="312" on="1"/>
        <pt x="373" y="487" on="1"/>
        <pt x="342" y="609" on="1"/>
        <pt x="329" y="609" on="1"/>
        <pt x="298" y="486" on="1"/>
        <pt x="252" y="312" on="1"/>
      </contour>
    </TTGlyph>
    <TTGlyph name="A.sc" xMin="0" yMin="0" xMax="621" yMax="577">
      <contour>
        <pt x="0" y="7" on="1"/>
        <pt x="182" y="577" on="1"/>
        <pt x="439" y="577" on="1"/>
        <pt x="621" y="7" on="1"/>
        <pt x="621" y="0" on="1"/>
        <pt x="457" y="0" on="1"/>
        <pt x="419" y="113" on="1"/>
        <pt x="201" y="113" on="1"/>
        <pt x="163" y="0" on="1"/>
        <pt x="0" y="0" on="1"/>
      </contour>
      <contour>
        <pt x="390" y="227" on="1"/>
        <pt x="344" y="369" on="1"/>
        <pt x="317" y="457" on="1"/>
        <pt x="303" y="457" on="1"/>
        <pt x="276" y="369" on="1"/>
        <pt x="229" y="227" on="1"/>
      </contour>
    </TTGlyph>
    <TTGlyph name="AE" xMin="-5" yMin="0" xMax="861" yMax="740">
      <contour>
        <pt x="-5" y="7" on="1"/>
        <pt x="238" y="740" on="1"/>
        <pt x="850" y="740" on="1"/>
        <pt x="850" y="593" on="1"/>
        <pt x="583" y="593" on="1"/>
        <pt x="593" y="444" on="1"/>
        <pt x="838" y="444" on="1"/>
        <pt x="838" y="297" on="1"/>
        <pt x="603" y="297" on="1"/>
        <pt x="613" y="147" on="1"/>
        <pt x="861" y="147" on="1"/>
        <pt x="861" y="0" on="1"/>
        <pt x="436" y="0" on="1"/>
        <pt x="429" y="166" on="1"/>
        <pt x="231" y="166" on="1"/>
        <pt x="178" y="0" on="1"/>
        <pt x="-5" y="0" on="1"/>
      </contour>
      <contour>
        <pt x="280" y="315" on="1"/>
        <pt x="423" y="315" on="1"/>
        <pt x="411" y="606" on="1"/>
        <pt x="374" y="606" on="1"/>
      </contour>
    </TTGlyph>
    <TTGlyph name="AE.sc" xMin="-2" yMin="0" xMax="794" yMax="577">
      <contour>
        <pt x="-2" y="6" on="1"/>
        <pt x="220" y="577" on="1"/>
        <pt x="783" y="577" on="1"/>
        <pt x="783" y="445" on="1"/>
        <pt x="542" y="445" on="1"/>
        <pt x="548" y="351" on="1"/>
        <pt x="773" y="351" on="1"/>
        <pt x="773" y="227" on="1"/>
        <pt x="562" y="227" on="1"/>
        <pt x="569" y="133" on="1"/>
        <pt x="794" y="133" on="1"/>
        <pt x="794" y="0" on="1"/>
        <pt x="402" y="0" on="1"/>
        <pt x="396" y="113" on="1"/>
        <pt x="214" y="113" on="1"/>
        <pt x="170" y="0" on="1"/>
        <pt x="-2" y="0" on="1"/>
      </contour>
      <contour>
        <pt x="260" y="232" on="1"/>
        <pt x="390" y="232" on="1"/>
        <pt x="380" y="454" on="1"/>
        <pt x="348" y="454" on="1"/>
      </contour>
    </TTGlyph>
    <TTGlyph name="AEacute" xMin="-5" yMin="0" xMax="861" yMax="982">
      <contour>
        <pt x="436" y="803" on="1"/>
        <pt x="501" y="982" on="1"/>
        <pt x="682" y="982" on="1"/>
        <pt x="563" y="794" on="1"/>
      </contour>
      <contour>
        <pt x="-5" y="7" on="1"/>
        <pt x="238" y="740" on="1"/>
        <pt x="850" y="740" on="1"/>
        <pt x="850" y="593" on="1"/>
        <pt x="583" y="593" on="1"/>
        <pt x="593" y="444" on="1"/>
        <pt x="838" y="444" on="1"/>
        <pt x="838" y="297" on="1"/>
        <pt x="603" y="297" on="1"/>
        <pt x="613" y="147" on="1"/>
        <pt x="861" y="147" on="1"/>
        <pt x="861" y="0" on="1"/>
        <pt x="436" y="0" on="1"/>
        <pt x="429" y="166" on="1"/>
        <pt x="231" y="166" on="1"/>
        <pt x="178" y="0" on="1"/>
        <pt x="-5" y="0" on="1"/>
      </contour>
      <contour>
        <pt x="280" y="315" on="1"/>
        <pt x="423" y="315" on="1"/>
        <pt x="411" y="606" on="1"/>
        <pt x="374" y="606" on="1"/>
      </contour>
    </TTGlyph>
    <TTGlyph name="AEacute.sc" xMin="-2" yMin="0" xMax="794" yMax="780">
      <contour>
        <pt x="-2" y="6" on="1"/>
        <pt x="220" y="577" on="1"/>
        <pt x="783" y="577" on="1"/>
        <pt x="783" y="445" on="1"/>
        <pt x="542" y="445" on="1"/>
        <pt x="548" y="351" on="1"/>
        <pt x="773" y="351" on="1"/>
        <pt x="773" y="227" on="1"/>
        <pt x="562" y="227" on="1"/>
        <pt x="569" y="133" on="1"/>
        <pt x="794" y="133" on="1"/>
        <pt x="794" y="0" on="1"/>
        <pt x="402" y="0" on="1"/>
        <pt x="396" y="113" on="1"/>
        <pt x="214" y="113" on="1"/>
        <pt x="170" y="0" on="1"/>
        <pt x="-2" y="0" on="1"/>
      </contour>
      <contour>
        <pt x="390" y="232" on="1"/>
        <pt x="380" y="454" on="1"/>
        <pt x="348" y="454" on="1"/>
        <pt x="260" y="232" on="1"/>
      </contour>
      <contour>
        <pt x="397" y="629" on="1"/>
        <pt x="455" y="780" on="1"/>
        <pt x="626" y="780" on="1"/>
        <pt x="517" y="621" on="1"/>
      </contour>
    </TTGlyph>
    <TTGlyph name="Aacute" xMin="-2" yMin="0" xMax="673" yMax="982">
      <contour>
        <pt x="-2" y="8" on="1"/>
        <pt x="199" y="740" on="1"/>
        <pt x="472" y="740" on="1"/>
        <pt x="673" y="8" on="1"/>
        <pt x="673" y="0" on="1"/>
        <pt x="501" y="0" on="1"/>
        <pt x="455" y="169" on="1"/>
        <pt x="215" y="169" on="1"/>
        <pt x="170" y="0" on="1"/>
        <pt x="-2" y="0" on="1"/>
      </contour>
      <contour>
        <pt x="419" y="312" on="1"/>
        <pt x="373" y="487" on="1"/>
        <pt x="342" y="609" on="1"/>
        <pt x="329" y="609" on="1"/>
        <pt x="298" y="486" on="1"/>
        <pt x="252" y="312" on="1"/>
      </contour>
      <contour>
        <pt x="267" y="803" on="1"/>
        <pt x="332" y="982" on="1"/>
        <pt x="513" y="982" on="1"/>
        <pt x="394" y="794" on="1"/>
      </contour>
    </TTGlyph>
    <TTGlyph name="Aacute.sc" xMin="0" yMin="0" xMax="621" yMax="780">
      <contour>
        <pt x="0" y="7" on="1"/>
        <pt x="182" y="577" on="1"/>
        <pt x="439" y="577" on="1"/>
        <pt x="621" y="7" on="1"/>
        <pt x="621" y="0" on="1"/>
        <pt x="457" y="0" on="1"/>
        <pt x="419" y="113" on="1"/>
        <pt x="201" y="113" on="1"/>
        <pt x="163" y="0" on="1"/>
        <pt x="0" y="0" on="1"/>
      </contour>
      <contour>
        <pt x="390" y="229" on="1"/>
        <pt x="344" y="369" on="1"/>
        <pt x="317" y="457" on="1"/>
        <pt x="303" y="457" on="1"/>
        <pt x="276" y="369" on="1"/>
        <pt x="230" y="229" on="1"/>
      </contour>
      <contour>
        <pt x="246" y="629" on="1"/>
        <pt x="304" y="780" on="1"/>
        <pt x="475" y="780" on="1"/>
        <pt x="366" y="621" on="1"/>
      </contour>
    </TTGlyph>
    <TTGlyph name="Abreve" xMin="-2" yMin="0" xMax="673" yMax="978">
      <contour>
        <pt x="-2" y="8" on="1"/>
        <pt x="199" y="740" on="1"/>
        <pt x="472" y="740" on="1"/>
        <pt x="673" y="8" on="1"/>
        <pt x="673" y="0" on="1"/>
        <pt x="501" y="0" on="1"/>
        <pt x="455" y="169" on="1"/>
        <pt x="215" y="169" on="1"/>
        <pt x="170" y="0" on="1"/>
        <pt x="-2" y="0" on="1"/>
      </contour>
      <contour>
        <pt x="419" y="312" on="1"/>
        <pt x="373" y="487" on="1"/>
        <pt x="342" y="609" on="1"/>
        <pt x="329" y="609" on="1"/>
        <pt x="298" y="486" on="1"/>
        <pt x="252" y="312" on="1"/>
      </contour>
      <contour>
        <pt x="337" y="798" on="1"/>
        <pt x="235" y="798" on="0"/>
        <pt x="140" y="896" on="0"/>
        <pt x="140" y="978" on="1"/>
        <pt x="258" y="978" on="1"/>
        <pt x="258" y="926" on="0"/>
        <pt x="291" y="881" on="0"/>
        <pt x="337" y="881" on="1"/>
        <pt x="382" y="881" on="0"/>
        <pt x="414" y="926" on="0"/>
        <pt x="414" y="978" on="1"/>
        <pt x="534" y="978" on="1"/>
        <pt x="534" y="896" on="0"/>
        <pt x="437" y="798" on="0"/>
      </contour>
    </TTGlyph>
    <TTGlyph name="Abreve.sc" xMin="0" yMin="0" xMax="621" yMax="771">
      <contour>
        <pt x="311" y="620" on="1"/>
        <pt x="216" y="620" on="0"/>
        <pt x="128" y="703" on="0"/>
        <pt x="128" y="771" on="1"/>
        <pt x="240" y="771" on="1"/>
        <pt x="240" y="729" on="0"/>
        <pt x="269" y="695" on="0"/>
        <pt x="311" y="695" on="1"/>
        <pt x="352" y="695" on="0"/>
        <pt x="381" y="729" on="0"/>
        <pt x="381" y="771" on="1"/>
        <pt x="493" y="771" on="1"/>
        <pt x="493" y="702" on="0"/>
        <pt x="406" y="620" on="0"/>
      </contour>
      <contour>
        <pt x="0" y="7" on="1"/>
        <pt x="182" y="577" on="1"/>
        <pt x="439" y="577" on="1"/>
        <pt x="621" y="7" on="1"/>
        <pt x="621" y="0" on="1"/>
        <pt x="457" y="0" on="1"/>
        <pt x="419" y="113" on="1"/>
        <pt x="201" y="113" on="1"/>
        <pt x="163" y="0" on="1"/>
        <pt x="0" y="0" on="1"/>
      </contour>
      <contour>
        <pt x="390" y="229" on="1"/>
        <pt x="344" y="369" on="1"/>
        <pt x="317" y="457" on="1"/>
        <pt x="303" y="457" on="1"/>
        <pt x="276" y="369" on="1"/>
        <pt x="230" y="229" on="1"/>
      </contour>
    </TTGlyph>
    <TTGlyph name="Acircumflex" xMin="-2" yMin="0" xMax="673" yMax="984">
      <contour>
        <pt x="-2" y="8" on="1"/>
        <pt x="199" y="740" on="1"/>
        <pt x="472" y="740" on="1"/>
        <pt x="673" y="8" on="1"/>
        <pt x="673" y="0" on="1"/>
        <pt x="501" y="0" on="1"/>
        <pt x="455" y="169" on="1"/>
        <pt x="215" y="169" on="1"/>
        <pt x="170" y="0" on="1"/>
        <pt x="-2" y="0" on="1"/>
      </contour>
      <contour>
        <pt x="419" y="312" on="1"/>
        <pt x="373" y="487" on="1"/>
        <pt x="342" y="609" on="1"/>
        <pt x="329" y="609" on="1"/>
        <pt x="298" y="486" on="1"/>
        <pt x="252" y="312" on="1"/>
      </contour>
      <contour>
        <pt x="159" y="911" on="1"/>
        <pt x="338" y="984" on="1"/>
        <pt x="517" y="911" on="1"/>
        <pt x="517" y="793" on="1"/>
        <pt x="338" y="866" on="1"/>
        <pt x="159" y="793" on="1"/>
      </contour>
    </TTGlyph>
    <TTGlyph name="Acircumflex.sc" xMin="0" yMin="0" xMax="621" yMax="780">
      <contour>
        <pt x="0" y="7" on="1"/>
        <pt x="182" y="577" on="1"/>
        <pt x="439" y="577" on="1"/>
        <pt x="621" y="7" on="1"/>
        <pt x="621" y="0" on="1"/>
        <pt x="457" y="0" on="1"/>
        <pt x="419" y="113" on="1"/>
        <pt x="201" y="113" on="1"/>
        <pt x="163" y="0" on="1"/>
        <pt x="0" y="0" on="1"/>
      </contour>
      <contour>
        <pt x="390" y="229" on="1"/>
        <pt x="344" y="369" on="1"/>
        <pt x="317" y="457" on="1"/>
        <pt x="303" y="457" on="1"/>
        <pt x="276" y="369" on="1"/>
        <pt x="230" y="229" on="1"/>
      </contour>
      <contour>
        <pt x="146" y="722" on="1"/>
        <pt x="312" y="780" on="1"/>
        <pt x="478" y="722" on="1"/>
        <pt x="478" y="614" on="1"/>
        <pt x="312" y="672" on="1"/>
        <pt x="146" y="614" on="1"/>
      </contour>
    </TTGlyph>
    <TTGlyph name="Adblgrave" xMin="-2" yMin="0" xMax="673" yMax="982">
      <contour>
        <pt x="-2" y="8" on="1"/>
        <pt x="199" y="740" on="1"/>
        <pt x="472" y="740" on="1"/>
        <pt x="673" y="8" on="1"/>
        <pt x="673" y="0" on="1"/>
        <pt x="501" y="0" on="1"/>
        <pt x="455" y="169" on="1"/>
        <pt x="215" y="169" on="1"/>
        <pt x="170" y="0" on="1"/>
        <pt x="-2" y="0" on="1"/>
      </contour>
      <contour>
        <pt x="419" y="312" on="1"/>
        <pt x="373" y="487" on="1"/>
        <pt x="342" y="609" on="1"/>
        <pt x="329" y="609" on="1"/>
        <pt x="298" y="486" on="1"/>
        <pt x="252" y="312" on="1"/>
      </contour>
      <contour>
        <pt x="189" y="793" on="1"/>
        <pt x="69" y="982" on="1"/>
        <pt x="225" y="982" on="1"/>
        <pt x="291" y="804" on="1"/>
      </contour>
      <contour>
        <pt x="389" y="793" on="1"/>
        <pt x="269" y="982" on="1"/>
        <pt x="425" y="982" on="1"/>
        <pt x="491" y="804" on="1"/>
      </contour>
    </TTGlyph>
    <TTGlyph name="Adblgrave.sc" xMin="0" yMin="0" xMax="621" yMax="780">
      <contour>
        <pt x="0" y="7" on="1"/>
        <pt x="182" y="577" on="1"/>
        <pt x="439" y="577" on="1"/>
        <pt x="621" y="7" on="1"/>
        <pt x="621" y="0" on="1"/>
        <pt x="457" y="0" on="1"/>
        <pt x="419" y="113" on="1"/>
        <pt x="201" y="113" on="1"/>
        <pt x="163" y="0" on="1"/>
        <pt x="0" y="0" on="1"/>
      </contour>
      <contour>
        <pt x="390" y="229" on="1"/>
        <pt x="344" y="369" on="1"/>
        <pt x="317" y="457" on="1"/>
        <pt x="303" y="457" on="1"/>
        <pt x="276" y="369" on="1"/>
        <pt x="230" y="229" on="1"/>
      </contour>
      <contour>
        <pt x="62" y="780" on="1"/>
        <pt x="212" y="780" on="1"/>
        <pt x="269" y="628" on="1"/>
        <pt x="172" y="621" on="1"/>
      </contour>
      <contour>
        <pt x="247" y="780" on="1"/>
        <pt x="396" y="780" on="1"/>
        <pt x="454" y="628" on="1"/>
        <pt x="357" y="621" on="1"/>
      </contour>
    </TTGlyph>
    <TTGlyph name="Adieresis" xMin="-2" yMin="0" xMax="673" yMax="988">
      <contour>
        <pt x="-2" y="8" on="1"/>
        <pt x="199" y="740" on="1"/>
        <pt x="472" y="740" on="1"/>
        <pt x="673" y="8" on="1"/>
        <pt x="673" y="0" on="1"/>
        <pt x="501" y="0" on="1"/>
        <pt x="455" y="169" on="1"/>
        <pt x="215" y="169" on="1"/>
        <pt x="170" y="0" on="1"/>
        <pt x="-2" y="0" on="1"/>
      </contour>
      <contour>
        <pt x="419" y="312" on="1"/>
        <pt x="373" y="487" on="1"/>
        <pt x="342" y="609" on="1"/>
        <pt x="329" y="609" on="1"/>
        <pt x="298" y="486" on="1"/>
        <pt x="252" y="312" on="1"/>
      </contour>
      <contour>
        <pt x="203" y="800" on="1"/>
        <pt x="152" y="800" on="0"/>
        <pt x="107" y="844" on="0"/>
        <pt x="107" y="894" on="1"/>
        <pt x="107" y="944" on="0"/>
        <pt x="152" y="988" on="0"/>
        <pt x="203" y="988" on="1"/>
        <pt x="254" y="988" on="0"/>
        <pt x="300" y="943" on="0"/>
        <pt x="300" y="894" on="1"/>
        <pt x="300" y="844" on="0"/>
        <pt x="254" y="800" on="0"/>
      </contour>
      <contour>
        <pt x="470" y="800" on="1"/>
        <pt x="418" y="800" on="0"/>
        <pt x="373" y="844" on="0"/>
        <pt x="373" y="894" on="1"/>
        <pt x="373" y="944" on="0"/>
        <pt x="418" y="988" on="0"/>
        <pt x="470" y="988" on="1"/>
        <pt x="521" y="988" on="0"/>
        <pt x="566" y="943" on="0"/>
        <pt x="566" y="894" on="1"/>
        <pt x="566" y="844" on="0"/>
        <pt x="521" y="800" on="0"/>
      </contour>
    </TTGlyph>
    <TTGlyph name="Adieresis.sc" xMin="0" yMin="0" xMax="621" yMax="793">
      <contour>
        <pt x="189" y="620" on="1"/>
        <pt x="141" y="620" on="0"/>
        <pt x="99" y="661" on="0"/>
        <pt x="99" y="707" on="1"/>
        <pt x="99" y="752" on="0"/>
        <pt x="141" y="793" on="0"/>
        <pt x="189" y="793" on="1"/>
        <pt x="237" y="793" on="0"/>
        <pt x="279" y="752" on="0"/>
        <pt x="279" y="707" on="1"/>
        <pt x="279" y="662" on="0"/>
        <pt x="237" y="620" on="0"/>
      </contour>
      <contour>
        <pt x="433" y="620" on="1"/>
        <pt x="385" y="620" on="0"/>
        <pt x="344" y="661" on="0"/>
        <pt x="344" y="707" on="1"/>
        <pt x="344" y="752" on="0"/>
        <pt x="385" y="793" on="0"/>
        <pt x="433" y="793" on="1"/>
        <pt x="481" y="793" on="0"/>
        <pt x="524" y="752" on="0"/>
        <pt x="524" y="707" on="1"/>
        <pt x="524" y="662" on="0"/>
        <pt x="481" y="620" on="0"/>
      </contour>
      <contour>
        <pt x="0" y="7" on="1"/>
        <pt x="182" y="577" on="1"/>
        <pt x="439" y="577" on="1"/>
        <pt x="621" y="7" on="1"/>
        <pt x="621" y="0" on="1"/>
        <pt x="457" y="0" on="1"/>
        <pt x="419" y="113" on="1"/>
        <pt x="201" y="113" on="1"/>
        <pt x="163" y="0" on="1"/>
        <pt x="0" y="0" on="1"/>
      </contour>
      <contour>
        <pt x="390" y="229" on="1"/>
        <pt x="344" y="369" on="1"/>
        <pt x="317" y="457" on="1"/>
        <pt x="303" y="457" on="1"/>
        <pt x="276" y="369" on="1"/>
        <pt x="230" y="229" on="1"/>
      </contour>
    </TTGlyph>
    <TTGlyph name="Agrave" xMin="-2" yMin="0" xMax="673" yMax="982">
      <contour>
        <pt x="-2" y="8" on="1"/>
        <pt x="199" y="740" on="1"/>
        <pt x="472" y="740" on="1"/>
        <pt x="673" y="8" on="1"/>
        <pt x="673" y="0" on="1"/>
        <pt x="501" y="0" on="1"/>
        <pt x="455" y="169" on="1"/>
        <pt x="215" y="169" on="1"/>
        <pt x="170" y="0" on="1"/>
        <pt x="-2" y="0" on="1"/>
      </contour>
      <contour>
        <pt x="419" y="312" on="1"/>
        <pt x="373" y="487" on="1"/>
        <pt x="342" y="609" on="1"/>
        <pt x="329" y="609" on="1"/>
        <pt x="298" y="486" on="1"/>
        <pt x="252" y="312" on="1"/>
      </contour>
      <contour>
        <pt x="265" y="794" on="1"/>
        <pt x="146" y="982" on="1"/>
        <pt x="327" y="982" on="1"/>
        <pt x="392" y="804" on="1"/>
      </contour>
    </TTGlyph>
    <TTGlyph name="Agrave.sc" xMin="0" yMin="0" xMax="621" yMax="780">
      <contour>
        <pt x="0" y="7" on="1"/>
        <pt x="182" y="577" on="1"/>
        <pt x="439" y="577" on="1"/>
        <pt x="621" y="7" on="1"/>
        <pt x="621" y="0" on="1"/>
        <pt x="457" y="0" on="1"/>
        <pt x="419" y="113" on="1"/>
        <pt x="201" y="113" on="1"/>
        <pt x="163" y="0" on="1"/>
        <pt x="0" y="0" on="1"/>
      </contour>
      <contour>
        <pt x="390" y="229" on="1"/>
        <pt x="344" y="369" on="1"/>
        <pt x="317" y="457" on="1"/>
        <pt x="303" y="457" on="1"/>
        <pt x="276" y="369" on="1"/>
        <pt x="230" y="229" on="1"/>
      </contour>
      <contour>
        <pt x="244" y="621" on="1"/>
        <pt x="135" y="780" on="1"/>
        <pt x="306" y="780" on="1"/>
        <pt x="364" y="628" on="1"/>
      </contour>
    </TTGlyph>
    <TTGlyph name="Ainvertedbreve" xMin="-2" yMin="0" xMax="673" yMax="988">
      <contour>
        <pt x="-2" y="8" on="1"/>
        <pt x="199" y="740" on="1"/>
        <pt x="472" y="740" on="1"/>
        <pt x="673" y="8" on="1"/>
        <pt x="673" y="0" on="1"/>
        <pt x="501" y="0" on="1"/>
        <pt x="455" y="169" on="1"/>
        <pt x="215" y="169" on="1"/>
        <pt x="170" y="0" on="1"/>
        <pt x="-2" y="0" on="1"/>
      </contour>
      <contour>
        <pt x="419" y="312" on="1"/>
        <pt x="373" y="487" on="1"/>
        <pt x="342" y="609" on="1"/>
        <pt x="329" y="609" on="1"/>
        <pt x="298" y="486" on="1"/>
        <pt x="252" y="312" on="1"/>
      </contour>
      <contour>
        <pt x="415" y="808" on="1"/>
        <pt x="415" y="860" on="0"/>
        <pt x="383" y="905" on="0"/>
        <pt x="338" y="905" on="1"/>
        <pt x="293" y="905" on="0"/>
        <pt x="260" y="860" on="0"/>
        <pt x="260" y="808" on="1"/>
        <pt x="141" y="808" on="1"/>
        <pt x="141" y="890" on="0"/>
        <pt x="237" y="988" on="0"/>
        <pt x="338" y="988" on="1"/>
        <pt x="439" y="988" on="0"/>
        <pt x="535" y="891" on="0"/>
        <pt x="535" y="808" on="1"/>
      </contour>
    </TTGlyph>
    <TTGlyph name="Ainvertedbreve.sc" xMin="0" yMin="0" xMax="621" yMax="779">
      <contour>
        <pt x="130" y="628" on="1"/>
        <pt x="130" y="696" on="0"/>
        <pt x="217" y="779" on="0"/>
        <pt x="312" y="779" on="1"/>
        <pt x="407" y="779" on="0"/>
        <pt x="495" y="696" on="0"/>
        <pt x="495" y="628" on="1"/>
        <pt x="383" y="628" on="1"/>
        <pt x="383" y="670" on="0"/>
        <pt x="354" y="703" on="0"/>
        <pt x="312" y="703" on="1"/>
        <pt x="270" y="703" on="0"/>
        <pt x="242" y="670" on="0"/>
        <pt x="242" y="628" on="1"/>
      </contour>
      <contour>
        <pt x="0" y="7" on="1"/>
        <pt x="182" y="577" on="1"/>
        <pt x="439" y="577" on="1"/>
        <pt x="621" y="7" on="1"/>
        <pt x="621" y="0" on="1"/>
        <pt x="457" y="0" on="1"/>
        <pt x="419" y="113" on="1"/>
        <pt x="201" y="113" on="1"/>
        <pt x="163" y="0" on="1"/>
        <pt x="0" y="0" on="1"/>
      </contour>
      <contour>
        <pt x="390" y="229" on="1"/>
        <pt x="344" y="369" on="1"/>
        <pt x="317" y="457" on="1"/>
        <pt x="303" y="457" on="1"/>
        <pt x="276" y="369" on="1"/>
        <pt x="230" y="229" on="1"/>
      </contour>
    </TTGlyph>
    <TTGlyph name="Amacron" xMin="-2" yMin="0" xMax="673" yMax="955">
      <contour>
        <pt x="-2" y="8" on="1"/>
        <pt x="199" y="740" on="1"/>
        <pt x="472" y="740" on="1"/>
        <pt x="673" y="8" on="1"/>
        <pt x="673" y="0" on="1"/>
        <pt x="501" y="0" on="1"/>
        <pt x="455" y="169" on="1"/>
        <pt x="215" y="169" on="1"/>
        <pt x="170" y="0" on="1"/>
        <pt x="-2" y="0" on="1"/>
      </contour>
      <contour>
        <pt x="419" y="312" on="1"/>
        <pt x="373" y="487" on="1"/>
        <pt x="342" y="609" on="1"/>
        <pt x="329" y="609" on="1"/>
        <pt x="298" y="486" on="1"/>
        <pt x="252" y="312" on="1"/>
      </contour>
      <contour>
        <pt x="159" y="955" on="1"/>
        <pt x="513" y="955" on="1"/>
        <pt x="513" y="838" on="1"/>
        <pt x="159" y="838" on="1"/>
      </contour>
    </TTGlyph>
    <TTGlyph name="Amacron.sc" xMin="0" yMin="0" xMax="621" yMax="762">
      <contour>
        <pt x="0" y="7" on="1"/>
        <pt x="182" y="577" on="1"/>
        <pt x="439" y="577" on="1"/>
        <pt x="621" y="7" on="1"/>
        <pt x="621" y="0" on="1"/>
        <pt x="457" y="0" on="1"/>
        <pt x="419" y="113" on="1"/>
        <pt x="201" y="113" on="1"/>
        <pt x="163" y="0" on="1"/>
        <pt x="0" y="0" on="1"/>
      </contour>
      <contour>
        <pt x="390" y="229" on="1"/>
        <pt x="344" y="369" on="1"/>
        <pt x="317" y="457" on="1"/>
        <pt x="303" y="457" on="1"/>
        <pt x="276" y="369" on="1"/>
        <pt x="230" y="229" on="1"/>
      </contour>
      <contour>
        <pt x="147" y="762" on="1"/>
        <pt x="475" y="762" on="1"/>
        <pt x="475" y="653" on="1"/>
        <pt x="147" y="653" on="1"/>
      </contour>
    </TTGlyph>
    <TTGlyph name="Aogonek" xMin="-2" yMin="-220" xMax="673" yMax="740">
      <contour>
        <pt x="584" y="-220" on="1"/>
        <pt x="448" y="-220" on="0"/>
        <pt x="448" y="-121" on="1"/>
        <pt x="448" y="-87" on="0"/>
        <pt x="485" y="-29" on="0"/>
        <pt x="527" y="0" on="1"/>
        <pt x="501" y="0" on="1"/>
        <pt x="455" y="169" on="1"/>
        <pt x="215" y="169" on="1"/>
        <pt x="170" y="0" on="1"/>
        <pt x="-2" y="0" on="1"/>
        <pt x="-2" y="8" on="1"/>
        <pt x="199" y="740" on="1"/>
        <pt x="472" y="740" on="1"/>
        <pt x="673" y="8" on="1"/>
        <pt x="673" y="-7" on="1"/>
        <pt x="610" y="-32" on="0"/>
        <pt x="562" y="-82" on="0"/>
        <pt x="562" y="-99" on="1"/>
        <pt x="562" y="-122" on="0"/>
        <pt x="597" y="-122" on="1"/>
        <pt x="614" y="-122" on="0"/>
        <pt x="656" y="-113" on="0"/>
        <pt x="673" y="-108" on="1"/>
        <pt x="673" y="-208" on="1"/>
        <pt x="650" y="-213" on="0"/>
        <pt x="608" y="-220" on="0"/>
      </contour>
      <contour>
        <pt x="419" y="312" on="1"/>
        <pt x="373" y="487" on="1"/>
        <pt x="342" y="609" on="1"/>
        <pt x="329" y="609" on="1"/>
        <pt x="298" y="486" on="1"/>
        <pt x="252" y="312" on="1"/>
      </contour>
    </TTGlyph>
    <TTGlyph name="Aogonek.sc" xMin="0" yMin="-167" xMax="621" yMax="577">
      <contour>
        <pt x="538" y="-167" on="1"/>
        <pt x="413" y="-167" on="0"/>
        <pt x="413" y="-87" on="1"/>
        <pt x="413" y="-39" on="0"/>
        <pt x="473" y="0" on="1"/>
        <pt x="457" y="0" on="1"/>
        <pt x="418" y="113" on="1"/>
        <pt x="201" y="113" on="1"/>
        <pt x="162" y="0" on="1"/>
        <pt x="0" y="0" on="1"/>
        <pt x="0" y="7" on="1"/>
        <pt x="181" y="577" on="1"/>
        <pt x="439" y="577" on="1"/>
        <pt x="620" y="7" on="1"/>
        <pt x="620" y="-2" on="1"/>
        <pt x="588" y="-13" on="0"/>
        <pt x="549" y="-32" on="0"/>
        <pt x="527" y="-48" on="0"/>
        <pt x="519" y="-60" on="0"/>
        <pt x="519" y="-64" on="1"/>
        <pt x="519" y="-77" on="0"/>
        <pt x="548" y="-77" on="1"/>
        <pt x="564" y="-77" on="0"/>
        <pt x="607" y="-71" on="0"/>
        <pt x="621" y="-66" on="1"/>
        <pt x="621" y="-158" on="1"/>
        <pt x="599" y="-163" on="0"/>
        <pt x="559" y="-167" on="0"/>
      </contour>
      <contour>
        <pt x="389" y="229" on="1"/>
        <pt x="344" y="372" on="1"/>
        <pt x="317" y="457" on="1"/>
        <pt x="303" y="457" on="1"/>
        <pt x="275" y="372" on="1"/>
        <pt x="229" y="229" on="1"/>
      </contour>
    </TTGlyph>
    <TTGlyph name="Aring" xMin="-2" yMin="0" xMax="673" yMax="994">
      <contour>
        <pt x="-2" y="8" on="1"/>
        <pt x="199" y="740" on="1"/>
        <pt x="472" y="740" on="1"/>
        <pt x="673" y="8" on="1"/>
        <pt x="673" y="0" on="1"/>
        <pt x="501" y="0" on="1"/>
        <pt x="455" y="169" on="1"/>
        <pt x="215" y="169" on="1"/>
        <pt x="170" y="0" on="1"/>
        <pt x="-2" y="0" on="1"/>
      </contour>
      <contour>
        <pt x="419" y="312" on="1"/>
        <pt x="373" y="487" on="1"/>
        <pt x="342" y="609" on="1"/>
        <pt x="329" y="609" on="1"/>
        <pt x="298" y="486" on="1"/>
        <pt x="252" y="312" on="1"/>
      </contour>
      <contour>
        <pt x="335" y="765" on="1"/>
        <pt x="280" y="765" on="0"/>
        <pt x="210" y="829" on="0"/>
        <pt x="210" y="879" on="1"/>
        <pt x="210" y="929" on="0"/>
        <pt x="280" y="994" on="0"/>
        <pt x="335" y="994" on="1"/>
        <pt x="390" y="994" on="0"/>
        <pt x="459" y="929" on="0"/>
        <pt x="459" y="879" on="1"/>
        <pt x="459" y="829" on="0"/>
        <pt x="390" y="765" on="0"/>
      </contour>
      <contour>
        <pt x="335" y="825" on="1"/>
        <pt x="367" y="825" on="0"/>
        <pt x="392" y="850" on="0"/>
        <pt x="392" y="879" on="1"/>
        <pt x="392" y="908" on="0"/>
        <pt x="367" y="934" on="0"/>
        <pt x="335" y="934" on="1"/>
        <pt x="303" y="934" on="0"/>
        <pt x="277" y="908" on="0"/>
        <pt x="277" y="879" on="1"/>
        <pt x="277" y="850" on="0"/>
        <pt x="303" y="825" on="0"/>
      </contour>
    </TTGlyph>
    <TTGlyph name="Aring.sc" xMin="0" yMin="0" xMax="621" yMax="793">
      <contour>
        <pt x="0" y="7" on="1"/>
        <pt x="182" y="577" on="1"/>
        <pt x="439" y="577" on="1"/>
        <pt x="621" y="7" on="1"/>
        <pt x="621" y="0" on="1"/>
        <pt x="457" y="0" on="1"/>
        <pt x="419" y="113" on="1"/>
        <pt x="201" y="113" on="1"/>
        <pt x="163" y="0" on="1"/>
        <pt x="0" y="0" on="1"/>
      </contour>
      <contour>
        <pt x="389" y="229" on="1"/>
        <pt x="344" y="369" on="1"/>
        <pt x="317" y="457" on="1"/>
        <pt x="303" y="457" on="1"/>
        <pt x="276" y="369" on="1"/>
        <pt x="229" y="229" on="1"/>
      </contour>
      <contour>
        <pt x="309" y="610" on="1"/>
        <pt x="260" y="610" on="0"/>
        <pt x="195" y="661" on="0"/>
        <pt x="195" y="701" on="1"/>
        <pt x="195" y="742" on="0"/>
        <pt x="260" y="793" on="0"/>
        <pt x="309" y="793" on="1"/>
        <pt x="360" y="793" on="0"/>
        <pt x="423" y="742" on="0"/>
        <pt x="423" y="701" on="1"/>
        <pt x="423" y="661" on="0"/>
        <pt x="360" y="610" on="0"/>
      </contour>
      <contour>
        <pt x="309" y="662" on="1"/>
        <pt x="338" y="662" on="0"/>
        <pt x="361" y="679" on="0"/>
        <pt x="361" y="701" on="1"/>
        <pt x="361" y="723" on="0"/>
        <pt x="338" y="741" on="0"/>
        <pt x="309" y="741" on="1"/>
        <pt x="280" y="741" on="0"/>
        <pt x="258" y="723" on="0"/>
        <pt x="258" y="701" on="1"/>
        <pt x="258" y="679" on="0"/>
        <pt x="280" y="662" on="0"/>
      </contour>
    </TTGlyph>
    <TTGlyph name="Aringacute" xMin="-3" yMin="0" xMax="673" yMax="1015">
      <contour>
        <pt x="-3" y="8" on="1"/>
        <pt x="188" y="673" on="1"/>
        <pt x="162" y="708" on="0"/>
        <pt x="162" y="755" on="1"/>
        <pt x="162" y="812" on="0"/>
        <pt x="229" y="888" on="0"/>
        <pt x="289" y="899" on="1"/>
        <pt x="333" y="1015" on="1"/>
        <pt x="514" y="1015" on="1"/>
        <pt x="429" y="882" on="1"/>
        <pt x="466" y="864" on="0"/>
        <pt x="508" y="798" on="0"/>
        <pt x="508" y="755" on="1"/>
        <pt x="508" y="708" on="0"/>
        <pt x="482" y="674" on="1"/>
        <pt x="673" y="8" on="1"/>
        <pt x="673" y="0" on="1"/>
        <pt x="501" y="0" on="1"/>
        <pt x="456" y="166" on="1"/>
        <pt x="214" y="166" on="1"/>
        <pt x="169" y="0" on="1"/>
        <pt x="-3" y="0" on="1"/>
      </contour>
      <contour>
        <pt x="334" y="691" on="1"/>
        <pt x="367" y="691" on="0"/>
        <pt x="407" y="727" on="0"/>
        <pt x="407" y="755" on="1"/>
        <pt x="407" y="784" on="0"/>
        <pt x="367" y="820" on="0"/>
        <pt x="334" y="820" on="1"/>
        <pt x="301" y="820" on="0"/>
        <pt x="263" y="784" on="0"/>
        <pt x="263" y="755" on="1"/>
        <pt x="263" y="726" on="0"/>
        <pt x="302" y="691" on="0"/>
      </contour>
      <contour>
        <pt x="417" y="315" on="1"/>
        <pt x="373" y="487" on="1"/>
        <pt x="346" y="599" on="1"/>
        <pt x="324" y="599" on="1"/>
        <pt x="297" y="486" on="1"/>
        <pt x="252" y="315" on="1"/>
      </contour>
    </TTGlyph>
    <TTGlyph name="Aringacute.sc" xMin="0" yMin="0" xMax="620" yMax="809">
      <contour>
        <pt x="0" y="7" on="1"/>
        <pt x="172" y="532" on="1"/>
        <pt x="149" y="560" on="0"/>
        <pt x="149" y="594" on="1"/>
        <pt x="149" y="642" on="0"/>
        <pt x="211" y="705" on="0"/>
        <pt x="266" y="714" on="1"/>
        <pt x="304" y="809" on="1"/>
        <pt x="475" y="809" on="1"/>
        <pt x="398" y="698" on="1"/>
        <pt x="432" y="682" on="0"/>
        <pt x="471" y="629" on="0"/>
        <pt x="471" y="594" on="1"/>
        <pt x="471" y="559" on="0"/>
        <pt x="447" y="532" on="1"/>
        <pt x="620" y="7" on="1"/>
        <pt x="620" y="0" on="1"/>
        <pt x="457" y="0" on="1"/>
        <pt x="418" y="113" on="1"/>
        <pt x="200" y="113" on="1"/>
        <pt x="162" y="0" on="1"/>
        <pt x="0" y="0" on="1"/>
      </contour>
      <contour>
        <pt x="309" y="546" on="1"/>
        <pt x="339" y="546" on="0"/>
        <pt x="376" y="573" on="0"/>
        <pt x="376" y="594" on="1"/>
        <pt x="376" y="617" on="0"/>
        <pt x="339" y="643" on="0"/>
        <pt x="309" y="643" on="1"/>
        <pt x="279" y="643" on="0"/>
        <pt x="244" y="617" on="0"/>
        <pt x="244" y="594" on="1"/>
        <pt x="244" y="572" on="0"/>
        <pt x="280" y="546" on="0"/>
      </contour>
      <contour>
        <pt x="390" y="229" on="1"/>
        <pt x="344" y="369" on="1"/>
        <pt x="318" y="461" on="1"/>
        <pt x="300" y="461" on="1"/>
        <pt x="275" y="369" on="1"/>
        <pt x="230" y="229" on="1"/>
      </contour>
    </TTGlyph>
    <TTGlyph name="Atilde" xMin="-2" yMin="0" xMax="673" yMax="966">
      <contour>
        <pt x="-2" y="8" on="1"/>
        <pt x="199" y="740" on="1"/>
        <pt x="472" y="740" on="1"/>
        <pt x="673" y="8" on="1"/>
        <pt x="673" y="0" on="1"/>
        <pt x="501" y="0" on="1"/>
        <pt x="455" y="169" on="1"/>
        <pt x="215" y="169" on="1"/>
        <pt x="170" y="0" on="1"/>
        <pt x="-2" y="0" on="1"/>
      </contour>
      <contour>
        <pt x="419" y="312" on="1"/>
        <pt x="373" y="487" on="1"/>
        <pt x="342" y="609" on="1"/>
        <pt x="329" y="609" on="1"/>
        <pt x="298" y="486" on="1"/>
        <pt x="252" y="312" on="1"/>
      </contour>
      <contour>
        <pt x="135" y="842" on="1"/>
        <pt x="167" y="905" on="0"/>
        <pt x="246" y="966" on="0"/>
        <pt x="284" y="966" on="1"/>
        <pt x="306" y="966" on="0"/>
        <pt x="348" y="954" on="0"/>
        <pt x="389" y="940" on="0"/>
        <pt x="431" y="928" on="0"/>
        <pt x="453" y="928" on="1"/>
        <pt x="473" y="928" on="0"/>
        <pt x="512" y="944" on="0"/>
        <pt x="535" y="966" on="1"/>
        <pt x="558" y="941" on="1"/>
        <pt x="528" y="878" on="0"/>
        <pt x="448" y="816" on="0"/>
        <pt x="410" y="816" on="1"/>
        <pt x="389" y="816" on="0"/>
        <pt x="346" y="828" on="0"/>
        <pt x="304" y="842" on="0"/>
        <pt x="262" y="854" on="0"/>
        <pt x="241" y="854" on="1"/>
        <pt x="220" y="854" on="0"/>
        <pt x="181" y="838" on="0"/>
        <pt x="158" y="817" on="1"/>
      </contour>
    </TTGlyph>
    <TTGlyph name="Atilde.sc" xMin="0" yMin="0" xMax="621" yMax="768">
      <contour>
        <pt x="0" y="7" on="1"/>
        <pt x="182" y="577" on="1"/>
        <pt x="439" y="577" on="1"/>
        <pt x="621" y="7" on="1"/>
        <pt x="621" y="0" on="1"/>
        <pt x="457" y="0" on="1"/>
        <pt x="419" y="113" on="1"/>
        <pt x="201" y="113" on="1"/>
        <pt x="163" y="0" on="1"/>
        <pt x="0" y="0" on="1"/>
      </contour>
      <contour>
        <pt x="389" y="229" on="1"/>
        <pt x="344" y="369" on="1"/>
        <pt x="317" y="457" on="1"/>
        <pt x="303" y="457" on="1"/>
        <pt x="276" y="369" on="1"/>
        <pt x="229" y="229" on="1"/>
      </contour>
      <contour>
        <pt x="125" y="656" on="1"/>
        <pt x="154" y="713" on="0"/>
        <pt x="227" y="768" on="0"/>
        <pt x="262" y="768" on="1"/>
        <pt x="282" y="768" on="0"/>
        <pt x="321" y="759" on="0"/>
        <pt x="360" y="749" on="0"/>
        <pt x="399" y="740" on="0"/>
        <pt x="419" y="740" on="1"/>
        <pt x="437" y="740" on="0"/>
        <pt x="472" y="751" on="0"/>
        <pt x="495" y="768" on="1"/>
        <pt x="516" y="747" on="1"/>
        <pt x="487" y="690" on="0"/>
        <pt x="413" y="635" on="0"/>
        <pt x="378" y="635" on="1"/>
        <pt x="358" y="635" on="0"/>
        <pt x="319" y="644" on="0"/>
        <pt x="280" y="655" on="0"/>
        <pt x="241" y="664" on="0"/>
        <pt x="221" y="664" on="1"/>
        <pt x="202" y="664" on="0"/>
        <pt x="167" y="653" on="0"/>
        <pt x="145" y="636" on="1"/>
      </contour>
    </TTGlyph>
    <TTGlyph name="B" xMin="58" yMin="-10" xMax="614" yMax="750">
      <contour>
        <pt x="290" y="-10" on="1"/>
        <pt x="233" y="-10" on="0"/>
        <pt x="116" y="-3" on="0"/>
        <pt x="58" y="5" on="1"/>
        <pt x="58" y="735" on="1"/>
        <pt x="127" y="743" on="0"/>
        <pt x="238" y="750" on="0"/>
        <pt x="289" y="750" on="1"/>
        <pt x="448" y="750" on="0"/>
        <pt x="594" y="649" on="0"/>
        <pt x="594" y="539" on="1"/>
        <pt x="594" y="413" on="0"/>
        <pt x="479" y="383" on="1"/>
        <pt x="479" y="379" on="1"/>
        <pt x="545" y="365" on="0"/>
        <pt x="614" y="275" on="0"/>
        <pt x="614" y="203" on="1"/>
        <pt x="614" y="-10" on="0"/>
      </contour>
      <contour>
        <pt x="309" y="124" on="1"/>
        <pt x="430" y="124" on="0"/>
        <pt x="430" y="216" on="1"/>
        <pt x="430" y="267" on="0"/>
        <pt x="375" y="309" on="0"/>
        <pt x="306" y="309" on="1"/>
        <pt x="227" y="309" on="1"/>
        <pt x="227" y="129" on="1"/>
        <pt x="238" y="127" on="0"/>
        <pt x="274" y="124" on="0"/>
      </contour>
      <contour>
        <pt x="301" y="435" on="1"/>
        <pt x="362" y="435" on="0"/>
        <pt x="410" y="475" on="0"/>
        <pt x="410" y="527" on="1"/>
        <pt x="410" y="574" on="0"/>
        <pt x="359" y="616" on="0"/>
        <pt x="305" y="616" on="1"/>
        <pt x="267" y="616" on="0"/>
        <pt x="227" y="610" on="1"/>
        <pt x="227" y="435" on="1"/>
      </contour>
    </TTGlyph>
    <TTGlyph name="B.sc" xMin="56" yMin="-8" xMax="567" yMax="585">
      <contour>
        <pt x="274" y="-8" on="1"/>
        <pt x="165" y="-8" on="0"/>
        <pt x="56" y="4" on="1"/>
        <pt x="56" y="573" on="1"/>
        <pt x="119" y="579" on="0"/>
        <pt x="222" y="585" on="0"/>
        <pt x="270" y="585" on="1"/>
        <pt x="416" y="585" on="0"/>
        <pt x="548" y="506" on="0"/>
        <pt x="548" y="418" on="1"/>
        <pt x="548" y="324" on="0"/>
        <pt x="445" y="299" on="1"/>
        <pt x="445" y="296" on="1"/>
        <pt x="505" y="285" on="0"/>
        <pt x="567" y="217" on="0"/>
        <pt x="567" y="161" on="1"/>
        <pt x="567" y="-8" on="0"/>
      </contour>
      <contour>
        <pt x="291" y="114" on="1"/>
        <pt x="401" y="114" on="0"/>
        <pt x="401" y="174" on="1"/>
        <pt x="401" y="209" on="0"/>
        <pt x="350" y="236" on="0"/>
        <pt x="290" y="236" on="1"/>
        <pt x="215" y="236" on="1"/>
        <pt x="215" y="116" on="1"/>
        <pt x="225" y="114" on="0"/>
        <pt x="256" y="114" on="0"/>
      </contour>
      <contour>
        <pt x="283" y="344" on="1"/>
        <pt x="337" y="344" on="0"/>
        <pt x="380" y="371" on="0"/>
        <pt x="380" y="406" on="1"/>
        <pt x="380" y="437" on="0"/>
        <pt x="336" y="463" on="0"/>
        <pt x="287" y="463" on="1"/>
        <pt x="269" y="463" on="0"/>
        <pt x="233" y="462" on="0"/>
        <pt x="215" y="460" on="1"/>
        <pt x="215" y="344" on="1"/>
      </contour>
    </TTGlyph>
    <TTGlyph name="C" xMin="31" yMin="-10" xMax="512" yMax="750">
      <contour>
        <pt x="361" y="-10" on="1"/>
        <pt x="195" y="-10" on="0"/>
        <pt x="31" y="175" on="0"/>
        <pt x="31" y="370" on="1"/>
        <pt x="31" y="565" on="0"/>
        <pt x="195" y="750" on="0"/>
        <pt x="356" y="750" on="1"/>
        <pt x="391" y="750" on="0"/>
        <pt x="467" y="742" on="0"/>
        <pt x="512" y="734" on="1"/>
        <pt x="512" y="591" on="1"/>
        <pt x="470" y="597" on="0"/>
        <pt x="408" y="602" on="0"/>
        <pt x="382" y="602" on="1"/>
        <pt x="335" y="602" on="0"/>
        <pt x="272" y="582" on="0"/>
        <pt x="234" y="530" on="0"/>
        <pt x="217" y="440" on="0"/>
        <pt x="217" y="369" on="1"/>
        <pt x="217" y="299" on="0"/>
        <pt x="234" y="210" on="0"/>
        <pt x="272" y="158" on="0"/>
        <pt x="334" y="138" on="0"/>
        <pt x="380" y="138" on="1"/>
        <pt x="412" y="138" on="0"/>
        <pt x="484" y="145" on="0"/>
        <pt x="512" y="152" on="1"/>
        <pt x="512" y="11" on="1"/>
        <pt x="486" y="2" on="0"/>
        <pt x="403" y="-10" on="0"/>
      </contour>
    </TTGlyph>
    <TTGlyph name="C.sc" xMin="30" yMin="-9" xMax="470" yMax="586">
      <contour>
        <pt x="333" y="-9" on="1"/>
        <pt x="181" y="-8" on="0"/>
        <pt x="30" y="136" on="0"/>
        <pt x="30" y="289" on="1"/>
        <pt x="30" y="440" on="0"/>
        <pt x="179" y="586" on="0"/>
        <pt x="326" y="586" on="1"/>
        <pt x="359" y="586" on="0"/>
        <pt x="430" y="579" on="0"/>
        <pt x="470" y="573" on="1"/>
        <pt x="470" y="439" on="1"/>
        <pt x="434" y="444" on="0"/>
        <pt x="377" y="448" on="0"/>
        <pt x="350" y="448" on="1"/>
        <pt x="308" y="448" on="0"/>
        <pt x="252" y="436" on="0"/>
        <pt x="219" y="401" on="0"/>
        <pt x="206" y="338" on="0"/>
        <pt x="206" y="288" on="1"/>
        <pt x="206" y="238" on="0"/>
        <pt x="220" y="176" on="0"/>
        <pt x="253" y="142" on="0"/>
        <pt x="308" y="130" on="0"/>
        <pt x="349" y="130" on="1"/>
        <pt x="379" y="130" on="0"/>
        <pt x="445" y="136" on="0"/>
        <pt x="470" y="141" on="1"/>
        <pt x="470" y="9" on="1"/>
        <pt x="446" y="1" on="0"/>
        <pt x="372" y="-9" on="0"/>
      </contour>
    </TTGlyph>
    <TTGlyph name="Cacute" xMin="31" yMin="-10" xMax="512" yMax="982">
      <contour>
        <pt x="361" y="-10" on="1"/>
        <pt x="195" y="-10" on="0"/>
        <pt x="31" y="175" on="0"/>
        <pt x="31" y="370" on="1"/>
        <pt x="31" y="565" on="0"/>
        <pt x="195" y="750" on="0"/>
        <pt x="356" y="750" on="1"/>
        <pt x="391" y="750" on="0"/>
        <pt x="467" y="742" on="0"/>
        <pt x="512" y="734" on="1"/>
        <pt x="512" y="591" on="1"/>
        <pt x="470" y="597" on="0"/>
        <pt x="408" y="602" on="0"/>
        <pt x="382" y="602" on="1"/>
        <pt x="335" y="602" on="0"/>
        <pt x="272" y="582" on="0"/>
        <pt x="234" y="530" on="0"/>
        <pt x="217" y="440" on="0"/>
        <pt x="217" y="369" on="1"/>
        <pt x="217" y="299" on="0"/>
        <pt x="234" y="210" on="0"/>
        <pt x="272" y="158" on="0"/>
        <pt x="334" y="138" on="0"/>
        <pt x="380" y="138" on="1"/>
        <pt x="412" y="138" on="0"/>
        <pt x="484" y="145" on="0"/>
        <pt x="512" y="152" on="1"/>
        <pt x="512" y="11" on="1"/>
        <pt x="486" y="2" on="0"/>
        <pt x="403" y="-10" on="0"/>
      </contour>
      <contour>
        <pt x="235" y="803" on="1"/>
        <pt x="300" y="982" on="1"/>
        <pt x="481" y="982" on="1"/>
        <pt x="362" y="794" on="1"/>
      </contour>
    </TTGlyph>
    <TTGlyph name="Cacute.sc" xMin="30" yMin="-9" xMax="470" yMax="780">
      <contour>
        <pt x="333" y="-9" on="1"/>
        <pt x="181" y="-8" on="0"/>
        <pt x="30" y="136" on="0"/>
        <pt x="30" y="289" on="1"/>
        <pt x="30" y="441" on="0"/>
        <pt x="179" y="586" on="0"/>
        <pt x="326" y="586" on="1"/>
        <pt x="358" y="586" on="0"/>
        <pt x="427" y="579" on="0"/>
        <pt x="470" y="573" on="1"/>
        <pt x="470" y="439" on="1"/>
        <pt x="429" y="444" on="0"/>
        <pt x="373" y="448" on="0"/>
        <pt x="350" y="448" on="1"/>
        <pt x="309" y="448" on="0"/>
        <pt x="253" y="436" on="0"/>
        <pt x="220" y="401" on="0"/>
        <pt x="206" y="339" on="0"/>
        <pt x="206" y="288" on="1"/>
        <pt x="206" y="237" on="0"/>
        <pt x="220" y="175" on="0"/>
        <pt x="253" y="141" on="0"/>
        <pt x="308" y="130" on="0"/>
        <pt x="349" y="130" on="1"/>
        <pt x="378" y="130" on="0"/>
        <pt x="445" y="136" on="0"/>
        <pt x="470" y="141" on="1"/>
        <pt x="470" y="9" on="1"/>
        <pt x="445" y="1" on="0"/>
        <pt x="371" y="-9" on="0"/>
      </contour>
      <contour>
        <pt x="214" y="629" on="1"/>
        <pt x="272" y="780" on="1"/>
        <pt x="442" y="780" on="1"/>
        <pt x="333" y="621" on="1"/>
      </contour>
    </TTGlyph>
    <TTGlyph name="Ccaron" xMin="31" yMin="-10" xMax="512" yMax="982">
      <contour>
        <pt x="361" y="-10" on="1"/>
        <pt x="195" y="-10" on="0"/>
        <pt x="31" y="175" on="0"/>
        <pt x="31" y="370" on="1"/>
        <pt x="31" y="565" on="0"/>
        <pt x="195" y="750" on="0"/>
        <pt x="356" y="750" on="1"/>
        <pt x="391" y="750" on="0"/>
        <pt x="467" y="742" on="0"/>
        <pt x="512" y="734" on="1"/>
        <pt x="512" y="591" on="1"/>
        <pt x="470" y="597" on="0"/>
        <pt x="408" y="602" on="0"/>
        <pt x="382" y="602" on="1"/>
        <pt x="335" y="602" on="0"/>
        <pt x="272" y="582" on="0"/>
        <pt x="234" y="530" on="0"/>
        <pt x="217" y="440" on="0"/>
        <pt x="217" y="369" on="1"/>
        <pt x="217" y="299" on="0"/>
        <pt x="234" y="210" on="0"/>
        <pt x="272" y="158" on="0"/>
        <pt x="334" y="138" on="0"/>
        <pt x="380" y="138" on="1"/>
        <pt x="412" y="138" on="0"/>
        <pt x="484" y="145" on="0"/>
        <pt x="512" y="152" on="1"/>
        <pt x="512" y="11" on="1"/>
        <pt x="486" y="2" on="0"/>
        <pt x="403" y="-10" on="0"/>
      </contour>
      <contour>
        <pt x="133" y="982" on="1"/>
        <pt x="312" y="909" on="1"/>
        <pt x="491" y="982" on="1"/>
        <pt x="491" y="864" on="1"/>
        <pt x="312" y="791" on="1"/>
        <pt x="133" y="864" on="1"/>
      </contour>
    </TTGlyph>
    <TTGlyph name="Ccaron.sc" xMin="30" yMin="-9" xMax="470" yMax="781">
      <contour>
        <pt x="333" y="-9" on="1"/>
        <pt x="181" y="-8" on="0"/>
        <pt x="30" y="136" on="0"/>
        <pt x="30" y="289" on="1"/>
        <pt x="30" y="441" on="0"/>
        <pt x="179" y="586" on="0"/>
        <pt x="326" y="586" on="1"/>
        <pt x="358" y="586" on="0"/>
        <pt x="427" y="579" on="0"/>
        <pt x="470" y="573" on="1"/>
        <pt x="470" y="439" on="1"/>
        <pt x="429" y="444" on="0"/>
        <pt x="373" y="448" on="0"/>
        <pt x="350" y="448" on="1"/>
        <pt x="309" y="448" on="0"/>
        <pt x="253" y="436" on="0"/>
        <pt x="220" y="401" on="0"/>
        <pt x="206" y="339" on="0"/>
        <pt x="206" y="288" on="1"/>
        <pt x="206" y="237" on="0"/>
        <pt x="220" y="175" on="0"/>
        <pt x="253" y="141" on="0"/>
        <pt x="308" y="130" on="0"/>
        <pt x="349" y="130" on="1"/>
        <pt x="378" y="130" on="0"/>
        <pt x="445" y="136" on="0"/>
        <pt x="470" y="141" on="1"/>
        <pt x="470" y="9" on="1"/>
        <pt x="445" y="1" on="0"/>
        <pt x="371" y="-9" on="0"/>
      </contour>
      <contour>
        <pt x="120" y="781" on="1"/>
        <pt x="286" y="722" on="1"/>
        <pt x="451" y="781" on="1"/>
        <pt x="451" y="673" on="1"/>
        <pt x="285" y="615" on="1"/>
        <pt x="120" y="673" on="1"/>
      </contour>
    </TTGlyph>
    <TTGlyph name="Ccedilla" xMin="31" yMin="-220" xMax="512" yMax="750">
      <contour>
        <pt x="293" y="-220" on="1"/>
        <pt x="275" y="-220" on="0"/>
        <pt x="226" y="-214" on="0"/>
        <pt x="200" y="-208" on="1"/>
        <pt x="200" y="-106" on="1"/>
        <pt x="220" y="-111" on="0"/>
        <pt x="258" y="-114" on="0"/>
        <pt x="267" y="-114" on="1"/>
        <pt x="286" y="-114" on="0"/>
        <pt x="302" y="-97" on="0"/>
        <pt x="302" y="-84" on="1"/>
        <pt x="302" y="-55" on="0"/>
        <pt x="268" y="-2" on="1"/>
        <pt x="149" y="21" on="0"/>
        <pt x="31" y="204" on="0"/>
        <pt x="31" y="370" on="1"/>
        <pt x="31" y="565" on="0"/>
        <pt x="195" y="750" on="0"/>
        <pt x="356" y="750" on="1"/>
        <pt x="391" y="750" on="0"/>
        <pt x="467" y="742" on="0"/>
        <pt x="512" y="734" on="1"/>
        <pt x="512" y="591" on="1"/>
        <pt x="470" y="597" on="0"/>
        <pt x="408" y="602" on="0"/>
        <pt x="382" y="602" on="1"/>
        <pt x="335" y="602" on="0"/>
        <pt x="272" y="582" on="0"/>
        <pt x="234" y="530" on="0"/>
        <pt x="217" y="440" on="0"/>
        <pt x="217" y="369" on="1"/>
        <pt x="217" y="299" on="0"/>
        <pt x="234" y="210" on="0"/>
        <pt x="272" y="158" on="0"/>
        <pt x="334" y="138" on="0"/>
        <pt x="380" y="138" on="1"/>
        <pt x="412" y="138" on="0"/>
        <pt x="484" y="145" on="0"/>
        <pt x="512" y="152" on="1"/>
        <pt x="512" y="11" on="1"/>
        <pt x="489" y="3" on="0"/>
        <pt x="420" y="-7" on="0"/>
        <pt x="382" y="-9" on="1"/>
        <pt x="401" y="-38" on="0"/>
        <pt x="417" y="-85" on="0"/>
        <pt x="417" y="-112" on="1"/>
        <pt x="417" y="-162" on="0"/>
        <pt x="353" y="-220" on="0"/>
      </contour>
    </TTGlyph>
    <TTGlyph name="Ccedilla.sc" xMin="30" yMin="-172" xMax="470" yMax="586">
      <contour>
        <pt x="272" y="-172" on="1"/>
        <pt x="255" y="-172" on="0"/>
        <pt x="210" y="-167" on="0"/>
        <pt x="186" y="-162" on="1"/>
        <pt x="186" y="-69" on="1"/>
        <pt x="204" y="-72" on="0"/>
        <pt x="239" y="-75" on="0"/>
        <pt x="247" y="-75" on="1"/>
        <pt x="264" y="-75" on="0"/>
        <pt x="277" y="-66" on="0"/>
        <pt x="277" y="-61" on="1"/>
        <pt x="277" y="-40" on="0"/>
        <pt x="251" y="-2" on="1"/>
        <pt x="140" y="15" on="0"/>
        <pt x="30" y="158" on="0"/>
        <pt x="30" y="289" on="1"/>
        <pt x="30" y="441" on="0"/>
        <pt x="179" y="586" on="0"/>
        <pt x="326" y="586" on="1"/>
        <pt x="358" y="586" on="0"/>
        <pt x="427" y="579" on="0"/>
        <pt x="470" y="573" on="1"/>
        <pt x="470" y="439" on="1"/>
        <pt x="429" y="444" on="0"/>
        <pt x="374" y="448" on="0"/>
        <pt x="350" y="448" on="1"/>
        <pt x="309" y="448" on="0"/>
        <pt x="253" y="436" on="0"/>
        <pt x="220" y="401" on="0"/>
        <pt x="206" y="339" on="0"/>
        <pt x="206" y="288" on="1"/>
        <pt x="206" y="237" on="0"/>
        <pt x="220" y="175" on="0"/>
        <pt x="253" y="141" on="0"/>
        <pt x="308" y="130" on="0"/>
        <pt x="349" y="130" on="1"/>
        <pt x="378" y="130" on="0"/>
        <pt x="445" y="136" on="0"/>
        <pt x="470" y="141" on="1"/>
        <pt x="470" y="9" on="1"/>
        <pt x="449" y="3" on="0"/>
        <pt x="389" y="-6" on="0"/>
        <pt x="357" y="-8" on="1"/>
        <pt x="371" y="-30" on="0"/>
        <pt x="384" y="-66" on="0"/>
        <pt x="384" y="-87" on="1"/>
        <pt x="384" y="-125" on="0"/>
        <pt x="326" y="-172" on="0"/>
      </contour>
    </TTGlyph>
    <TTGlyph name="Ccircumflex" xMin="31" yMin="-10" xMax="512" yMax="984">
      <contour>
        <pt x="361" y="-10" on="1"/>
        <pt x="195" y="-10" on="0"/>
        <pt x="31" y="175" on="0"/>
        <pt x="31" y="370" on="1"/>
        <pt x="31" y="565" on="0"/>
        <pt x="195" y="750" on="0"/>
        <pt x="356" y="750" on="1"/>
        <pt x="391" y="750" on="0"/>
        <pt x="467" y="742" on="0"/>
        <pt x="512" y="734" on="1"/>
        <pt x="512" y="591" on="1"/>
        <pt x="470" y="597" on="0"/>
        <pt x="408" y="602" on="0"/>
        <pt x="382" y="602" on="1"/>
        <pt x="335" y="602" on="0"/>
        <pt x="272" y="582" on="0"/>
        <pt x="234" y="530" on="0"/>
        <pt x="217" y="440" on="0"/>
        <pt x="217" y="369" on="1"/>
        <pt x="217" y="299" on="0"/>
        <pt x="234" y="210" on="0"/>
        <pt x="272" y="158" on="0"/>
        <pt x="334" y="138" on="0"/>
        <pt x="380" y="138" on="1"/>
        <pt x="412" y="138" on="0"/>
        <pt x="484" y="145" on="0"/>
        <pt x="512" y="152" on="1"/>
        <pt x="512" y="11" on="1"/>
        <pt x="486" y="2" on="0"/>
        <pt x="403" y="-10" on="0"/>
      </contour>
      <contour>
        <pt x="126" y="911" on="1"/>
        <pt x="305" y="984" on="1"/>
        <pt x="484" y="911" on="1"/>
        <pt x="484" y="793" on="1"/>
        <pt x="305" y="866" on="1"/>
        <pt x="126" y="793" on="1"/>
      </contour>
    </TTGlyph>
    <TTGlyph name="Ccircumflex.sc" xMin="30" yMin="-9" xMax="470" yMax="780">
      <contour>
        <pt x="333" y="-9" on="1"/>
        <pt x="181" y="-8" on="0"/>
        <pt x="30" y="136" on="0"/>
        <pt x="30" y="289" on="1"/>
        <pt x="30" y="441" on="0"/>
        <pt x="179" y="586" on="0"/>
        <pt x="326" y="586" on="1"/>
        <pt x="358" y="586" on="0"/>
        <pt x="427" y="579" on="0"/>
        <pt x="470" y="573" on="1"/>
        <pt x="470" y="439" on="1"/>
        <pt x="429" y="444" on="0"/>
        <pt x="373" y="448" on="0"/>
        <pt x="350" y="448" on="1"/>
        <pt x="309" y="448" on="0"/>
        <pt x="253" y="436" on="0"/>
        <pt x="220" y="401" on="0"/>
        <pt x="206" y="339" on="0"/>
        <pt x="206" y="288" on="1"/>
        <pt x="206" y="237" on="0"/>
        <pt x="220" y="175" on="0"/>
        <pt x="253" y="141" on="0"/>
        <pt x="308" y="130" on="0"/>
        <pt x="349" y="130" on="1"/>
        <pt x="378" y="130" on="0"/>
        <pt x="445" y="136" on="0"/>
        <pt x="470" y="141" on="1"/>
        <pt x="470" y="9" on="1"/>
        <pt x="445" y="1" on="0"/>
        <pt x="371" y="-9" on="0"/>
      </contour>
      <contour>
        <pt x="113" y="722" on="1"/>
        <pt x="279" y="780" on="1"/>
        <pt x="445" y="722" on="1"/>
        <pt x="445" y="614" on="1"/>
        <pt x="279" y="672" on="1"/>
        <pt x="113" y="614" on="1"/>
      </contour>
    </TTGlyph>
    <TTGlyph name="Cdotaccent" xMin="31" yMin="-10" xMax="512" yMax="986">
      <contour>
        <pt x="311" y="798" on="1"/>
        <pt x="260" y="798" on="0"/>
        <pt x="215" y="842" on="0"/>
        <pt x="215" y="892" on="1"/>
        <pt x="215" y="942" on="0"/>
        <pt x="260" y="986" on="0"/>
        <pt x="311" y="986" on="1"/>
        <pt x="362" y="986" on="0"/>
        <pt x="408" y="942" on="0"/>
        <pt x="408" y="892" on="1"/>
        <pt x="408" y="843" on="0"/>
        <pt x="362" y="798" on="0"/>
      </contour>
      <contour>
        <pt x="361" y="-10" on="1"/>
        <pt x="195" y="-10" on="0"/>
        <pt x="31" y="175" on="0"/>
        <pt x="31" y="370" on="1"/>
        <pt x="31" y="565" on="0"/>
        <pt x="195" y="750" on="0"/>
        <pt x="356" y="750" on="1"/>
        <pt x="391" y="750" on="0"/>
        <pt x="467" y="742" on="0"/>
        <pt x="512" y="734" on="1"/>
        <pt x="512" y="591" on="1"/>
        <pt x="470" y="597" on="0"/>
        <pt x="408" y="602" on="0"/>
        <pt x="382" y="602" on="1"/>
        <pt x="335" y="602" on="0"/>
        <pt x="272" y="582" on="0"/>
        <pt x="234" y="530" on="0"/>
        <pt x="217" y="440" on="0"/>
        <pt x="217" y="369" on="1"/>
        <pt x="217" y="299" on="0"/>
        <pt x="234" y="210" on="0"/>
        <pt x="272" y="158" on="0"/>
        <pt x="334" y="138" on="0"/>
        <pt x="380" y="138" on="1"/>
        <pt x="412" y="138" on="0"/>
        <pt x="484" y="145" on="0"/>
        <pt x="512" y="152" on="1"/>
        <pt x="512" y="11" on="1"/>
        <pt x="486" y="2" on="0"/>
        <pt x="403" y="-10" on="0"/>
      </contour>
    </TTGlyph>
    <TTGlyph name="Cdotaccent.sc" xMin="30" yMin="-9" xMax="470" yMax="793">
      <contour>
        <pt x="333" y="-9" on="1"/>
        <pt x="181" y="-8" on="0"/>
        <pt x="30" y="136" on="0"/>
        <pt x="30" y="289" on="1"/>
        <pt x="30" y="441" on="0"/>
        <pt x="179" y="586" on="0"/>
        <pt x="326" y="586" on="1"/>
        <pt x="358" y="586" on="0"/>
        <pt x="427" y="579" on="0"/>
        <pt x="470" y="573" on="1"/>
        <pt x="470" y="439" on="1"/>
        <pt x="429" y="444" on="0"/>
        <pt x="373" y="448" on="0"/>
        <pt x="350" y="448" on="1"/>
        <pt x="309" y="448" on="0"/>
        <pt x="253" y="436" on="0"/>
        <pt x="220" y="401" on="0"/>
        <pt x="206" y="339" on="0"/>
        <pt x="206" y="288" on="1"/>
        <pt x="206" y="237" on="0"/>
        <pt x="220" y="175" on="0"/>
        <pt x="253" y="141" on="0"/>
        <pt x="308" y="130" on="0"/>
        <pt x="349" y="130" on="1"/>
        <pt x="378" y="130" on="0"/>
        <pt x="445" y="136" on="0"/>
        <pt x="470" y="141" on="1"/>
        <pt x="470" y="9" on="1"/>
        <pt x="445" y="1" on="0"/>
        <pt x="371" y="-9" on="0"/>
      </contour>
      <contour>
        <pt x="287" y="621" on="1"/>
        <pt x="238" y="621" on="0"/>
        <pt x="196" y="662" on="0"/>
        <pt x="196" y="708" on="1"/>
        <pt x="196" y="753" on="0"/>
        <pt x="238" y="793" on="0"/>
        <pt x="287" y="793" on="1"/>
        <pt x="335" y="793" on="0"/>
        <pt x="378" y="753" on="0"/>
        <pt x="378" y="708" on="1"/>
        <pt x="378" y="662" on="0"/>
        <pt x="335" y="621" on="0"/>
      </contour>
    </TTGlyph>
    <TTGlyph name="D" xMin="58" yMin="-12" xMax="659" yMax="749">
      <contour>
        <pt x="255" y="-12" on="1"/>
        <pt x="167" y="-12" on="0"/>
        <pt x="58" y="0" on="1"/>
        <pt x="58" y="739" on="1"/>
        <pt x="131" y="744" on="0"/>
        <pt x="232" y="749" on="0"/>
        <pt x="273" y="749" on="1"/>
        <pt x="377" y="749" on="0"/>
        <pt x="523" y="707" on="0"/>
        <pt x="616" y="616" on="0"/>
        <pt x="659" y="471" on="0"/>
        <pt x="659" y="369" on="1"/>
        <pt x="659" y="265" on="0"/>
        <pt x="615" y="121" on="0"/>
        <pt x="518" y="29" on="0"/>
        <pt x="364" y="-12" on="0"/>
      </contour>
      <contour>
        <pt x="321" y="133" on="1"/>
        <pt x="365" y="133" on="0"/>
        <pt x="423" y="155" on="0"/>
        <pt x="458" y="209" on="0"/>
        <pt x="473" y="300" on="0"/>
        <pt x="473" y="370" on="1"/>
        <pt x="473" y="439" on="0"/>
        <pt x="457" y="529" on="0"/>
        <pt x="418" y="583" on="0"/>
        <pt x="353" y="605" on="0"/>
        <pt x="304" y="605" on="1"/>
        <pt x="285" y="605" on="0"/>
        <pt x="254" y="603" on="0"/>
        <pt x="237" y="601" on="1"/>
        <pt x="237" y="139" on="1"/>
        <pt x="263" y="136" on="0"/>
        <pt x="302" y="133" on="0"/>
      </contour>
    </TTGlyph>
    <TTGlyph name="D.sc" xMin="56" yMin="-9" xMax="608" yMax="584">
      <contour>
        <pt x="251" y="-9" on="1"/>
        <pt x="206" y="-9" on="0"/>
        <pt x="107" y="-4" on="0"/>
        <pt x="56" y="1" on="1"/>
        <pt x="56" y="577" on="1"/>
        <pt x="123" y="581" on="0"/>
        <pt x="218" y="584" on="0"/>
        <pt x="256" y="584" on="1"/>
        <pt x="350" y="584" on="0"/>
        <pt x="484" y="552" on="0"/>
        <pt x="569" y="481" on="0"/>
        <pt x="608" y="368" on="0"/>
        <pt x="608" y="288" on="1"/>
        <pt x="608" y="207" on="0"/>
        <pt x="568" y="94" on="0"/>
        <pt x="483" y="23" on="0"/>
        <pt x="347" y="-9" on="0"/>
      </contour>
      <contour>
        <pt x="301" y="127" on="1"/>
        <pt x="340" y="127" on="0"/>
        <pt x="391" y="140" on="0"/>
        <pt x="421" y="175" on="0"/>
        <pt x="433" y="238" on="0"/>
        <pt x="433" y="288" on="1"/>
        <pt x="433" y="337" on="0"/>
        <pt x="419" y="400" on="0"/>
        <pt x="386" y="436" on="0"/>
        <pt x="329" y="450" on="0"/>
        <pt x="286" y="450" on="1"/>
        <pt x="269" y="450" on="0"/>
        <pt x="241" y="449" on="0"/>
        <pt x="225" y="447" on="1"/>
        <pt x="225" y="131" on="1"/>
        <pt x="248" y="128" on="0"/>
        <pt x="283" y="127" on="0"/>
      </contour>
    </TTGlyph>
    <TTGlyph name="Dcaron" xMin="58" yMin="-12" xMax="659" yMax="982">
      <contour>
        <pt x="157" y="982" on="1"/>
        <pt x="336" y="909" on="1"/>
        <pt x="515" y="982" on="1"/>
        <pt x="515" y="864" on="1"/>
        <pt x="336" y="791" on="1"/>
        <pt x="157" y="864" on="1"/>
      </contour>
      <contour>
        <pt x="255" y="-12" on="1"/>
        <pt x="167" y="-12" on="0"/>
        <pt x="58" y="0" on="1"/>
        <pt x="58" y="739" on="1"/>
        <pt x="131" y="744" on="0"/>
        <pt x="232" y="749" on="0"/>
        <pt x="273" y="749" on="1"/>
        <pt x="377" y="749" on="0"/>
        <pt x="523" y="707" on="0"/>
        <pt x="616" y="616" on="0"/>
        <pt x="659" y="471" on="0"/>
        <pt x="659" y="369" on="1"/>
        <pt x="659" y="265" on="0"/>
        <pt x="615" y="121" on="0"/>
        <pt x="518" y="29" on="0"/>
        <pt x="364" y="-12" on="0"/>
      </contour>
      <contour>
        <pt x="321" y="133" on="1"/>
        <pt x="365" y="133" on="0"/>
        <pt x="423" y="155" on="0"/>
        <pt x="458" y="209" on="0"/>
        <pt x="473" y="300" on="0"/>
        <pt x="473" y="370" on="1"/>
        <pt x="473" y="439" on="0"/>
        <pt x="457" y="529" on="0"/>
        <pt x="418" y="583" on="0"/>
        <pt x="353" y="605" on="0"/>
        <pt x="304" y="605" on="1"/>
        <pt x="285" y="605" on="0"/>
        <pt x="254" y="603" on="0"/>
        <pt x="237" y="601" on="1"/>
        <pt x="237" y="139" on="1"/>
        <pt x="263" y="136" on="0"/>
        <pt x="302" y="133" on="0"/>
      </contour>
    </TTGlyph>
    <TTGlyph name="Dcaron.sc" xMin="56" yMin="-9" xMax="608" yMax="781">
      <contour>
        <pt x="251" y="-9" on="1"/>
        <pt x="206" y="-9" on="0"/>
        <pt x="107" y="-4" on="0"/>
        <pt x="56" y="1" on="1"/>
        <pt x="56" y="577" on="1"/>
        <pt x="123" y="581" on="0"/>
        <pt x="218" y="584" on="0"/>
        <pt x="256" y="584" on="1"/>
        <pt x="350" y="584" on="0"/>
        <pt x="484" y="552" on="0"/>
        <pt x="569" y="481" on="0"/>
        <pt x="608" y="368" on="0"/>
        <pt x="608" y="288" on="1"/>
        <pt x="608" y="207" on="0"/>
        <pt x="568" y="94" on="0"/>
        <pt x="483" y="23" on="0"/>
        <pt x="347" y="-9" on="0"/>
      </contour>
      <contour>
        <pt x="301" y="127" on="1"/>
        <pt x="340" y="127" on="0"/>
        <pt x="391" y="140" on="0"/>
        <pt x="421" y="175" on="0"/>
        <pt x="433" y="238" on="0"/>
        <pt x="433" y="288" on="1"/>
        <pt x="433" y="337" on="0"/>
        <pt x="419" y="400" on="0"/>
        <pt x="386" y="436" on="0"/>
        <pt x="329" y="450" on="0"/>
        <pt x="286" y="450" on="1"/>
        <pt x="269" y="450" on="0"/>
        <pt x="241" y="449" on="0"/>
        <pt x="225" y="447" on="1"/>
        <pt x="225" y="131" on="1"/>
        <pt x="248" y="128" on="0"/>
        <pt x="283" y="127" on="0"/>
      </contour>
      <contour>
        <pt x="148" y="673" on="1"/>
        <pt x="148" y="781" on="1"/>
        <pt x="314" y="722" on="1"/>
        <pt x="480" y="781" on="1"/>
        <pt x="480" y="673" on="1"/>
        <pt x="314" y="615" on="1"/>
      </contour>
    </TTGlyph>
    <TTGlyph name="Dcroat" xMin="0" yMin="-12" xMax="683" yMax="749">
      <contour>
        <pt x="0" y="441" on="1"/>
        <pt x="82" y="441" on="1"/>
        <pt x="82" y="739" on="1"/>
        <pt x="155" y="744" on="0"/>
        <pt x="256" y="749" on="0"/>
        <pt x="297" y="749" on="1"/>
        <pt x="401" y="749" on="0"/>
        <pt x="547" y="707" on="0"/>
        <pt x="640" y="616" on="0"/>
        <pt x="683" y="471" on="0"/>
        <pt x="683" y="369" on="1"/>
        <pt x="683" y="265" on="0"/>
        <pt x="639" y="121" on="0"/>
        <pt x="542" y="29" on="0"/>
        <pt x="388" y="-12" on="0"/>
        <pt x="279" y="-12" on="1"/>
        <pt x="191" y="-12" on="0"/>
        <pt x="82" y="0" on="1"/>
        <pt x="82" y="305" on="1"/>
        <pt x="0" y="305" on="1"/>
      </contour>
      <contour>
        <pt x="345" y="133" on="1"/>
        <pt x="389" y="133" on="0"/>
        <pt x="447" y="155" on="0"/>
        <pt x="482" y="209" on="0"/>
        <pt x="497" y="300" on="0"/>
        <pt x="497" y="370" on="1"/>
        <pt x="497" y="439" on="0"/>
        <pt x="481" y="529" on="0"/>
        <pt x="442" y="583" on="0"/>
        <pt x="377" y="605" on="0"/>
        <pt x="328" y="605" on="1"/>
        <pt x="309" y="605" on="0"/>
        <pt x="278" y="603" on="0"/>
        <pt x="261" y="601" on="1"/>
        <pt x="261" y="441" on="1"/>
        <pt x="354" y="441" on="1"/>
        <pt x="354" y="305" on="1"/>
        <pt x="261" y="305" on="1"/>
        <pt x="261" y="139" on="1"/>
        <pt x="287" y="136" on="0"/>
        <pt x="326" y="133" on="0"/>
      </contour>
    </TTGlyph>
    <TTGlyph name="Dcroat.sc" xMin="6" yMin="-9" xMax="632" yMax="584">
      <contour>
        <pt x="6" y="356" on="1"/>
        <pt x="80" y="356" on="1"/>
        <pt x="80" y="577" on="1"/>
        <pt x="148" y="581" on="0"/>
        <pt x="242" y="584" on="0"/>
        <pt x="280" y="584" on="1"/>
        <pt x="374" y="584" on="0"/>
        <pt x="508" y="552" on="0"/>
        <pt x="593" y="481" on="0"/>
        <pt x="632" y="368" on="0"/>
        <pt x="632" y="288" on="1"/>
        <pt x="632" y="207" on="0"/>
        <pt x="592" y="93" on="0"/>
        <pt x="503" y="23" on="0"/>
        <pt x="362" y="-9" on="0"/>
        <pt x="262" y="-9" on="1"/>
        <pt x="220" y="-9" on="0"/>
        <pt x="129" y="-4" on="0"/>
        <pt x="80" y="1" on="1"/>
        <pt x="80" y="229" on="1"/>
        <pt x="6" y="229" on="1"/>
      </contour>
      <contour>
        <pt x="325" y="127" on="1"/>
        <pt x="363" y="127" on="0"/>
        <pt x="414" y="140" on="0"/>
        <pt x="444" y="175" on="0"/>
        <pt x="457" y="238" on="0"/>
        <pt x="457" y="288" on="1"/>
        <pt x="457" y="337" on="0"/>
        <pt x="443" y="400" on="0"/>
        <pt x="409" y="436" on="0"/>
        <pt x="352" y="450" on="0"/>
        <pt x="309" y="450" on="1"/>
        <pt x="293" y="450" on="0"/>
        <pt x="266" y="449" on="0"/>
        <pt x="249" y="447" on="1"/>
        <pt x="249" y="356" on="1"/>
        <pt x="328" y="356" on="1"/>
        <pt x="328" y="229" on="1"/>
        <pt x="249" y="229" on="1"/>
        <pt x="249" y="131" on="1"/>
        <pt x="272" y="129" on="0"/>
        <pt x="308" y="127" on="0"/>
      </contour>
    </TTGlyph>
    <TTGlyph name="Ddotbelow" xMin="58" yMin="-212" xMax="659" yMax="749">
      <contour>
        <pt x="334" y="-212" on="1"/>
        <pt x="293" y="-212" on="0"/>
        <pt x="259" y="-177" on="0"/>
        <pt x="259" y="-139" on="1"/>
        <pt x="259" y="-100" on="0"/>
        <pt x="293" y="-66" on="0"/>
        <pt x="334" y="-66" on="1"/>
        <pt x="375" y="-66" on="0"/>
        <pt x="410" y="-100" on="0"/>
        <pt x="410" y="-139" on="1"/>
        <pt x="410" y="-177" on="0"/>
        <pt x="375" y="-212" on="0"/>
      </contour>
      <contour>
        <pt x="255" y="-12" on="1"/>
        <pt x="167" y="-12" on="0"/>
        <pt x="58" y="0" on="1"/>
        <pt x="58" y="739" on="1"/>
        <pt x="131" y="744" on="0"/>
        <pt x="232" y="749" on="0"/>
        <pt x="273" y="749" on="1"/>
        <pt x="377" y="749" on="0"/>
        <pt x="523" y="707" on="0"/>
        <pt x="616" y="616" on="0"/>
        <pt x="659" y="471" on="0"/>
        <pt x="659" y="369" on="1"/>
        <pt x="659" y="265" on="0"/>
        <pt x="615" y="121" on="0"/>
        <pt x="518" y="29" on="0"/>
        <pt x="364" y="-12" on="0"/>
      </contour>
      <contour>
        <pt x="321" y="133" on="1"/>
        <pt x="365" y="133" on="0"/>
        <pt x="423" y="155" on="0"/>
        <pt x="458" y="209" on="0"/>
        <pt x="473" y="300" on="0"/>
        <pt x="473" y="370" on="1"/>
        <pt x="473" y="439" on="0"/>
        <pt x="457" y="529" on="0"/>
        <pt x="418" y="583" on="0"/>
        <pt x="353" y="605" on="0"/>
        <pt x="304" y="605" on="1"/>
        <pt x="285" y="605" on="0"/>
        <pt x="254" y="603" on="0"/>
        <pt x="237" y="601" on="1"/>
        <pt x="237" y="139" on="1"/>
        <pt x="263" y="136" on="0"/>
        <pt x="302" y="133" on="0"/>
      </contour>
    </TTGlyph>
    <TTGlyph name="Ddotbelow.sc" xMin="56" yMin="-175" xMax="608" yMax="584">
      <contour>
        <pt x="251" y="-9" on="1"/>
        <pt x="206" y="-9" on="0"/>
        <pt x="107" y="-4" on="0"/>
        <pt x="56" y="1" on="1"/>
        <pt x="56" y="577" on="1"/>
        <pt x="123" y="581" on="0"/>
        <pt x="218" y="584" on="0"/>
        <pt x="256" y="584" on="1"/>
        <pt x="350" y="584" on="0"/>
        <pt x="484" y="552" on="0"/>
        <pt x="569" y="481" on="0"/>
        <pt x="608" y="368" on="0"/>
        <pt x="608" y="288" on="1"/>
        <pt x="608" y="207" on="0"/>
        <pt x="568" y="94" on="0"/>
        <pt x="483" y="23" on="0"/>
        <pt x="347" y="-9" on="0"/>
      </contour>
      <contour>
        <pt x="301" y="127" on="1"/>
        <pt x="340" y="127" on="0"/>
        <pt x="391" y="140" on="0"/>
        <pt x="421" y="175" on="0"/>
        <pt x="433" y="238" on="0"/>
        <pt x="433" y="288" on="1"/>
        <pt x="433" y="337" on="0"/>
        <pt x="419" y="400" on="0"/>
        <pt x="386" y="436" on="0"/>
        <pt x="329" y="450" on="0"/>
        <pt x="286" y="450" on="1"/>
        <pt x="269" y="450" on="0"/>
        <pt x="241" y="449" on="0"/>
        <pt x="225" y="447" on="1"/>
        <pt x="225" y="131" on="1"/>
        <pt x="248" y="128" on="0"/>
        <pt x="283" y="127" on="0"/>
      </contour>
      <contour>
        <pt x="312" y="-175" on="1"/>
        <pt x="274" y="-175" on="0"/>
        <pt x="242" y="-144" on="0"/>
        <pt x="242" y="-110" on="1"/>
        <pt x="242" y="-75" on="0"/>
        <pt x="274" y="-45" on="0"/>
        <pt x="312" y="-45" on="1"/>
        <pt x="350" y="-45" on="0"/>
        <pt x="382" y="-76" on="0"/>
        <pt x="382" y="-110" on="1"/>
        <pt x="382" y="-144" on="0"/>
        <pt x="350" y="-175" on="0"/>
      </contour>
    </TTGlyph>
    <TTGlyph name="Delta" xMin="18" yMin="0" xMax="743" yMax="740">
      <contour>
        <pt x="267" y="740" on="1"/>
        <pt x="493" y="740" on="1"/>
        <pt x="743" y="0" on="1"/>
        <pt x="18" y="0" on="1"/>
      </contour>
      <contour>
        <pt x="529" y="147" on="1"/>
        <pt x="380" y="588" on="1"/>
        <pt x="232" y="147" on="1"/>
      </contour>
    </TTGlyph>
    <TTGlyph name="E" xMin="58" yMin="0" xMax="557" yMax="740">
      <contour>
        <pt x="58" y="740" on="1"/>
        <pt x="548" y="740" on="1"/>
        <pt x="548" y="593" on="1"/>
        <pt x="240" y="593" on="1"/>
        <pt x="240" y="444" on="1"/>
        <pt x="515" y="444" on="1"/>
        <pt x="515" y="297" on="1"/>
        <pt x="240" y="297" on="1"/>
        <pt x="240" y="147" on="1"/>
        <pt x="557" y="147" on="1"/>
        <pt x="557" y="0" on="1"/>
        <pt x="58" y="0" on="1"/>
      </contour>
    </TTGlyph>
    <TTGlyph name="E.sc" xMin="56" yMin="0" xMax="515" yMax="577">
      <contour>
        <pt x="56" y="577" on="1"/>
        <pt x="507" y="577" on="1"/>
        <pt x="507" y="445" on="1"/>
        <pt x="227" y="445" on="1"/>
        <pt x="227" y="351" on="1"/>
        <pt x="477" y="351" on="1"/>
        <pt x="477" y="227" on="1"/>
        <pt x="227" y="227" on="1"/>
        <pt x="227" y="133" on="1"/>
        <pt x="515" y="133" on="1"/>
        <pt x="515" y="0" on="1"/>
        <pt x="56" y="0" on="1"/>
      </contour>
    </TTGlyph>
    <TTGlyph name="Eacute" xMin="58" yMin="0" xMax="557" yMax="982">
      <contour>
        <pt x="236" y="803" on="1"/>
        <pt x="301" y="982" on="1"/>
        <pt x="482" y="982" on="1"/>
        <pt x="363" y="794" on="1"/>
      </contour>
      <contour>
        <pt x="58" y="740" on="1"/>
        <pt x="548" y="740" on="1"/>
        <pt x="548" y="593" on="1"/>
        <pt x="240" y="593" on="1"/>
        <pt x="240" y="444" on="1"/>
        <pt x="515" y="444" on="1"/>
        <pt x="515" y="297" on="1"/>
        <pt x="240" y="297" on="1"/>
        <pt x="240" y="147" on="1"/>
        <pt x="557" y="147" on="1"/>
        <pt x="557" y="0" on="1"/>
        <pt x="58" y="0" on="1"/>
      </contour>
    </TTGlyph>
    <TTGlyph name="Eacute.sc" xMin="56" yMin="0" xMax="515" yMax="780">
      <contour>
        <pt x="56" y="577" on="1"/>
        <pt x="507" y="577" on="1"/>
        <pt x="507" y="445" on="1"/>
        <pt x="227" y="445" on="1"/>
        <pt x="227" y="351" on="1"/>
        <pt x="477" y="351" on="1"/>
        <pt x="477" y="227" on="1"/>
        <pt x="227" y="227" on="1"/>
        <pt x="227" y="133" on="1"/>
        <pt x="515" y="133" on="1"/>
        <pt x="515" y="0" on="1"/>
        <pt x="56" y="0" on="1"/>
      </contour>
      <contour>
        <pt x="217" y="629" on="1"/>
        <pt x="275" y="780" on="1"/>
        <pt x="445" y="780" on="1"/>
        <pt x="337" y="621" on="1"/>
      </contour>
    </TTGlyph>
    <TTGlyph name="Ebreve" xMin="58" yMin="0" xMax="557" yMax="978">
      <contour>
        <pt x="305" y="798" on="1"/>
        <pt x="203" y="798" on="0"/>
        <pt x="108" y="896" on="0"/>
        <pt x="108" y="978" on="1"/>
        <pt x="226" y="978" on="1"/>
        <pt x="226" y="926" on="0"/>
        <pt x="259" y="881" on="0"/>
        <pt x="305" y="881" on="1"/>
        <pt x="350" y="881" on="0"/>
        <pt x="382" y="926" on="0"/>
        <pt x="382" y="978" on="1"/>
        <pt x="502" y="978" on="1"/>
        <pt x="502" y="896" on="0"/>
        <pt x="405" y="798" on="0"/>
      </contour>
      <contour>
        <pt x="58" y="740" on="1"/>
        <pt x="548" y="740" on="1"/>
        <pt x="548" y="593" on="1"/>
        <pt x="240" y="593" on="1"/>
        <pt x="240" y="444" on="1"/>
        <pt x="515" y="444" on="1"/>
        <pt x="515" y="297" on="1"/>
        <pt x="240" y="297" on="1"/>
        <pt x="240" y="147" on="1"/>
        <pt x="557" y="147" on="1"/>
        <pt x="557" y="0" on="1"/>
        <pt x="58" y="0" on="1"/>
      </contour>
    </TTGlyph>
    <TTGlyph name="Ebreve.sc" xMin="56" yMin="0" xMax="515" yMax="771">
      <contour>
        <pt x="282" y="620" on="1"/>
        <pt x="187" y="620" on="0"/>
        <pt x="100" y="703" on="0"/>
        <pt x="100" y="771" on="1"/>
        <pt x="211" y="771" on="1"/>
        <pt x="211" y="729" on="0"/>
        <pt x="240" y="695" on="0"/>
        <pt x="282" y="695" on="1"/>
        <pt x="324" y="695" on="0"/>
        <pt x="353" y="729" on="0"/>
        <pt x="353" y="771" on="1"/>
        <pt x="464" y="771" on="1"/>
        <pt x="464" y="702" on="0"/>
        <pt x="377" y="620" on="0"/>
      </contour>
      <contour>
        <pt x="56" y="577" on="1"/>
        <pt x="507" y="577" on="1"/>
        <pt x="507" y="445" on="1"/>
        <pt x="227" y="445" on="1"/>
        <pt x="227" y="351" on="1"/>
        <pt x="477" y="351" on="1"/>
        <pt x="477" y="227" on="1"/>
        <pt x="227" y="227" on="1"/>
        <pt x="227" y="133" on="1"/>
        <pt x="515" y="133" on="1"/>
        <pt x="515" y="0" on="1"/>
        <pt x="56" y="0" on="1"/>
      </contour>
    </TTGlyph>
    <TTGlyph name="Ecaron" xMin="58" yMin="0" xMax="557" yMax="982">
      <contour>
        <pt x="135" y="982" on="1"/>
        <pt x="314" y="909" on="1"/>
        <pt x="493" y="982" on="1"/>
        <pt x="493" y="864" on="1"/>
        <pt x="314" y="791" on="1"/>
        <pt x="135" y="864" on="1"/>
      </contour>
      <contour>
        <pt x="58" y="740" on="1"/>
        <pt x="548" y="740" on="1"/>
        <pt x="548" y="593" on="1"/>
        <pt x="240" y="593" on="1"/>
        <pt x="240" y="444" on="1"/>
        <pt x="515" y="444" on="1"/>
        <pt x="515" y="297" on="1"/>
        <pt x="240" y="297" on="1"/>
        <pt x="240" y="147" on="1"/>
        <pt x="557" y="147" on="1"/>
        <pt x="557" y="0" on="1"/>
        <pt x="58" y="0" on="1"/>
      </contour>
    </TTGlyph>
    <TTGlyph name="Ecaron.sc" xMin="56" yMin="0" xMax="515" yMax="781">
      <contour>
        <pt x="56" y="577" on="1"/>
        <pt x="507" y="577" on="1"/>
        <pt x="507" y="445" on="1"/>
        <pt x="227" y="445" on="1"/>
        <pt x="227" y="351" on="1"/>
        <pt x="477" y="351" on="1"/>
        <pt x="477" y="227" on="1"/>
        <pt x="227" y="227" on="1"/>
        <pt x="227" y="133" on="1"/>
        <pt x="515" y="133" on="1"/>
        <pt x="515" y="0" on="1"/>
        <pt x="56" y="0" on="1"/>
      </contour>
      <contour>
        <pt x="125" y="673" on="1"/>
        <pt x="125" y="781" on="1"/>
        <pt x="290" y="722" on="1"/>
        <pt x="456" y="781" on="1"/>
        <pt x="456" y="673" on="1"/>
        <pt x="290" y="615" on="1"/>
      </contour>
    </TTGlyph>
    <TTGlyph name="Ecircumflex" xMin="58" yMin="0" xMax="557" yMax="984">
      <contour>
        <pt x="58" y="740" on="1"/>
        <pt x="548" y="740" on="1"/>
        <pt x="548" y="593" on="1"/>
        <pt x="240" y="593" on="1"/>
        <pt x="240" y="444" on="1"/>
        <pt x="515" y="444" on="1"/>
        <pt x="515" y="297" on="1"/>
        <pt x="240" y="297" on="1"/>
        <pt x="240" y="147" on="1"/>
        <pt x="557" y="147" on="1"/>
        <pt x="557" y="0" on="1"/>
        <pt x="58" y="0" on="1"/>
      </contour>
      <contour>
        <pt x="133" y="911" on="1"/>
        <pt x="312" y="984" on="1"/>
        <pt x="491" y="911" on="1"/>
        <pt x="491" y="793" on="1"/>
        <pt x="312" y="866" on="1"/>
        <pt x="133" y="793" on="1"/>
      </contour>
    </TTGlyph>
    <TTGlyph name="Ecircumflex.sc" xMin="56" yMin="0" xMax="515" yMax="780">
      <contour>
        <pt x="56" y="577" on="1"/>
        <pt x="507" y="577" on="1"/>
        <pt x="507" y="445" on="1"/>
        <pt x="227" y="445" on="1"/>
        <pt x="227" y="351" on="1"/>
        <pt x="477" y="351" on="1"/>
        <pt x="477" y="227" on="1"/>
        <pt x="227" y="227" on="1"/>
        <pt x="227" y="133" on="1"/>
        <pt x="515" y="133" on="1"/>
        <pt x="515" y="0" on="1"/>
        <pt x="56" y="0" on="1"/>
      </contour>
      <contour>
        <pt x="124" y="722" on="1"/>
        <pt x="290" y="780" on="1"/>
        <pt x="455" y="722" on="1"/>
        <pt x="455" y="614" on="1"/>
        <pt x="290" y="672" on="1"/>
        <pt x="124" y="614" on="1"/>
      </contour>
    </TTGlyph>
    <TTGlyph name="Edblgrave" xMin="42" yMin="0" xMax="557" yMax="982">
      <contour>
        <pt x="58" y="740" on="1"/>
        <pt x="548" y="740" on="1"/>
        <pt x="548" y="593" on="1"/>
        <pt x="240" y="593" on="1"/>
        <pt x="240" y="444" on="1"/>
        <pt x="515" y="444" on="1"/>
        <pt x="515" y="297" on="1"/>
        <pt x="240" y="297" on="1"/>
        <pt x="240" y="147" on="1"/>
        <pt x="557" y="147" on="1"/>
        <pt x="557" y="0" on="1"/>
        <pt x="58" y="0" on="1"/>
      </contour>
      <contour>
        <pt x="162" y="793" on="1"/>
        <pt x="42" y="982" on="1"/>
        <pt x="198" y="982" on="1"/>
        <pt x="264" y="804" on="1"/>
      </contour>
      <contour>
        <pt x="362" y="793" on="1"/>
        <pt x="242" y="982" on="1"/>
        <pt x="398" y="982" on="1"/>
        <pt x="464" y="804" on="1"/>
      </contour>
    </TTGlyph>
    <TTGlyph name="Edblgrave.sc" xMin="38" yMin="0" xMax="515" yMax="780">
      <contour>
        <pt x="56" y="577" on="1"/>
        <pt x="507" y="577" on="1"/>
        <pt x="507" y="445" on="1"/>
        <pt x="227" y="445" on="1"/>
        <pt x="227" y="351" on="1"/>
        <pt x="477" y="351" on="1"/>
        <pt x="477" y="227" on="1"/>
        <pt x="227" y="227" on="1"/>
        <pt x="227" y="133" on="1"/>
        <pt x="515" y="133" on="1"/>
        <pt x="515" y="0" on="1"/>
        <pt x="56" y="0" on="1"/>
      </contour>
      <contour>
        <pt x="38" y="780" on="1"/>
        <pt x="188" y="780" on="1"/>
        <pt x="245" y="628" on="1"/>
        <pt x="148" y="621" on="1"/>
      </contour>
      <contour>
        <pt x="223" y="780" on="1"/>
        <pt x="372" y="780" on="1"/>
        <pt x="430" y="628" on="1"/>
        <pt x="333" y="621" on="1"/>
      </contour>
    </TTGlyph>
    <TTGlyph name="Edieresis" xMin="58" yMin="0" xMax="557" yMax="988">
      <contour>
        <pt x="176" y="800" on="1"/>
        <pt x="125" y="800" on="0"/>
        <pt x="80" y="844" on="0"/>
        <pt x="80" y="894" on="1"/>
        <pt x="80" y="944" on="0"/>
        <pt x="125" y="988" on="0"/>
        <pt x="176" y="988" on="1"/>
        <pt x="227" y="988" on="0"/>
        <pt x="273" y="943" on="0"/>
        <pt x="273" y="894" on="1"/>
        <pt x="273" y="844" on="0"/>
        <pt x="227" y="800" on="0"/>
      </contour>
      <contour>
        <pt x="443" y="800" on="1"/>
        <pt x="391" y="800" on="0"/>
        <pt x="346" y="844" on="0"/>
        <pt x="346" y="894" on="1"/>
        <pt x="346" y="944" on="0"/>
        <pt x="391" y="988" on="0"/>
        <pt x="443" y="988" on="1"/>
        <pt x="494" y="988" on="0"/>
        <pt x="539" y="943" on="0"/>
        <pt x="539" y="894" on="1"/>
        <pt x="539" y="844" on="0"/>
        <pt x="494" y="800" on="0"/>
      </contour>
      <contour>
        <pt x="58" y="740" on="1"/>
        <pt x="548" y="740" on="1"/>
        <pt x="548" y="593" on="1"/>
        <pt x="240" y="593" on="1"/>
        <pt x="240" y="444" on="1"/>
        <pt x="515" y="444" on="1"/>
        <pt x="515" y="297" on="1"/>
        <pt x="240" y="297" on="1"/>
        <pt x="240" y="147" on="1"/>
        <pt x="557" y="147" on="1"/>
        <pt x="557" y="0" on="1"/>
        <pt x="58" y="0" on="1"/>
      </contour>
    </TTGlyph>
    <TTGlyph name="Edieresis.sc" xMin="56" yMin="0" xMax="515" yMax="793">
      <contour>
        <pt x="165" y="620" on="1"/>
        <pt x="117" y="620" on="0"/>
        <pt x="75" y="661" on="0"/>
        <pt x="75" y="707" on="1"/>
        <pt x="75" y="752" on="0"/>
        <pt x="117" y="793" on="0"/>
        <pt x="165" y="793" on="1"/>
        <pt x="213" y="793" on="0"/>
        <pt x="256" y="752" on="0"/>
        <pt x="256" y="707" on="1"/>
        <pt x="256" y="662" on="0"/>
        <pt x="213" y="620" on="0"/>
      </contour>
      <contour>
        <pt x="410" y="620" on="1"/>
        <pt x="361" y="620" on="0"/>
        <pt x="320" y="661" on="0"/>
        <pt x="320" y="707" on="1"/>
        <pt x="320" y="752" on="0"/>
        <pt x="361" y="793" on="0"/>
        <pt x="410" y="793" on="1"/>
        <pt x="458" y="793" on="0"/>
        <pt x="501" y="752" on="0"/>
        <pt x="501" y="707" on="1"/>
        <pt x="501" y="662" on="0"/>
        <pt x="458" y="620" on="0"/>
      </contour>
      <contour>
        <pt x="56" y="577" on="1"/>
        <pt x="507" y="577" on="1"/>
        <pt x="507" y="445" on="1"/>
        <pt x="227" y="445" on="1"/>
        <pt x="227" y="351" on="1"/>
        <pt x="477" y="351" on="1"/>
        <pt x="477" y="227" on="1"/>
        <pt x="227" y="227" on="1"/>
        <pt x="227" y="133" on="1"/>
        <pt x="515" y="133" on="1"/>
        <pt x="515" y="0" on="1"/>
        <pt x="56" y="0" on="1"/>
      </contour>
    </TTGlyph>
    <TTGlyph name="Edotaccent" xMin="58" yMin="0" xMax="557" yMax="986">
      <contour>
        <pt x="305" y="798" on="1"/>
        <pt x="254" y="798" on="0"/>
        <pt x="209" y="842" on="0"/>
        <pt x="209" y="892" on="1"/>
        <pt x="209" y="942" on="0"/>
        <pt x="254" y="986" on="0"/>
        <pt x="305" y="986" on="1"/>
        <pt x="356" y="986" on="0"/>
        <pt x="402" y="942" on="0"/>
        <pt x="402" y="892" on="1"/>
        <pt x="402" y="843" on="0"/>
        <pt x="356" y="798" on="0"/>
      </contour>
      <contour>
        <pt x="58" y="740" on="1"/>
        <pt x="548" y="740" on="1"/>
        <pt x="548" y="593" on="1"/>
        <pt x="240" y="593" on="1"/>
        <pt x="240" y="444" on="1"/>
        <pt x="515" y="444" on="1"/>
        <pt x="515" y="297" on="1"/>
        <pt x="240" y="297" on="1"/>
        <pt x="240" y="147" on="1"/>
        <pt x="557" y="147" on="1"/>
        <pt x="557" y="0" on="1"/>
        <pt x="58" y="0" on="1"/>
      </contour>
    </TTGlyph>
    <TTGlyph name="Edotaccent.sc" xMin="56" yMin="0" xMax="515" yMax="793">
      <contour>
        <pt x="282" y="621" on="1"/>
        <pt x="234" y="621" on="0"/>
        <pt x="192" y="662" on="0"/>
        <pt x="192" y="708" on="1"/>
        <pt x="192" y="753" on="0"/>
        <pt x="234" y="793" on="0"/>
        <pt x="282" y="793" on="1"/>
        <pt x="330" y="793" on="0"/>
        <pt x="372" y="753" on="0"/>
        <pt x="372" y="708" on="1"/>
        <pt x="372" y="662" on="0"/>
        <pt x="330" y="621" on="0"/>
      </contour>
      <contour>
        <pt x="56" y="577" on="1"/>
        <pt x="507" y="577" on="1"/>
        <pt x="507" y="445" on="1"/>
        <pt x="227" y="445" on="1"/>
        <pt x="227" y="351" on="1"/>
        <pt x="477" y="351" on="1"/>
        <pt x="477" y="227" on="1"/>
        <pt x="227" y="227" on="1"/>
        <pt x="227" y="133" on="1"/>
        <pt x="515" y="133" on="1"/>
        <pt x="515" y="0" on="1"/>
        <pt x="56" y="0" on="1"/>
      </contour>
    </TTGlyph>
    <TTGlyph name="Edotbelow" xMin="58" yMin="-212" xMax="557" yMax="740">
      <contour>
        <pt x="58" y="740" on="1"/>
        <pt x="548" y="740" on="1"/>
        <pt x="548" y="593" on="1"/>
        <pt x="240" y="593" on="1"/>
        <pt x="240" y="444" on="1"/>
        <pt x="515" y="444" on="1"/>
        <pt x="515" y="297" on="1"/>
        <pt x="240" y="297" on="1"/>
        <pt x="240" y="147" on="1"/>
        <pt x="557" y="147" on="1"/>
        <pt x="557" y="0" on="1"/>
        <pt x="58" y="0" on="1"/>
      </contour>
      <contour>
        <pt x="315" y="-212" on="1"/>
        <pt x="274" y="-212" on="0"/>
        <pt x="240" y="-177" on="0"/>
        <pt x="240" y="-139" on="1"/>
        <pt x="240" y="-100" on="0"/>
        <pt x="274" y="-66" on="0"/>
        <pt x="315" y="-66" on="1"/>
        <pt x="356" y="-66" on="0"/>
        <pt x="391" y="-100" on="0"/>
        <pt x="391" y="-139" on="1"/>
        <pt x="391" y="-177" on="0"/>
        <pt x="356" y="-212" on="0"/>
      </contour>
    </TTGlyph>
    <TTGlyph name="Edotbelow.sc" xMin="56" yMin="-175" xMax="515" yMax="577">
      <contour>
        <pt x="292" y="-175" on="1"/>
        <pt x="255" y="-175" on="0"/>
        <pt x="223" y="-145" on="0"/>
        <pt x="223" y="-110" on="1"/>
        <pt x="223" y="-75" on="0"/>
        <pt x="255" y="-45" on="0"/>
        <pt x="292" y="-45" on="1"/>
        <pt x="330" y="-45" on="0"/>
        <pt x="363" y="-76" on="0"/>
        <pt x="363" y="-110" on="1"/>
        <pt x="363" y="-144" on="0"/>
        <pt x="330" y="-175" on="0"/>
      </contour>
      <contour>
        <pt x="56" y="577" on="1"/>
        <pt x="507" y="577" on="1"/>
        <pt x="507" y="445" on="1"/>
        <pt x="227" y="445" on="1"/>
        <pt x="227" y="351" on="1"/>
        <pt x="477" y="351" on="1"/>
        <pt x="477" y="227" on="1"/>
        <pt x="227" y="227" on="1"/>
        <pt x="227" y="133" on="1"/>
        <pt x="515" y="133" on="1"/>
        <pt x="515" y="0" on="1"/>
        <pt x="56" y="0" on="1"/>
      </contour>
    </TTGlyph>
    <TTGlyph name="Egrave" xMin="58" yMin="0" xMax="557" yMax="982">
      <contour>
        <pt x="247" y="794" on="1"/>
        <pt x="128" y="982" on="1"/>
        <pt x="309" y="982" on="1"/>
        <pt x="374" y="804" on="1"/>
      </contour>
      <contour>
        <pt x="58" y="740" on="1"/>
        <pt x="548" y="740" on="1"/>
        <pt x="548" y="593" on="1"/>
        <pt x="240" y="593" on="1"/>
        <pt x="240" y="444" on="1"/>
        <pt x="515" y="444" on="1"/>
        <pt x="515" y="297" on="1"/>
        <pt x="240" y="297" on="1"/>
        <pt x="240" y="147" on="1"/>
        <pt x="557" y="147" on="1"/>
        <pt x="557" y="0" on="1"/>
        <pt x="58" y="0" on="1"/>
      </contour>
    </TTGlyph>
    <TTGlyph name="Egrave.sc" xMin="56" yMin="0" xMax="515" yMax="780">
      <contour>
        <pt x="56" y="577" on="1"/>
        <pt x="507" y="577" on="1"/>
        <pt x="507" y="445" on="1"/>
        <pt x="227" y="445" on="1"/>
        <pt x="227" y="351" on="1"/>
        <pt x="477" y="351" on="1"/>
        <pt x="477" y="227" on="1"/>
        <pt x="227" y="227" on="1"/>
        <pt x="227" y="133" on="1"/>
        <pt x="515" y="133" on="1"/>
        <pt x="515" y="0" on="1"/>
        <pt x="56" y="0" on="1"/>
      </contour>
      <contour>
        <pt x="122" y="780" on="1"/>
        <pt x="292" y="780" on="1"/>
        <pt x="350" y="628" on="1"/>
        <pt x="230" y="621" on="1"/>
      </contour>
    </TTGlyph>
    <TTGlyph name="Einvertedbreve" xMin="58" yMin="0" xMax="557" yMax="988">
      <contour>
        <pt x="58" y="740" on="1"/>
        <pt x="548" y="740" on="1"/>
        <pt x="548" y="593" on="1"/>
        <pt x="240" y="593" on="1"/>
        <pt x="240" y="444" on="1"/>
        <pt x="515" y="444" on="1"/>
        <pt x="515" y="297" on="1"/>
        <pt x="240" y="297" on="1"/>
        <pt x="240" y="147" on="1"/>
        <pt x="557" y="147" on="1"/>
        <pt x="557" y="0" on="1"/>
        <pt x="58" y="0" on="1"/>
      </contour>
      <contour>
        <pt x="385" y="808" on="1"/>
        <pt x="385" y="860" on="0"/>
        <pt x="353" y="905" on="0"/>
        <pt x="308" y="905" on="1"/>
        <pt x="263" y="905" on="0"/>
        <pt x="230" y="860" on="0"/>
        <pt x="230" y="808" on="1"/>
        <pt x="111" y="808" on="1"/>
        <pt x="111" y="890" on="0"/>
        <pt x="207" y="988" on="0"/>
        <pt x="308" y="988" on="1"/>
        <pt x="409" y="988" on="0"/>
        <pt x="505" y="891" on="0"/>
        <pt x="505" y="808" on="1"/>
      </contour>
    </TTGlyph>
    <TTGlyph name="Einvertedbreve.sc" xMin="56" yMin="0" xMax="515" yMax="779">
      <contour>
        <pt x="103" y="628" on="1"/>
        <pt x="103" y="662" on="0"/>
        <pt x="124" y="717" on="0"/>
        <pt x="169" y="757" on="0"/>
        <pt x="238" y="779" on="0"/>
        <pt x="286" y="779" on="1"/>
        <pt x="380" y="779" on="0"/>
        <pt x="468" y="697" on="0"/>
        <pt x="468" y="628" on="1"/>
        <pt x="356" y="628" on="1"/>
        <pt x="356" y="670" on="0"/>
        <pt x="327" y="703" on="0"/>
        <pt x="286" y="703" on="1"/>
        <pt x="244" y="703" on="0"/>
        <pt x="214" y="670" on="0"/>
        <pt x="214" y="628" on="1"/>
      </contour>
      <contour>
        <pt x="56" y="577" on="1"/>
        <pt x="507" y="577" on="1"/>
        <pt x="507" y="445" on="1"/>
        <pt x="227" y="445" on="1"/>
        <pt x="227" y="351" on="1"/>
        <pt x="477" y="351" on="1"/>
        <pt x="477" y="227" on="1"/>
        <pt x="227" y="227" on="1"/>
        <pt x="227" y="133" on="1"/>
        <pt x="515" y="133" on="1"/>
        <pt x="515" y="0" on="1"/>
        <pt x="56" y="0" on="1"/>
      </contour>
    </TTGlyph>
    <TTGlyph name="Emacron" xMin="58" yMin="0" xMax="557" yMax="955">
      <contour>
        <pt x="130" y="955" on="1"/>
        <pt x="484" y="955" on="1"/>
        <pt x="484" y="838" on="1"/>
        <pt x="130" y="838" on="1"/>
      </contour>
      <contour>
        <pt x="58" y="740" on="1"/>
        <pt x="548" y="740" on="1"/>
        <pt x="548" y="593" on="1"/>
        <pt x="240" y="593" on="1"/>
        <pt x="240" y="444" on="1"/>
        <pt x="515" y="444" on="1"/>
        <pt x="515" y="297" on="1"/>
        <pt x="240" y="297" on="1"/>
        <pt x="240" y="147" on="1"/>
        <pt x="557" y="147" on="1"/>
        <pt x="557" y="0" on="1"/>
        <pt x="58" y="0" on="1"/>
      </contour>
    </TTGlyph>
    <TTGlyph name="Emacron.sc" xMin="56" yMin="0" xMax="515" yMax="762">
      <contour>
        <pt x="56" y="577" on="1"/>
        <pt x="507" y="577" on="1"/>
        <pt x="507" y="445" on="1"/>
        <pt x="227" y="445" on="1"/>
        <pt x="227" y="351" on="1"/>
        <pt x="477" y="351" on="1"/>
        <pt x="477" y="227" on="1"/>
        <pt x="227" y="227" on="1"/>
        <pt x="227" y="133" on="1"/>
        <pt x="515" y="133" on="1"/>
        <pt x="515" y="0" on="1"/>
        <pt x="56" y="0" on="1"/>
      </contour>
      <contour>
        <pt x="121" y="762" on="1"/>
        <pt x="449" y="762" on="1"/>
        <pt x="449" y="653" on="1"/>
        <pt x="121" y="653" on="1"/>
      </contour>
    </TTGlyph>
    <TTGlyph name="Eng" xMin="58" yMin="-209" xMax="671" yMax="740">
      <contour>
        <pt x="425" y="-170" on="1"/>
        <pt x="449" y="-108" on="0"/>
        <pt x="479" y="4" on="0"/>
        <pt x="485" y="58" on="1"/>
        <pt x="275" y="361" on="1"/>
        <pt x="229" y="445" on="1"/>
        <pt x="219" y="445" on="1"/>
        <pt x="219" y="0" on="1"/>
        <pt x="58" y="0" on="1"/>
        <pt x="58" y="740" on="1"/>
        <pt x="204" y="740" on="1"/>
        <pt x="456" y="379" on="1"/>
        <pt x="500" y="297" on="1"/>
        <pt x="510" y="297" on="1"/>
        <pt x="510" y="740" on="1"/>
        <pt x="671" y="740" on="1"/>
        <pt x="671" y="122" on="1"/>
        <pt x="671" y="93" on="0"/>
        <pt x="651" y="13" on="0"/>
        <pt x="617" y="-76" on="0"/>
        <pt x="569" y="-168" on="0"/>
        <pt x="542" y="-209" on="1"/>
      </contour>
    </TTGlyph>
    <TTGlyph name="Eng.sc" xMin="57" yMin="-169" xMax="611" yMax="577">
      <contour>
        <pt x="387" y="-133" on="1"/>
        <pt x="410" y="-80" on="0"/>
        <pt x="435" y="7" on="0"/>
        <pt x="441" y="50" on="1"/>
        <pt x="260" y="239" on="1"/>
        <pt x="217" y="305" on="1"/>
        <pt x="208" y="306" on="1"/>
        <pt x="208" y="0" on="1"/>
        <pt x="57" y="0" on="1"/>
        <pt x="57" y="577" on="1"/>
        <pt x="193" y="577" on="1"/>
        <pt x="410" y="337" on="1"/>
        <pt x="451" y="274" on="1"/>
        <pt x="460" y="274" on="1"/>
        <pt x="460" y="577" on="1"/>
        <pt x="611" y="577" on="1"/>
        <pt x="611" y="109" on="1"/>
        <pt x="611" y="84" on="0"/>
        <pt x="594" y="17" on="0"/>
        <pt x="564" y="-56" on="0"/>
        <pt x="522" y="-133" on="0"/>
        <pt x="497" y="-169" on="1"/>
      </contour>
    </TTGlyph>
    <TTGlyph name="Eogonek" xMin="58" yMin="-220" xMax="557" yMax="740">
      <contour>
        <pt x="58" y="740" on="1"/>
        <pt x="548" y="740" on="1"/>
        <pt x="548" y="593" on="1"/>
        <pt x="240" y="593" on="1"/>
        <pt x="240" y="444" on="1"/>
        <pt x="515" y="444" on="1"/>
        <pt x="515" y="297" on="1"/>
        <pt x="240" y="297" on="1"/>
        <pt x="240" y="147" on="1"/>
        <pt x="557" y="147" on="1"/>
        <pt x="557" y="-7" on="1"/>
        <pt x="494" y="-32" on="0"/>
        <pt x="446" y="-82" on="0"/>
        <pt x="446" y="-99" on="1"/>
        <pt x="446" y="-122" on="0"/>
        <pt x="481" y="-122" on="1"/>
        <pt x="498" y="-122" on="0"/>
        <pt x="540" y="-113" on="0"/>
        <pt x="557" y="-108" on="1"/>
        <pt x="557" y="-208" on="1"/>
        <pt x="534" y="-213" on="0"/>
        <pt x="492" y="-220" on="0"/>
        <pt x="468" y="-220" on="1"/>
        <pt x="332" y="-220" on="0"/>
        <pt x="332" y="-121" on="1"/>
        <pt x="332" y="-87" on="0"/>
        <pt x="369" y="-29" on="0"/>
        <pt x="411" y="0" on="1"/>
        <pt x="58" y="0" on="1"/>
      </contour>
    </TTGlyph>
    <TTGlyph name="Eogonek.sc" xMin="57" yMin="-172" xMax="516" yMax="577">
      <contour>
        <pt x="434" y="-172" on="1"/>
        <pt x="308" y="-172" on="0"/>
        <pt x="308" y="-91" on="1"/>
        <pt x="308" y="-65" on="0"/>
        <pt x="340" y="-22" on="0"/>
        <pt x="374" y="0" on="1"/>
        <pt x="57" y="0" on="1"/>
        <pt x="57" y="577" on="1"/>
        <pt x="507" y="577" on="1"/>
        <pt x="507" y="445" on="1"/>
        <pt x="228" y="445" on="1"/>
        <pt x="228" y="351" on="1"/>
        <pt x="478" y="351" on="1"/>
        <pt x="478" y="227" on="1"/>
        <pt x="228" y="227" on="1"/>
        <pt x="228" y="133" on="1"/>
        <pt x="515" y="133" on="1"/>
        <pt x="515" y="-3" on="1"/>
        <pt x="485" y="-14" on="0"/>
        <pt x="446" y="-34" on="0"/>
        <pt x="423" y="-51" on="0"/>
        <pt x="415" y="-65" on="0"/>
        <pt x="415" y="-69" on="1"/>
        <pt x="415" y="-81" on="0"/>
        <pt x="444" y="-81" on="1"/>
        <pt x="460" y="-81" on="0"/>
        <pt x="502" y="-74" on="0"/>
        <pt x="516" y="-71" on="1"/>
        <pt x="516" y="-162" on="1"/>
        <pt x="494" y="-167" on="0"/>
        <pt x="455" y="-172" on="0"/>
      </contour>
    </TTGlyph>
    <TTGlyph name="Eth" xMin="0" yMin="-12" xMax="683" yMax="749">
      <contour>
        <pt x="0" y="441" on="1"/>
        <pt x="82" y="441" on="1"/>
        <pt x="82" y="739" on="1"/>
        <pt x="155" y="744" on="0"/>
        <pt x="256" y="749" on="0"/>
        <pt x="297" y="749" on="1"/>
        <pt x="401" y="749" on="0"/>
        <pt x="547" y="707" on="0"/>
        <pt x="640" y="616" on="0"/>
        <pt x="683" y="471" on="0"/>
        <pt x="683" y="369" on="1"/>
        <pt x="683" y="265" on="0"/>
        <pt x="639" y="121" on="0"/>
        <pt x="542" y="29" on="0"/>
        <pt x="388" y="-12" on="0"/>
        <pt x="279" y="-12" on="1"/>
        <pt x="191" y="-12" on="0"/>
        <pt x="82" y="0" on="1"/>
        <pt x="82" y="305" on="1"/>
        <pt x="0" y="305" on="1"/>
      </contour>
      <contour>
        <pt x="345" y="133" on="1"/>
        <pt x="389" y="133" on="0"/>
        <pt x="447" y="155" on="0"/>
        <pt x="482" y="209" on="0"/>
        <pt x="497" y="300" on="0"/>
        <pt x="497" y="370" on="1"/>
        <pt x="497" y="439" on="0"/>
        <pt x="481" y="529" on="0"/>
        <pt x="442" y="583" on="0"/>
        <pt x="377" y="605" on="0"/>
        <pt x="328" y="605" on="1"/>
        <pt x="309" y="605" on="0"/>
        <pt x="278" y="603" on="0"/>
        <pt x="261" y="601" on="1"/>
        <pt x="261" y="441" on="1"/>
        <pt x="354" y="441" on="1"/>
        <pt x="354" y="305" on="1"/>
        <pt x="261" y="305" on="1"/>
        <pt x="261" y="139" on="1"/>
        <pt x="287" y="136" on="0"/>
        <pt x="326" y="133" on="0"/>
      </contour>
    </TTGlyph>
    <TTGlyph name="Eth.sc" xMin="5" yMin="-9" xMax="632" yMax="584">
      <contour>
        <pt x="5" y="353" on="1"/>
        <pt x="79" y="353" on="1"/>
        <pt x="79" y="577" on="1"/>
        <pt x="147" y="581" on="0"/>
        <pt x="241" y="584" on="0"/>
        <pt x="279" y="584" on="1"/>
        <pt x="374" y="584" on="0"/>
        <pt x="508" y="552" on="0"/>
        <pt x="593" y="481" on="0"/>
        <pt x="632" y="368" on="0"/>
        <pt x="632" y="288" on="1"/>
        <pt x="632" y="207" on="0"/>
        <pt x="591" y="93" on="0"/>
        <pt x="503" y="23" on="0"/>
        <pt x="361" y="-9" on="0"/>
        <pt x="261" y="-9" on="1"/>
        <pt x="219" y="-9" on="0"/>
        <pt x="128" y="-4" on="0"/>
        <pt x="79" y="1" on="1"/>
        <pt x="79" y="230" on="1"/>
        <pt x="5" y="230" on="1"/>
      </contour>
      <contour>
        <pt x="324" y="127" on="1"/>
        <pt x="363" y="127" on="0"/>
        <pt x="414" y="140" on="0"/>
        <pt x="444" y="175" on="0"/>
        <pt x="456" y="238" on="0"/>
        <pt x="456" y="288" on="1"/>
        <pt x="456" y="337" on="0"/>
        <pt x="442" y="400" on="0"/>
        <pt x="408" y="436" on="0"/>
        <pt x="352" y="450" on="0"/>
        <pt x="309" y="450" on="1"/>
        <pt x="292" y="450" on="0"/>
        <pt x="265" y="449" on="0"/>
        <pt x="248" y="447" on="1"/>
        <pt x="248" y="353" on="1"/>
        <pt x="327" y="353" on="1"/>
        <pt x="327" y="230" on="1"/>
        <pt x="248" y="230" on="1"/>
        <pt x="248" y="131" on="1"/>
        <pt x="271" y="129" on="0"/>
        <pt x="307" y="127" on="0"/>
      </contour>
    </TTGlyph>
    <TTGlyph name="Etilde" xMin="58" yMin="0" xMax="557" yMax="966">
      <contour>
        <pt x="105" y="842" on="1"/>
        <pt x="137" y="905" on="0"/>
        <pt x="216" y="966" on="0"/>
        <pt x="254" y="966" on="1"/>
        <pt x="276" y="966" on="0"/>
        <pt x="318" y="954" on="0"/>
        <pt x="359" y="940" on="0"/>
        <pt x="401" y="928" on="0"/>
        <pt x="423" y="928" on="1"/>
        <pt x="443" y="928" on="0"/>
        <pt x="482" y="944" on="0"/>
        <pt x="505" y="966" on="1"/>
        <pt x="528" y="941" on="1"/>
        <pt x="498" y="878" on="0"/>
        <pt x="418" y="816" on="0"/>
        <pt x="380" y="816" on="1"/>
        <pt x="359" y="816" on="0"/>
        <pt x="316" y="828" on="0"/>
        <pt x="274" y="842" on="0"/>
        <pt x="232" y="854" on="0"/>
        <pt x="211" y="854" on="1"/>
        <pt x="190" y="854" on="0"/>
        <pt x="151" y="838" on="0"/>
        <pt x="128" y="817" on="1"/>
      </contour>
      <contour>
        <pt x="58" y="740" on="1"/>
        <pt x="548" y="740" on="1"/>
        <pt x="548" y="593" on="1"/>
        <pt x="240" y="593" on="1"/>
        <pt x="240" y="444" on="1"/>
        <pt x="515" y="444" on="1"/>
        <pt x="515" y="297" on="1"/>
        <pt x="240" y="297" on="1"/>
        <pt x="240" y="147" on="1"/>
        <pt x="557" y="147" on="1"/>
        <pt x="557" y="0" on="1"/>
        <pt x="58" y="0" on="1"/>
      </contour>
    </TTGlyph>
    <TTGlyph name="Etilde.sc" xMin="56" yMin="0" xMax="515" yMax="768">
      <contour>
        <pt x="98" y="656" on="1"/>
        <pt x="127" y="713" on="0"/>
        <pt x="201" y="768" on="0"/>
        <pt x="236" y="768" on="1"/>
        <pt x="256" y="768" on="0"/>
        <pt x="295" y="759" on="0"/>
        <pt x="333" y="749" on="0"/>
        <pt x="372" y="740" on="0"/>
        <pt x="392" y="740" on="1"/>
        <pt x="411" y="740" on="0"/>
        <pt x="446" y="751" on="0"/>
        <pt x="468" y="768" on="1"/>
        <pt x="489" y="747" on="1"/>
        <pt x="460" y="690" on="0"/>
        <pt x="386" y="635" on="0"/>
        <pt x="351" y="635" on="1"/>
        <pt x="331" y="635" on="0"/>
        <pt x="293" y="644" on="0"/>
        <pt x="254" y="655" on="0"/>
        <pt x="215" y="664" on="0"/>
        <pt x="195" y="664" on="1"/>
        <pt x="175" y="664" on="0"/>
        <pt x="140" y="653" on="0"/>
        <pt x="118" y="636" on="1"/>
      </contour>
      <contour>
        <pt x="56" y="577" on="1"/>
        <pt x="507" y="577" on="1"/>
        <pt x="507" y="445" on="1"/>
        <pt x="227" y="445" on="1"/>
        <pt x="227" y="351" on="1"/>
        <pt x="477" y="351" on="1"/>
        <pt x="477" y="227" on="1"/>
        <pt x="227" y="227" on="1"/>
        <pt x="227" y="133" on="1"/>
        <pt x="515" y="133" on="1"/>
        <pt x="515" y="0" on="1"/>
        <pt x="56" y="0" on="1"/>
      </contour>
    </TTGlyph>
    <TTGlyph name="Euro" xMin="28" yMin="-10" xMax="599" yMax="750">
      <contour>
        <pt x="28" y="503" on="1"/>
        <pt x="112" y="503" on="1"/>
        <pt x="170" y="750" on="0"/>
        <pt x="457" y="750" on="1"/>
        <pt x="502" y="750" on="0"/>
        <pt x="573" y="739" on="0"/>
        <pt x="599" y="731" on="1"/>
        <pt x="564" y="591" on="1"/>
        <pt x="543" y="594" on="0"/>
        <pt x="502" y="598" on="0"/>
        <pt x="483" y="598" on="1"/>
        <pt x="442" y="598" on="0"/>
        <pt x="379" y="589" on="0"/>
        <pt x="334" y="566" on="0"/>
        <pt x="305" y="530" on="0"/>
        <pt x="296" y="503" on="1"/>
        <pt x="530" y="503" on="1"/>
        <pt x="510" y="405" on="1"/>
        <pt x="282" y="405" on="1"/>
        <pt x="282" y="334" on="1"/>
        <pt x="497" y="334" on="1"/>
        <pt x="477" y="236" on="1"/>
        <pt x="296" y="236" on="1"/>
        <pt x="313" y="182" on="0"/>
        <pt x="401" y="141" on="0"/>
        <pt x="484" y="141" on="1"/>
        <pt x="543" y="141" on="0"/>
        <pt x="596" y="155" on="1"/>
        <pt x="596" y="8" on="1"/>
        <pt x="570" y="-1" on="0"/>
        <pt x="499" y="-10" on="0"/>
        <pt x="459" y="-10" on="1"/>
        <pt x="312" y="-10" on="0"/>
        <pt x="141" y="114" on="0"/>
        <pt x="112" y="236" on="1"/>
        <pt x="28" y="236" on="1"/>
        <pt x="28" y="334" on="1"/>
        <pt x="100" y="334" on="1"/>
        <pt x="99" y="342" on="0"/>
        <pt x="99" y="360" on="0"/>
        <pt x="99" y="369" on="1"/>
        <pt x="99" y="378" on="0"/>
        <pt x="99" y="396" on="0"/>
        <pt x="100" y="405" on="1"/>
        <pt x="28" y="405" on="1"/>
      </contour>
    </TTGlyph>
    <TTGlyph name="Euro.tab" xMin="17" yMin="-10" xMax="580" yMax="750">
      <contour>
        <pt x="17" y="503" on="1"/>
        <pt x="101" y="503" on="1"/>
        <pt x="157" y="750" on="0"/>
        <pt x="439" y="750" on="1"/>
        <pt x="484" y="750" on="0"/>
        <pt x="554" y="739" on="0"/>
        <pt x="580" y="731" on="1"/>
        <pt x="546" y="591" on="1"/>
        <pt x="525" y="594" on="0"/>
        <pt x="483" y="598" on="0"/>
        <pt x="465" y="598" on="1"/>
        <pt x="387" y="598" on="0"/>
        <pt x="302" y="557" on="0"/>
        <pt x="285" y="503" on="1"/>
        <pt x="512" y="503" on="1"/>
        <pt x="493" y="405" on="1"/>
        <pt x="268" y="405" on="1"/>
        <pt x="268" y="334" on="1"/>
        <pt x="480" y="334" on="1"/>
        <pt x="461" y="236" on="1"/>
        <pt x="285" y="236" on="1"/>
        <pt x="303" y="183" on="0"/>
        <pt x="389" y="141" on="0"/>
        <pt x="467" y="141" on="1"/>
        <pt x="525" y="141" on="0"/>
        <pt x="578" y="155" on="1"/>
        <pt x="578" y="8" on="1"/>
        <pt x="552" y="-1" on="0"/>
        <pt x="481" y="-10" on="0"/>
        <pt x="441" y="-10" on="1"/>
        <pt x="157" y="-10" on="0"/>
        <pt x="101" y="236" on="1"/>
        <pt x="17" y="236" on="1"/>
        <pt x="17" y="334" on="1"/>
        <pt x="88" y="334" on="1"/>
        <pt x="87" y="342" on="0"/>
        <pt x="87" y="361" on="0"/>
        <pt x="87" y="369" on="1"/>
        <pt x="87" y="377" on="0"/>
        <pt x="87" y="397" on="0"/>
        <pt x="88" y="405" on="1"/>
        <pt x="17" y="405" on="1"/>
      </contour>
    </TTGlyph>
    <TTGlyph name="F" xMin="58" yMin="0" xMax="540" yMax="740">
      <contour>
        <pt x="58" y="740" on="1"/>
        <pt x="540" y="740" on="1"/>
        <pt x="540" y="593" on="1"/>
        <pt x="240" y="593" on="1"/>
        <pt x="240" y="425" on="1"/>
        <pt x="508" y="425" on="1"/>
        <pt x="508" y="278" on="1"/>
        <pt x="240" y="278" on="1"/>
        <pt x="240" y="0" on="1"/>
        <pt x="58" y="0" on="1"/>
      </contour>
    </TTGlyph>
    <TTGlyph name="F.sc" xMin="56" yMin="0" xMax="500" yMax="577">
      <contour>
        <pt x="56" y="577" on="1"/>
        <pt x="500" y="577" on="1"/>
        <pt x="500" y="440" on="1"/>
        <pt x="227" y="440" on="1"/>
        <pt x="227" y="335" on="1"/>
        <pt x="471" y="335" on="1"/>
        <pt x="471" y="203" on="1"/>
        <pt x="227" y="203" on="1"/>
        <pt x="227" y="0" on="1"/>
        <pt x="56" y="0" on="1"/>
      </contour>
    </TTGlyph>
    <TTGlyph name="F_B.sc" xMin="57" yMin="-8" xMax="1085" yMax="585">
      <contour>
        <pt x="57" y="577" on="1"/>
        <pt x="501" y="577" on="1"/>
        <pt x="501" y="440" on="1"/>
        <pt x="228" y="440" on="1"/>
        <pt x="228" y="335" on="1"/>
        <pt x="472" y="335" on="1"/>
        <pt x="472" y="203" on="1"/>
        <pt x="228" y="203" on="1"/>
        <pt x="228" y="0" on="1"/>
        <pt x="57" y="0" on="1"/>
      </contour>
      <contour>
        <pt x="792" y="-8" on="1"/>
        <pt x="683" y="-8" on="0"/>
        <pt x="574" y="4" on="1"/>
        <pt x="574" y="573" on="1"/>
        <pt x="637" y="579" on="0"/>
        <pt x="740" y="585" on="0"/>
        <pt x="788" y="585" on="1"/>
        <pt x="934" y="585" on="0"/>
        <pt x="1066" y="506" on="0"/>
        <pt x="1066" y="418" on="1"/>
        <pt x="1066" y="324" on="0"/>
        <pt x="963" y="299" on="1"/>
        <pt x="963" y="296" on="1"/>
        <pt x="1023" y="285" on="0"/>
        <pt x="1085" y="217" on="0"/>
        <pt x="1085" y="161" on="1"/>
        <pt x="1085" y="-8" on="0"/>
      </contour>
      <contour>
        <pt x="809" y="114" on="1"/>
        <pt x="919" y="114" on="0"/>
        <pt x="919" y="174" on="1"/>
        <pt x="919" y="209" on="0"/>
        <pt x="868" y="236" on="0"/>
        <pt x="808" y="236" on="1"/>
        <pt x="733" y="236" on="1"/>
        <pt x="733" y="116" on="1"/>
        <pt x="743" y="114" on="0"/>
        <pt x="774" y="114" on="0"/>
      </contour>
      <contour>
        <pt x="801" y="344" on="1"/>
        <pt x="855" y="344" on="0"/>
        <pt x="898" y="371" on="0"/>
        <pt x="898" y="406" on="1"/>
        <pt x="898" y="437" on="0"/>
        <pt x="854" y="463" on="0"/>
        <pt x="805" y="463" on="1"/>
        <pt x="787" y="463" on="0"/>
        <pt x="751" y="462" on="0"/>
        <pt x="733" y="460" on="1"/>
        <pt x="733" y="344" on="1"/>
      </contour>
    </TTGlyph>
    <TTGlyph name="F_F.sc" xMin="56" yMin="0" xMax="1017" yMax="577">
      <contour>
        <pt x="56" y="577" on="1"/>
        <pt x="500" y="577" on="1"/>
        <pt x="500" y="440" on="1"/>
        <pt x="227" y="440" on="1"/>
        <pt x="227" y="335" on="1"/>
        <pt x="471" y="335" on="1"/>
        <pt x="471" y="203" on="1"/>
        <pt x="227" y="203" on="1"/>
        <pt x="227" y="0" on="1"/>
        <pt x="56" y="0" on="1"/>
      </contour>
      <contour>
        <pt x="573" y="577" on="1"/>
        <pt x="1017" y="577" on="1"/>
        <pt x="1017" y="440" on="1"/>
        <pt x="744" y="440" on="1"/>
        <pt x="744" y="335" on="1"/>
        <pt x="988" y="335" on="1"/>
        <pt x="988" y="203" on="1"/>
        <pt x="744" y="203" on="1"/>
        <pt x="744" y="0" on="1"/>
        <pt x="573" y="0" on="1"/>
      </contour>
    </TTGlyph>
    <TTGlyph name="F_F_B.sc" xMin="57" yMin="-8" xMax="1603" yMax="585">
      <contour>
        <pt x="57" y="577" on="1"/>
        <pt x="501" y="577" on="1"/>
        <pt x="501" y="440" on="1"/>
        <pt x="228" y="440" on="1"/>
        <pt x="228" y="335" on="1"/>
        <pt x="472" y="335" on="1"/>
        <pt x="472" y="203" on="1"/>
        <pt x="228" y="203" on="1"/>
        <pt x="228" y="0" on="1"/>
        <pt x="57" y="0" on="1"/>
      </contour>
      <contour>
        <pt x="574" y="577" on="1"/>
        <pt x="1018" y="577" on="1"/>
        <pt x="1018" y="440" on="1"/>
        <pt x="745" y="440" on="1"/>
        <pt x="745" y="335" on="1"/>
        <pt x="989" y="335" on="1"/>
        <pt x="989" y="203" on="1"/>
        <pt x="745" y="203" on="1"/>
        <pt x="745" y="0" on="1"/>
        <pt x="574" y="0" on="1"/>
      </contour>
      <contour>
        <pt x="1310" y="-8" on="1"/>
        <pt x="1201" y="-8" on="0"/>
        <pt x="1092" y="4" on="1"/>
        <pt x="1092" y="573" on="1"/>
        <pt x="1155" y="579" on="0"/>
        <pt x="1258" y="585" on="0"/>
        <pt x="1306" y="585" on="1"/>
        <pt x="1452" y="585" on="0"/>
        <pt x="1584" y="506" on="0"/>
        <pt x="1584" y="418" on="1"/>
        <pt x="1584" y="324" on="0"/>
        <pt x="1481" y="299" on="1"/>
        <pt x="1481" y="296" on="1"/>
        <pt x="1541" y="285" on="0"/>
        <pt x="1603" y="217" on="0"/>
        <pt x="1603" y="161" on="1"/>
        <pt x="1603" y="-8" on="0"/>
      </contour>
      <contour>
        <pt x="1327" y="114" on="1"/>
        <pt x="1437" y="114" on="0"/>
        <pt x="1437" y="174" on="1"/>
        <pt x="1437" y="209" on="0"/>
        <pt x="1386" y="236" on="0"/>
        <pt x="1326" y="236" on="1"/>
        <pt x="1251" y="236" on="1"/>
        <pt x="1251" y="116" on="1"/>
        <pt x="1261" y="114" on="0"/>
        <pt x="1292" y="114" on="0"/>
      </contour>
      <contour>
        <pt x="1319" y="344" on="1"/>
        <pt x="1373" y="344" on="0"/>
        <pt x="1416" y="371" on="0"/>
        <pt x="1416" y="406" on="1"/>
        <pt x="1416" y="437" on="0"/>
        <pt x="1372" y="463" on="0"/>
        <pt x="1323" y="463" on="1"/>
        <pt x="1305" y="463" on="0"/>
        <pt x="1269" y="462" on="0"/>
        <pt x="1251" y="460" on="1"/>
        <pt x="1251" y="344" on="1"/>
      </contour>
    </TTGlyph>
    <TTGlyph name="F_F_H.sc" xMin="56" yMin="0" xMax="1654" yMax="577">
      <contour>
        <pt x="56" y="577" on="1"/>
        <pt x="500" y="577" on="1"/>
        <pt x="500" y="440" on="1"/>
        <pt x="227" y="440" on="1"/>
        <pt x="227" y="335" on="1"/>
        <pt x="471" y="335" on="1"/>
        <pt x="471" y="203" on="1"/>
        <pt x="227" y="203" on="1"/>
        <pt x="227" y="0" on="1"/>
        <pt x="56" y="0" on="1"/>
      </contour>
      <contour>
        <pt x="573" y="577" on="1"/>
        <pt x="1017" y="577" on="1"/>
        <pt x="1017" y="440" on="1"/>
        <pt x="744" y="440" on="1"/>
        <pt x="744" y="335" on="1"/>
        <pt x="988" y="335" on="1"/>
        <pt x="988" y="203" on="1"/>
        <pt x="744" y="203" on="1"/>
        <pt x="744" y="0" on="1"/>
        <pt x="573" y="0" on="1"/>
      </contour>
      <contour>
        <pt x="1091" y="577" on="1"/>
        <pt x="1262" y="577" on="1"/>
        <pt x="1262" y="364" on="1"/>
        <pt x="1483" y="364" on="1"/>
        <pt x="1483" y="577" on="1"/>
        <pt x="1654" y="577" on="1"/>
        <pt x="1654" y="0" on="1"/>
        <pt x="1483" y="0" on="1"/>
        <pt x="1483" y="227" on="1"/>
        <pt x="1262" y="227" on="1"/>
        <pt x="1262" y="0" on="1"/>
        <pt x="1091" y="0" on="1"/>
      </contour>
    </TTGlyph>
    <TTGlyph name="F_F_I.sc" xMin="56" yMin="0" xMax="1262" yMax="577">
      <contour>
        <pt x="56" y="577" on="1"/>
        <pt x="500" y="577" on="1"/>
        <pt x="500" y="440" on="1"/>
        <pt x="227" y="440" on="1"/>
        <pt x="227" y="335" on="1"/>
        <pt x="471" y="335" on="1"/>
        <pt x="471" y="203" on="1"/>
        <pt x="227" y="203" on="1"/>
        <pt x="227" y="0" on="1"/>
        <pt x="56" y="0" on="1"/>
      </contour>
      <contour>
        <pt x="573" y="577" on="1"/>
        <pt x="1017" y="577" on="1"/>
        <pt x="1017" y="440" on="1"/>
        <pt x="744" y="440" on="1"/>
        <pt x="744" y="335" on="1"/>
        <pt x="988" y="335" on="1"/>
        <pt x="988" y="203" on="1"/>
        <pt x="744" y="203" on="1"/>
        <pt x="744" y="0" on="1"/>
        <pt x="573" y="0" on="1"/>
      </contour>
      <contour>
        <pt x="1091" y="577" on="1"/>
        <pt x="1262" y="577" on="1"/>
        <pt x="1262" y="0" on="1"/>
        <pt x="1091" y="0" on="1"/>
      </contour>
    </TTGlyph>
    <TTGlyph name="F_F_J.sc" xMin="57" yMin="-170" xMax="1273" yMax="577">
      <contour>
        <pt x="57" y="577" on="1"/>
        <pt x="501" y="577" on="1"/>
        <pt x="501" y="440" on="1"/>
        <pt x="228" y="440" on="1"/>
        <pt x="228" y="335" on="1"/>
        <pt x="472" y="335" on="1"/>
        <pt x="472" y="203" on="1"/>
        <pt x="228" y="203" on="1"/>
        <pt x="228" y="0" on="1"/>
        <pt x="57" y="0" on="1"/>
      </contour>
      <contour>
        <pt x="574" y="577" on="1"/>
        <pt x="1018" y="577" on="1"/>
        <pt x="1018" y="440" on="1"/>
        <pt x="745" y="440" on="1"/>
        <pt x="745" y="335" on="1"/>
        <pt x="989" y="335" on="1"/>
        <pt x="989" y="203" on="1"/>
        <pt x="745" y="203" on="1"/>
        <pt x="745" y="0" on="1"/>
        <pt x="574" y="0" on="1"/>
      </contour>
      <contour>
        <pt x="1034" y="-124" on="1"/>
        <pt x="1053" y="-85" on="0"/>
        <pt x="1079" y="-19" on="0"/>
        <pt x="1095" y="46" on="0"/>
        <pt x="1101" y="115" on="0"/>
        <pt x="1101" y="156" on="1"/>
        <pt x="1101" y="577" on="1"/>
        <pt x="1273" y="577" on="1"/>
        <pt x="1273" y="142" on="1"/>
        <pt x="1273" y="100" on="0"/>
        <pt x="1259" y="26" on="0"/>
        <pt x="1228" y="-47" on="0"/>
        <pt x="1178" y="-125" on="0"/>
        <pt x="1142" y="-170" on="1"/>
      </contour>
    </TTGlyph>
    <TTGlyph name="F_F_K.sc" xMin="56" yMin="0" xMax="1658" yMax="577">
      <contour>
        <pt x="56" y="577" on="1"/>
        <pt x="500" y="577" on="1"/>
        <pt x="500" y="440" on="1"/>
        <pt x="227" y="440" on="1"/>
        <pt x="227" y="335" on="1"/>
        <pt x="471" y="335" on="1"/>
        <pt x="471" y="203" on="1"/>
        <pt x="227" y="203" on="1"/>
        <pt x="227" y="0" on="1"/>
        <pt x="56" y="0" on="1"/>
      </contour>
      <contour>
        <pt x="573" y="577" on="1"/>
        <pt x="1017" y="577" on="1"/>
        <pt x="1017" y="440" on="1"/>
        <pt x="744" y="440" on="1"/>
        <pt x="744" y="335" on="1"/>
        <pt x="988" y="335" on="1"/>
        <pt x="988" y="203" on="1"/>
        <pt x="744" y="203" on="1"/>
        <pt x="744" y="0" on="1"/>
        <pt x="573" y="0" on="1"/>
      </contour>
      <contour>
        <pt x="1091" y="577" on="1"/>
        <pt x="1262" y="577" on="1"/>
        <pt x="1262" y="361" on="1"/>
        <pt x="1333" y="361" on="1"/>
        <pt x="1452" y="577" on="1"/>
        <pt x="1640" y="577" on="1"/>
        <pt x="1492" y="322" on="1"/>
        <pt x="1434" y="300" on="1"/>
        <pt x="1434" y="294" on="1"/>
        <pt x="1494" y="272" on="1"/>
        <pt x="1658" y="0" on="1"/>
        <pt x="1468" y="0" on="1"/>
        <pt x="1333" y="225" on="1"/>
        <pt x="1262" y="225" on="1"/>
        <pt x="1262" y="0" on="1"/>
        <pt x="1091" y="0" on="1"/>
      </contour>
    </TTGlyph>
    <TTGlyph name="F_F_L.sc" xMin="56" yMin="0" xMax="1495" yMax="577">
      <contour>
        <pt x="1091" y="577" on="1"/>
        <pt x="1262" y="577" on="1"/>
        <pt x="1262" y="137" on="1"/>
        <pt x="1495" y="137" on="1"/>
        <pt x="1495" y="0" on="1"/>
        <pt x="1091" y="0" on="1"/>
      </contour>
      <contour>
        <pt x="56" y="577" on="1"/>
        <pt x="500" y="577" on="1"/>
        <pt x="500" y="440" on="1"/>
        <pt x="227" y="440" on="1"/>
        <pt x="227" y="335" on="1"/>
        <pt x="471" y="335" on="1"/>
        <pt x="471" y="203" on="1"/>
        <pt x="227" y="203" on="1"/>
        <pt x="227" y="0" on="1"/>
        <pt x="56" y="0" on="1"/>
      </contour>
      <contour>
        <pt x="573" y="577" on="1"/>
        <pt x="1017" y="577" on="1"/>
        <pt x="1017" y="440" on="1"/>
        <pt x="744" y="440" on="1"/>
        <pt x="744" y="335" on="1"/>
        <pt x="988" y="335" on="1"/>
        <pt x="988" y="203" on="1"/>
        <pt x="744" y="203" on="1"/>
        <pt x="744" y="0" on="1"/>
        <pt x="573" y="0" on="1"/>
      </contour>
    </TTGlyph>
    <TTGlyph name="F_F_T.sc" xMin="56" yMin="0" xMax="1526" yMax="577">
      <contour>
        <pt x="1192" y="438" on="1"/>
        <pt x="1029" y="438" on="1"/>
        <pt x="1029" y="577" on="1"/>
        <pt x="1526" y="577" on="1"/>
        <pt x="1526" y="438" on="1"/>
        <pt x="1363" y="438" on="1"/>
        <pt x="1363" y="0" on="1"/>
        <pt x="1192" y="0" on="1"/>
      </contour>
      <contour>
        <pt x="56" y="577" on="1"/>
        <pt x="500" y="577" on="1"/>
        <pt x="500" y="440" on="1"/>
        <pt x="227" y="440" on="1"/>
        <pt x="227" y="335" on="1"/>
        <pt x="471" y="335" on="1"/>
        <pt x="471" y="203" on="1"/>
        <pt x="227" y="203" on="1"/>
        <pt x="227" y="0" on="1"/>
        <pt x="56" y="0" on="1"/>
      </contour>
      <contour>
        <pt x="573" y="577" on="1"/>
        <pt x="1017" y="577" on="1"/>
        <pt x="1017" y="440" on="1"/>
        <pt x="744" y="440" on="1"/>
        <pt x="744" y="335" on="1"/>
        <pt x="988" y="335" on="1"/>
        <pt x="988" y="203" on="1"/>
        <pt x="744" y="203" on="1"/>
        <pt x="744" y="0" on="1"/>
        <pt x="573" y="0" on="1"/>
      </contour>
    </TTGlyph>
    <TTGlyph name="F_H.sc" xMin="56" yMin="0" xMax="1136" yMax="577">
      <contour>
        <pt x="56" y="577" on="1"/>
        <pt x="500" y="577" on="1"/>
        <pt x="500" y="440" on="1"/>
        <pt x="227" y="440" on="1"/>
        <pt x="227" y="335" on="1"/>
        <pt x="471" y="335" on="1"/>
        <pt x="471" y="203" on="1"/>
        <pt x="227" y="203" on="1"/>
        <pt x="227" y="0" on="1"/>
        <pt x="56" y="0" on="1"/>
      </contour>
      <contour>
        <pt x="573" y="577" on="1"/>
        <pt x="744" y="577" on="1"/>
        <pt x="744" y="364" on="1"/>
        <pt x="965" y="364" on="1"/>
        <pt x="965" y="577" on="1"/>
        <pt x="1136" y="577" on="1"/>
        <pt x="1136" y="0" on="1"/>
        <pt x="965" y="0" on="1"/>
        <pt x="965" y="227" on="1"/>
        <pt x="744" y="227" on="1"/>
        <pt x="744" y="0" on="1"/>
        <pt x="573" y="0" on="1"/>
      </contour>
    </TTGlyph>
    <TTGlyph name="F_I.sc" xMin="56" yMin="0" xMax="744" yMax="577">
      <contour>
        <pt x="56" y="577" on="1"/>
        <pt x="500" y="577" on="1"/>
        <pt x="500" y="440" on="1"/>
        <pt x="227" y="440" on="1"/>
        <pt x="227" y="335" on="1"/>
        <pt x="471" y="335" on="1"/>
        <pt x="471" y="203" on="1"/>
        <pt x="227" y="203" on="1"/>
        <pt x="227" y="0" on="1"/>
        <pt x="56" y="0" on="1"/>
      </contour>
      <contour>
        <pt x="573" y="577" on="1"/>
        <pt x="744" y="577" on="1"/>
        <pt x="744" y="0" on="1"/>
        <pt x="573" y="0" on="1"/>
      </contour>
    </TTGlyph>
    <TTGlyph name="F_J.sc" xMin="57" yMin="-170" xMax="755" yMax="577">
      <contour>
        <pt x="57" y="577" on="1"/>
        <pt x="501" y="577" on="1"/>
        <pt x="501" y="440" on="1"/>
        <pt x="228" y="440" on="1"/>
        <pt x="228" y="335" on="1"/>
        <pt x="472" y="335" on="1"/>
        <pt x="472" y="203" on="1"/>
        <pt x="228" y="203" on="1"/>
        <pt x="228" y="0" on="1"/>
        <pt x="57" y="0" on="1"/>
      </contour>
      <contour>
        <pt x="516" y="-124" on="1"/>
        <pt x="535" y="-85" on="0"/>
        <pt x="561" y="-19" on="0"/>
        <pt x="577" y="46" on="0"/>
        <pt x="583" y="115" on="0"/>
        <pt x="583" y="156" on="1"/>
        <pt x="583" y="577" on="1"/>
        <pt x="755" y="577" on="1"/>
        <pt x="755" y="142" on="1"/>
        <pt x="755" y="100" on="0"/>
        <pt x="741" y="26" on="0"/>
        <pt x="710" y="-47" on="0"/>
        <pt x="660" y="-125" on="0"/>
        <pt x="624" y="-170" on="1"/>
      </contour>
    </TTGlyph>
    <TTGlyph name="F_K.sc" xMin="56" yMin="0" xMax="1140" yMax="577">
      <contour>
        <pt x="56" y="577" on="1"/>
        <pt x="500" y="577" on="1"/>
        <pt x="500" y="440" on="1"/>
        <pt x="227" y="440" on="1"/>
        <pt x="227" y="335" on="1"/>
        <pt x="471" y="335" on="1"/>
        <pt x="471" y="203" on="1"/>
        <pt x="227" y="203" on="1"/>
        <pt x="227" y="0" on="1"/>
        <pt x="56" y="0" on="1"/>
      </contour>
      <contour>
        <pt x="573" y="577" on="1"/>
        <pt x="744" y="577" on="1"/>
        <pt x="744" y="361" on="1"/>
        <pt x="815" y="361" on="1"/>
        <pt x="934" y="577" on="1"/>
        <pt x="1122" y="577" on="1"/>
        <pt x="974" y="322" on="1"/>
        <pt x="916" y="300" on="1"/>
        <pt x="916" y="294" on="1"/>
        <pt x="976" y="272" on="1"/>
        <pt x="1140" y="0" on="1"/>
        <pt x="950" y="0" on="1"/>
        <pt x="815" y="225" on="1"/>
        <pt x="744" y="225" on="1"/>
        <pt x="744" y="0" on="1"/>
        <pt x="573" y="0" on="1"/>
      </contour>
    </TTGlyph>
    <TTGlyph name="F_L.sc" xMin="56" yMin="0" xMax="977" yMax="577">
      <contour>
        <pt x="573" y="577" on="1"/>
        <pt x="744" y="577" on="1"/>
        <pt x="744" y="137" on="1"/>
        <pt x="977" y="137" on="1"/>
        <pt x="977" y="0" on="1"/>
        <pt x="573" y="0" on="1"/>
      </contour>
      <contour>
        <pt x="56" y="577" on="1"/>
        <pt x="500" y="577" on="1"/>
        <pt x="500" y="440" on="1"/>
        <pt x="227" y="440" on="1"/>
        <pt x="227" y="335" on="1"/>
        <pt x="471" y="335" on="1"/>
        <pt x="471" y="203" on="1"/>
        <pt x="227" y="203" on="1"/>
        <pt x="227" y="0" on="1"/>
        <pt x="56" y="0" on="1"/>
      </contour>
    </TTGlyph>
    <TTGlyph name="F_T.sc" xMin="56" yMin="0" xMax="1009" yMax="577">
      <contour>
        <pt x="675" y="438" on="1"/>
        <pt x="512" y="438" on="1"/>
        <pt x="512" y="577" on="1"/>
        <pt x="1009" y="577" on="1"/>
        <pt x="1009" y="438" on="1"/>
        <pt x="846" y="438" on="1"/>
        <pt x="846" y="0" on="1"/>
        <pt x="675" y="0" on="1"/>
      </contour>
      <contour>
        <pt x="56" y="577" on="1"/>
        <pt x="500" y="577" on="1"/>
        <pt x="500" y="440" on="1"/>
        <pt x="227" y="440" on="1"/>
        <pt x="227" y="335" on="1"/>
        <pt x="471" y="335" on="1"/>
        <pt x="471" y="203" on="1"/>
        <pt x="227" y="203" on="1"/>
        <pt x="227" y="0" on="1"/>
        <pt x="56" y="0" on="1"/>
      </contour>
    </TTGlyph>
    <TTGlyph name="G" xMin="30" yMin="-10" xMax="589" yMax="750">
      <contour>
        <pt x="361" y="-10" on="1"/>
        <pt x="193" y="-10" on="0"/>
        <pt x="30" y="177" on="0"/>
        <pt x="30" y="370" on="1"/>
        <pt x="30" y="750" on="0"/>
        <pt x="395" y="750" on="1"/>
        <pt x="438" y="750" on="0"/>
        <pt x="533" y="739" on="0"/>
        <pt x="578" y="728" on="1"/>
        <pt x="578" y="584" on="1"/>
        <pt x="524" y="594" on="0"/>
        <pt x="443" y="603" on="0"/>
        <pt x="412" y="603" on="1"/>
        <pt x="356" y="603" on="0"/>
        <pt x="281" y="580" on="0"/>
        <pt x="236" y="526" on="0"/>
        <pt x="217" y="436" on="0"/>
        <pt x="217" y="369" on="1"/>
        <pt x="217" y="301" on="0"/>
        <pt x="232" y="212" on="0"/>
        <pt x="270" y="160" on="0"/>
        <pt x="332" y="138" on="0"/>
        <pt x="380" y="138" on="1"/>
        <pt x="391" y="138" on="0"/>
        <pt x="414" y="139" on="0"/>
        <pt x="425" y="140" on="1"/>
        <pt x="425" y="376" on="1"/>
        <pt x="589" y="376" on="1"/>
        <pt x="589" y="14" on="1"/>
        <pt x="519" y="2" on="0"/>
        <pt x="407" y="-10" on="0"/>
      </contour>
    </TTGlyph>
    <TTGlyph name="G.sc" xMin="30" yMin="-9" xMax="542" yMax="586">
      <contour>
        <pt x="333" y="-9" on="1"/>
        <pt x="179" y="-8" on="0"/>
        <pt x="30" y="138" on="0"/>
        <pt x="30" y="289" on="1"/>
        <pt x="30" y="437" on="0"/>
        <pt x="195" y="586" on="0"/>
        <pt x="363" y="586" on="1"/>
        <pt x="403" y="586" on="0"/>
        <pt x="492" y="577" on="0"/>
        <pt x="533" y="567" on="1"/>
        <pt x="533" y="434" on="1"/>
        <pt x="482" y="441" on="0"/>
        <pt x="407" y="448" on="0"/>
        <pt x="379" y="448" on="1"/>
        <pt x="328" y="448" on="0"/>
        <pt x="261" y="433" on="0"/>
        <pt x="222" y="397" on="0"/>
        <pt x="206" y="335" on="0"/>
        <pt x="206" y="288" on="1"/>
        <pt x="206" y="240" on="0"/>
        <pt x="219" y="179" on="0"/>
        <pt x="251" y="143" on="0"/>
        <pt x="306" y="130" on="0"/>
        <pt x="349" y="130" on="1"/>
        <pt x="350" y="130" on="0"/>
        <pt x="361" y="130" on="0"/>
        <pt x="374" y="131" on="0"/>
        <pt x="386" y="132" on="0"/>
        <pt x="388" y="132" on="1"/>
        <pt x="388" y="293" on="1"/>
        <pt x="542" y="293" on="1"/>
        <pt x="542" y="13" on="1"/>
        <pt x="479" y="2" on="0"/>
        <pt x="375" y="-9" on="0"/>
      </contour>
    </TTGlyph>
    <TTGlyph name="Gacute" xMin="30" yMin="-10" xMax="589" yMax="982">
      <contour>
        <pt x="277" y="803" on="1"/>
        <pt x="342" y="982" on="1"/>
        <pt x="523" y="982" on="1"/>
        <pt x="404" y="794" on="1"/>
      </contour>
      <contour>
        <pt x="361" y="-10" on="1"/>
        <pt x="193" y="-10" on="0"/>
        <pt x="30" y="177" on="0"/>
        <pt x="30" y="370" on="1"/>
        <pt x="30" y="750" on="0"/>
        <pt x="395" y="750" on="1"/>
        <pt x="438" y="750" on="0"/>
        <pt x="533" y="739" on="0"/>
        <pt x="578" y="728" on="1"/>
        <pt x="578" y="584" on="1"/>
        <pt x="524" y="594" on="0"/>
        <pt x="443" y="603" on="0"/>
        <pt x="412" y="603" on="1"/>
        <pt x="356" y="603" on="0"/>
        <pt x="281" y="580" on="0"/>
        <pt x="236" y="526" on="0"/>
        <pt x="217" y="436" on="0"/>
        <pt x="217" y="369" on="1"/>
        <pt x="217" y="301" on="0"/>
        <pt x="232" y="212" on="0"/>
        <pt x="270" y="160" on="0"/>
        <pt x="332" y="138" on="0"/>
        <pt x="380" y="138" on="1"/>
        <pt x="391" y="138" on="0"/>
        <pt x="414" y="139" on="0"/>
        <pt x="425" y="140" on="1"/>
        <pt x="425" y="376" on="1"/>
        <pt x="589" y="376" on="1"/>
        <pt x="589" y="14" on="1"/>
        <pt x="519" y="2" on="0"/>
        <pt x="407" y="-10" on="0"/>
      </contour>
    </TTGlyph>
    <TTGlyph name="Gacute.sc" xMin="30" yMin="-9" xMax="542" yMax="780">
      <contour>
        <pt x="333" y="-9" on="1"/>
        <pt x="179" y="-8" on="0"/>
        <pt x="30" y="138" on="0"/>
        <pt x="30" y="289" on="1"/>
        <pt x="30" y="437" on="0"/>
        <pt x="195" y="586" on="0"/>
        <pt x="363" y="586" on="1"/>
        <pt x="403" y="586" on="0"/>
        <pt x="492" y="577" on="0"/>
        <pt x="533" y="567" on="1"/>
        <pt x="533" y="433" on="1"/>
        <pt x="432" y="448" on="0"/>
        <pt x="379" y="448" on="1"/>
        <pt x="328" y="448" on="0"/>
        <pt x="262" y="434" on="0"/>
        <pt x="222" y="398" on="0"/>
        <pt x="206" y="336" on="0"/>
        <pt x="206" y="288" on="1"/>
        <pt x="206" y="240" on="0"/>
        <pt x="219" y="178" on="0"/>
        <pt x="251" y="143" on="0"/>
        <pt x="307" y="130" on="0"/>
        <pt x="349" y="130" on="1"/>
        <pt x="350" y="130" on="0"/>
        <pt x="361" y="130" on="0"/>
        <pt x="374" y="131" on="0"/>
        <pt x="386" y="132" on="0"/>
        <pt x="388" y="132" on="1"/>
        <pt x="388" y="293" on="1"/>
        <pt x="542" y="293" on="1"/>
        <pt x="542" y="13" on="1"/>
        <pt x="479" y="2" on="0"/>
        <pt x="375" y="-9" on="0"/>
      </contour>
      <contour>
        <pt x="252" y="629" on="1"/>
        <pt x="310" y="780" on="1"/>
        <pt x="480" y="780" on="1"/>
        <pt x="371" y="621" on="1"/>
      </contour>
    </TTGlyph>
    <TTGlyph name="Gbreve" xMin="30" yMin="-10" xMax="589" yMax="978">
      <contour>
        <pt x="351" y="798" on="1"/>
        <pt x="249" y="798" on="0"/>
        <pt x="154" y="896" on="0"/>
        <pt x="154" y="978" on="1"/>
        <pt x="272" y="978" on="1"/>
        <pt x="272" y="926" on="0"/>
        <pt x="305" y="881" on="0"/>
        <pt x="351" y="881" on="1"/>
        <pt x="396" y="881" on="0"/>
        <pt x="428" y="926" on="0"/>
        <pt x="428" y="978" on="1"/>
        <pt x="548" y="978" on="1"/>
        <pt x="548" y="896" on="0"/>
        <pt x="451" y="798" on="0"/>
      </contour>
      <contour>
        <pt x="361" y="-10" on="1"/>
        <pt x="193" y="-10" on="0"/>
        <pt x="30" y="177" on="0"/>
        <pt x="30" y="370" on="1"/>
        <pt x="30" y="750" on="0"/>
        <pt x="395" y="750" on="1"/>
        <pt x="438" y="750" on="0"/>
        <pt x="533" y="739" on="0"/>
        <pt x="578" y="728" on="1"/>
        <pt x="578" y="584" on="1"/>
        <pt x="524" y="594" on="0"/>
        <pt x="443" y="603" on="0"/>
        <pt x="412" y="603" on="1"/>
        <pt x="356" y="603" on="0"/>
        <pt x="281" y="580" on="0"/>
        <pt x="236" y="526" on="0"/>
        <pt x="217" y="436" on="0"/>
        <pt x="217" y="369" on="1"/>
        <pt x="217" y="301" on="0"/>
        <pt x="232" y="212" on="0"/>
        <pt x="270" y="160" on="0"/>
        <pt x="332" y="138" on="0"/>
        <pt x="380" y="138" on="1"/>
        <pt x="391" y="138" on="0"/>
        <pt x="414" y="139" on="0"/>
        <pt x="425" y="140" on="1"/>
        <pt x="425" y="376" on="1"/>
        <pt x="589" y="376" on="1"/>
        <pt x="589" y="14" on="1"/>
        <pt x="519" y="2" on="0"/>
        <pt x="407" y="-10" on="0"/>
      </contour>
    </TTGlyph>
    <TTGlyph name="Gbreve.sc" xMin="30" yMin="-9" xMax="542" yMax="771">
      <contour>
        <pt x="333" y="-9" on="1"/>
        <pt x="179" y="-8" on="0"/>
        <pt x="30" y="138" on="0"/>
        <pt x="30" y="289" on="1"/>
        <pt x="30" y="437" on="0"/>
        <pt x="195" y="586" on="0"/>
        <pt x="363" y="586" on="1"/>
        <pt x="403" y="586" on="0"/>
        <pt x="492" y="577" on="0"/>
        <pt x="533" y="567" on="1"/>
        <pt x="533" y="433" on="1"/>
        <pt x="432" y="448" on="0"/>
        <pt x="379" y="448" on="1"/>
        <pt x="328" y="448" on="0"/>
        <pt x="262" y="434" on="0"/>
        <pt x="222" y="398" on="0"/>
        <pt x="206" y="336" on="0"/>
        <pt x="206" y="288" on="1"/>
        <pt x="206" y="240" on="0"/>
        <pt x="219" y="178" on="0"/>
        <pt x="251" y="143" on="0"/>
        <pt x="307" y="130" on="0"/>
        <pt x="349" y="130" on="1"/>
        <pt x="350" y="130" on="0"/>
        <pt x="361" y="130" on="0"/>
        <pt x="374" y="131" on="0"/>
        <pt x="386" y="132" on="0"/>
        <pt x="388" y="132" on="1"/>
        <pt x="388" y="293" on="1"/>
        <pt x="542" y="293" on="1"/>
        <pt x="542" y="13" on="1"/>
        <pt x="479" y="2" on="0"/>
        <pt x="375" y="-9" on="0"/>
      </contour>
      <contour>
        <pt x="322" y="620" on="1"/>
        <pt x="227" y="620" on="0"/>
        <pt x="140" y="703" on="0"/>
        <pt x="140" y="771" on="1"/>
        <pt x="252" y="771" on="1"/>
        <pt x="252" y="729" on="0"/>
        <pt x="281" y="695" on="0"/>
        <pt x="322" y="695" on="1"/>
        <pt x="363" y="695" on="0"/>
        <pt x="392" y="729" on="0"/>
        <pt x="392" y="771" on="1"/>
        <pt x="505" y="771" on="1"/>
        <pt x="505" y="702" on="0"/>
        <pt x="417" y="620" on="0"/>
      </contour>
    </TTGlyph>
    <TTGlyph name="Gcircumflex" xMin="30" yMin="-10" xMax="589" yMax="984">
      <contour>
        <pt x="361" y="-10" on="1"/>
        <pt x="193" y="-10" on="0"/>
        <pt x="30" y="177" on="0"/>
        <pt x="30" y="370" on="1"/>
        <pt x="30" y="750" on="0"/>
        <pt x="395" y="750" on="1"/>
        <pt x="438" y="750" on="0"/>
        <pt x="533" y="739" on="0"/>
        <pt x="578" y="728" on="1"/>
        <pt x="578" y="584" on="1"/>
        <pt x="524" y="594" on="0"/>
        <pt x="443" y="603" on="0"/>
        <pt x="412" y="603" on="1"/>
        <pt x="356" y="603" on="0"/>
        <pt x="281" y="580" on="0"/>
        <pt x="236" y="526" on="0"/>
        <pt x="217" y="436" on="0"/>
        <pt x="217" y="369" on="1"/>
        <pt x="217" y="301" on="0"/>
        <pt x="232" y="212" on="0"/>
        <pt x="270" y="160" on="0"/>
        <pt x="332" y="138" on="0"/>
        <pt x="380" y="138" on="1"/>
        <pt x="391" y="138" on="0"/>
        <pt x="414" y="139" on="0"/>
        <pt x="425" y="140" on="1"/>
        <pt x="425" y="376" on="1"/>
        <pt x="589" y="376" on="1"/>
        <pt x="589" y="14" on="1"/>
        <pt x="519" y="2" on="0"/>
        <pt x="407" y="-10" on="0"/>
      </contour>
      <contour>
        <pt x="168" y="911" on="1"/>
        <pt x="347" y="984" on="1"/>
        <pt x="526" y="911" on="1"/>
        <pt x="526" y="793" on="1"/>
        <pt x="347" y="866" on="1"/>
        <pt x="168" y="793" on="1"/>
      </contour>
    </TTGlyph>
    <TTGlyph name="Gcircumflex.sc" xMin="30" yMin="-9" xMax="542" yMax="780">
      <contour>
        <pt x="333" y="-9" on="1"/>
        <pt x="179" y="-8" on="0"/>
        <pt x="30" y="138" on="0"/>
        <pt x="30" y="289" on="1"/>
        <pt x="30" y="437" on="0"/>
        <pt x="195" y="586" on="0"/>
        <pt x="363" y="586" on="1"/>
        <pt x="403" y="586" on="0"/>
        <pt x="492" y="577" on="0"/>
        <pt x="533" y="567" on="1"/>
        <pt x="533" y="433" on="1"/>
        <pt x="432" y="448" on="0"/>
        <pt x="379" y="448" on="1"/>
        <pt x="328" y="448" on="0"/>
        <pt x="262" y="434" on="0"/>
        <pt x="222" y="398" on="0"/>
        <pt x="206" y="336" on="0"/>
        <pt x="206" y="288" on="1"/>
        <pt x="206" y="240" on="0"/>
        <pt x="219" y="178" on="0"/>
        <pt x="251" y="143" on="0"/>
        <pt x="307" y="130" on="0"/>
        <pt x="349" y="130" on="1"/>
        <pt x="350" y="130" on="0"/>
        <pt x="361" y="130" on="0"/>
        <pt x="374" y="131" on="0"/>
        <pt x="386" y="132" on="0"/>
        <pt x="388" y="132" on="1"/>
        <pt x="388" y="293" on="1"/>
        <pt x="542" y="293" on="1"/>
        <pt x="542" y="13" on="1"/>
        <pt x="479" y="2" on="0"/>
        <pt x="375" y="-9" on="0"/>
      </contour>
      <contour>
        <pt x="152" y="722" on="1"/>
        <pt x="318" y="780" on="1"/>
        <pt x="483" y="722" on="1"/>
        <pt x="483" y="614" on="1"/>
        <pt x="318" y="672" on="1"/>
        <pt x="152" y="614" on="1"/>
      </contour>
    </TTGlyph>
    <TTGlyph name="Gcommaaccent" xMin="30" yMin="-220" xMax="589" yMax="750">
      <contour>
        <pt x="267" y="-70" on="1"/>
        <pt x="448" y="-70" on="1"/>
        <pt x="357" y="-220" on="1"/>
        <pt x="225" y="-220" on="1"/>
      </contour>
      <contour>
        <pt x="361" y="-10" on="1"/>
        <pt x="193" y="-10" on="0"/>
        <pt x="30" y="177" on="0"/>
        <pt x="30" y="370" on="1"/>
        <pt x="30" y="750" on="0"/>
        <pt x="395" y="750" on="1"/>
        <pt x="438" y="750" on="0"/>
        <pt x="533" y="739" on="0"/>
        <pt x="578" y="728" on="1"/>
        <pt x="578" y="584" on="1"/>
        <pt x="524" y="594" on="0"/>
        <pt x="443" y="603" on="0"/>
        <pt x="412" y="603" on="1"/>
        <pt x="356" y="603" on="0"/>
        <pt x="281" y="580" on="0"/>
        <pt x="236" y="526" on="0"/>
        <pt x="217" y="436" on="0"/>
        <pt x="217" y="369" on="1"/>
        <pt x="217" y="301" on="0"/>
        <pt x="232" y="212" on="0"/>
        <pt x="270" y="160" on="0"/>
        <pt x="332" y="138" on="0"/>
        <pt x="380" y="138" on="1"/>
        <pt x="391" y="138" on="0"/>
        <pt x="414" y="139" on="0"/>
        <pt x="425" y="140" on="1"/>
        <pt x="425" y="376" on="1"/>
        <pt x="589" y="376" on="1"/>
        <pt x="589" y="14" on="1"/>
        <pt x="519" y="2" on="0"/>
        <pt x="407" y="-10" on="0"/>
      </contour>
    </TTGlyph>
    <TTGlyph name="Gcommaaccent.sc" xMin="30" yMin="-172" xMax="542" yMax="586">
      <contour>
        <pt x="333" y="-9" on="1"/>
        <pt x="179" y="-8" on="0"/>
        <pt x="30" y="138" on="0"/>
        <pt x="30" y="289" on="1"/>
        <pt x="30" y="437" on="0"/>
        <pt x="195" y="586" on="0"/>
        <pt x="363" y="586" on="1"/>
        <pt x="403" y="586" on="0"/>
        <pt x="492" y="577" on="0"/>
        <pt x="533" y="567" on="1"/>
        <pt x="533" y="433" on="1"/>
        <pt x="432" y="448" on="0"/>
        <pt x="379" y="448" on="1"/>
        <pt x="328" y="448" on="0"/>
        <pt x="262" y="434" on="0"/>
        <pt x="222" y="398" on="0"/>
        <pt x="206" y="336" on="0"/>
        <pt x="206" y="288" on="1"/>
        <pt x="206" y="240" on="0"/>
        <pt x="219" y="178" on="0"/>
        <pt x="251" y="143" on="0"/>
        <pt x="307" y="130" on="0"/>
        <pt x="349" y="130" on="1"/>
        <pt x="350" y="130" on="0"/>
        <pt x="361" y="130" on="0"/>
        <pt x="374" y="131" on="0"/>
        <pt x="386" y="132" on="0"/>
        <pt x="388" y="132" on="1"/>
        <pt x="388" y="293" on="1"/>
        <pt x="542" y="293" on="1"/>
        <pt x="542" y="13" on="1"/>
        <pt x="479" y="2" on="0"/>
        <pt x="375" y="-9" on="0"/>
      </contour>
      <contour>
        <pt x="241" y="-55" on="1"/>
        <pt x="412" y="-55" on="1"/>
        <pt x="329" y="-172" on="1"/>
        <pt x="205" y="-172" on="1"/>
      </contour>
    </TTGlyph>
    <TTGlyph name="Gdotaccent" xMin="30" yMin="-10" xMax="589" yMax="986">
      <contour>
        <pt x="352" y="798" on="1"/>
        <pt x="301" y="798" on="0"/>
        <pt x="256" y="842" on="0"/>
        <pt x="256" y="892" on="1"/>
        <pt x="256" y="942" on="0"/>
        <pt x="301" y="986" on="0"/>
        <pt x="352" y="986" on="1"/>
        <pt x="403" y="986" on="0"/>
        <pt x="449" y="942" on="0"/>
        <pt x="449" y="892" on="1"/>
        <pt x="449" y="843" on="0"/>
        <pt x="403" y="798" on="0"/>
      </contour>
      <contour>
        <pt x="361" y="-10" on="1"/>
        <pt x="193" y="-10" on="0"/>
        <pt x="30" y="177" on="0"/>
        <pt x="30" y="370" on="1"/>
        <pt x="30" y="750" on="0"/>
        <pt x="395" y="750" on="1"/>
        <pt x="438" y="750" on="0"/>
        <pt x="533" y="739" on="0"/>
        <pt x="578" y="728" on="1"/>
        <pt x="578" y="584" on="1"/>
        <pt x="524" y="594" on="0"/>
        <pt x="443" y="603" on="0"/>
        <pt x="412" y="603" on="1"/>
        <pt x="356" y="603" on="0"/>
        <pt x="281" y="580" on="0"/>
        <pt x="236" y="526" on="0"/>
        <pt x="217" y="436" on="0"/>
        <pt x="217" y="369" on="1"/>
        <pt x="217" y="301" on="0"/>
        <pt x="232" y="212" on="0"/>
        <pt x="270" y="160" on="0"/>
        <pt x="332" y="138" on="0"/>
        <pt x="380" y="138" on="1"/>
        <pt x="391" y="138" on="0"/>
        <pt x="414" y="139" on="0"/>
        <pt x="425" y="140" on="1"/>
        <pt x="425" y="376" on="1"/>
        <pt x="589" y="376" on="1"/>
        <pt x="589" y="14" on="1"/>
        <pt x="519" y="2" on="0"/>
        <pt x="407" y="-10" on="0"/>
      </contour>
    </TTGlyph>
    <TTGlyph name="Gdotaccent.sc" xMin="30" yMin="-9" xMax="542" yMax="793">
      <contour>
        <pt x="333" y="-9" on="1"/>
        <pt x="179" y="-8" on="0"/>
        <pt x="30" y="138" on="0"/>
        <pt x="30" y="289" on="1"/>
        <pt x="30" y="437" on="0"/>
        <pt x="195" y="586" on="0"/>
        <pt x="363" y="586" on="1"/>
        <pt x="403" y="586" on="0"/>
        <pt x="492" y="577" on="0"/>
        <pt x="533" y="567" on="1"/>
        <pt x="533" y="433" on="1"/>
        <pt x="432" y="448" on="0"/>
        <pt x="379" y="448" on="1"/>
        <pt x="328" y="448" on="0"/>
        <pt x="262" y="434" on="0"/>
        <pt x="222" y="398" on="0"/>
        <pt x="206" y="336" on="0"/>
        <pt x="206" y="288" on="1"/>
        <pt x="206" y="240" on="0"/>
        <pt x="219" y="178" on="0"/>
        <pt x="251" y="143" on="0"/>
        <pt x="307" y="130" on="0"/>
        <pt x="349" y="130" on="1"/>
        <pt x="350" y="130" on="0"/>
        <pt x="361" y="130" on="0"/>
        <pt x="374" y="131" on="0"/>
        <pt x="386" y="132" on="0"/>
        <pt x="388" y="132" on="1"/>
        <pt x="388" y="293" on="1"/>
        <pt x="542" y="293" on="1"/>
        <pt x="542" y="13" on="1"/>
        <pt x="479" y="2" on="0"/>
        <pt x="375" y="-9" on="0"/>
      </contour>
      <contour>
        <pt x="323" y="621" on="1"/>
        <pt x="275" y="621" on="0"/>
        <pt x="233" y="662" on="0"/>
        <pt x="233" y="708" on="1"/>
        <pt x="233" y="753" on="0"/>
        <pt x="275" y="793" on="0"/>
        <pt x="323" y="793" on="1"/>
        <pt x="371" y="793" on="0"/>
        <pt x="414" y="753" on="0"/>
        <pt x="414" y="708" on="1"/>
        <pt x="414" y="662" on="0"/>
        <pt x="371" y="621" on="0"/>
      </contour>
    </TTGlyph>
    <TTGlyph name="H" xMin="58" yMin="0" xMax="670" yMax="740">
      <contour>
        <pt x="58" y="740" on="1"/>
        <pt x="240" y="740" on="1"/>
        <pt x="240" y="452" on="1"/>
        <pt x="489" y="452" on="1"/>
        <pt x="489" y="740" on="1"/>
        <pt x="670" y="740" on="1"/>
        <pt x="670" y="0" on="1"/>
        <pt x="489" y="0" on="1"/>
        <pt x="489" y="305" on="1"/>
        <pt x="240" y="305" on="1"/>
        <pt x="240" y="0" on="1"/>
        <pt x="58" y="0" on="1"/>
      </contour>
    </TTGlyph>
    <TTGlyph name="H.sc" xMin="56" yMin="0" xMax="619" yMax="577">
      <contour>
        <pt x="56" y="577" on="1"/>
        <pt x="227" y="577" on="1"/>
        <pt x="227" y="364" on="1"/>
        <pt x="448" y="364" on="1"/>
        <pt x="448" y="577" on="1"/>
        <pt x="619" y="577" on="1"/>
        <pt x="619" y="0" on="1"/>
        <pt x="448" y="0" on="1"/>
        <pt x="448" y="227" on="1"/>
        <pt x="227" y="227" on="1"/>
        <pt x="227" y="0" on="1"/>
        <pt x="56" y="0" on="1"/>
      </contour>
    </TTGlyph>
    <TTGlyph name="Hbar" xMin="0" yMin="0" xMax="758" yMax="740">
      <contour>
        <pt x="0" y="620" on="1"/>
        <pt x="67" y="620" on="1"/>
        <pt x="67" y="740" on="1"/>
        <pt x="249" y="740" on="1"/>
        <pt x="249" y="620" on="1"/>
        <pt x="498" y="620" on="1"/>
        <pt x="498" y="740" on="1"/>
        <pt x="679" y="740" on="1"/>
        <pt x="679" y="620" on="1"/>
        <pt x="758" y="620" on="1"/>
        <pt x="758" y="538" on="1"/>
        <pt x="679" y="538" on="1"/>
        <pt x="679" y="0" on="1"/>
        <pt x="498" y="0" on="1"/>
        <pt x="498" y="305" on="1"/>
        <pt x="249" y="305" on="1"/>
        <pt x="249" y="0" on="1"/>
        <pt x="67" y="0" on="1"/>
        <pt x="67" y="538" on="1"/>
        <pt x="0" y="538" on="1"/>
      </contour>
      <contour>
        <pt x="498" y="452" on="1"/>
        <pt x="498" y="538" on="1"/>
        <pt x="249" y="538" on="1"/>
        <pt x="249" y="452" on="1"/>
      </contour>
    </TTGlyph>
    <TTGlyph name="Hbar.sc" xMin="7" yMin="0" xMax="697" yMax="577">
      <contour>
        <pt x="7" y="493" on="1"/>
        <pt x="66" y="493" on="1"/>
        <pt x="66" y="577" on="1"/>
        <pt x="237" y="577" on="1"/>
        <pt x="237" y="493" on="1"/>
        <pt x="458" y="493" on="1"/>
        <pt x="458" y="577" on="1"/>
        <pt x="629" y="577" on="1"/>
        <pt x="629" y="493" on="1"/>
        <pt x="697" y="493" on="1"/>
        <pt x="697" y="417" on="1"/>
        <pt x="629" y="417" on="1"/>
        <pt x="629" y="0" on="1"/>
        <pt x="458" y="0" on="1"/>
        <pt x="458" y="223" on="1"/>
        <pt x="237" y="223" on="1"/>
        <pt x="237" y="0" on="1"/>
        <pt x="66" y="0" on="1"/>
        <pt x="66" y="417" on="1"/>
        <pt x="7" y="417" on="1"/>
      </contour>
      <contour>
        <pt x="458" y="360" on="1"/>
        <pt x="458" y="417" on="1"/>
        <pt x="237" y="417" on="1"/>
        <pt x="237" y="360" on="1"/>
      </contour>
    </TTGlyph>
    <TTGlyph name="Hcircumflex" xMin="58" yMin="0" xMax="670" yMax="984">
      <contour>
        <pt x="58" y="740" on="1"/>
        <pt x="240" y="740" on="1"/>
        <pt x="240" y="452" on="1"/>
        <pt x="489" y="452" on="1"/>
        <pt x="489" y="740" on="1"/>
        <pt x="670" y="740" on="1"/>
        <pt x="670" y="0" on="1"/>
        <pt x="489" y="0" on="1"/>
        <pt x="489" y="305" on="1"/>
        <pt x="240" y="305" on="1"/>
        <pt x="240" y="0" on="1"/>
        <pt x="58" y="0" on="1"/>
      </contour>
      <contour>
        <pt x="185" y="911" on="1"/>
        <pt x="364" y="984" on="1"/>
        <pt x="543" y="911" on="1"/>
        <pt x="543" y="793" on="1"/>
        <pt x="364" y="866" on="1"/>
        <pt x="185" y="793" on="1"/>
      </contour>
    </TTGlyph>
    <TTGlyph name="Hcircumflex.sc" xMin="56" yMin="0" xMax="619" yMax="780">
      <contour>
        <pt x="56" y="577" on="1"/>
        <pt x="227" y="577" on="1"/>
        <pt x="227" y="364" on="1"/>
        <pt x="448" y="364" on="1"/>
        <pt x="448" y="577" on="1"/>
        <pt x="619" y="577" on="1"/>
        <pt x="619" y="0" on="1"/>
        <pt x="448" y="0" on="1"/>
        <pt x="448" y="227" on="1"/>
        <pt x="227" y="227" on="1"/>
        <pt x="227" y="0" on="1"/>
        <pt x="56" y="0" on="1"/>
      </contour>
      <contour>
        <pt x="171" y="722" on="1"/>
        <pt x="337" y="780" on="1"/>
        <pt x="503" y="722" on="1"/>
        <pt x="503" y="614" on="1"/>
        <pt x="337" y="672" on="1"/>
        <pt x="171" y="614" on="1"/>
      </contour>
    </TTGlyph>
    <TTGlyph name="Hdotbelow" xMin="58" yMin="-212" xMax="670" yMax="740">
      <contour>
        <pt x="58" y="740" on="1"/>
        <pt x="240" y="740" on="1"/>
        <pt x="240" y="452" on="1"/>
        <pt x="489" y="452" on="1"/>
        <pt x="489" y="740" on="1"/>
        <pt x="670" y="740" on="1"/>
        <pt x="670" y="0" on="1"/>
        <pt x="489" y="0" on="1"/>
        <pt x="489" y="305" on="1"/>
        <pt x="240" y="305" on="1"/>
        <pt x="240" y="0" on="1"/>
        <pt x="58" y="0" on="1"/>
      </contour>
      <contour>
        <pt x="364" y="-212" on="1"/>
        <pt x="323" y="-212" on="0"/>
        <pt x="289" y="-177" on="0"/>
        <pt x="289" y="-139" on="1"/>
        <pt x="289" y="-100" on="0"/>
        <pt x="323" y="-66" on="0"/>
        <pt x="364" y="-66" on="1"/>
        <pt x="405" y="-66" on="0"/>
        <pt x="440" y="-100" on="0"/>
        <pt x="440" y="-139" on="1"/>
        <pt x="440" y="-177" on="0"/>
        <pt x="405" y="-212" on="0"/>
      </contour>
    </TTGlyph>
    <TTGlyph name="Hdotbelow.sc" xMin="56" yMin="-175" xMax="619" yMax="577">
      <contour>
        <pt x="56" y="577" on="1"/>
        <pt x="227" y="577" on="1"/>
        <pt x="227" y="364" on="1"/>
        <pt x="448" y="364" on="1"/>
        <pt x="448" y="577" on="1"/>
        <pt x="619" y="577" on="1"/>
        <pt x="619" y="0" on="1"/>
        <pt x="448" y="0" on="1"/>
        <pt x="448" y="227" on="1"/>
        <pt x="227" y="227" on="1"/>
        <pt x="227" y="0" on="1"/>
        <pt x="56" y="0" on="1"/>
      </contour>
      <contour>
        <pt x="338" y="-175" on="1"/>
        <pt x="300" y="-175" on="0"/>
        <pt x="268" y="-144" on="0"/>
        <pt x="268" y="-110" on="1"/>
        <pt x="268" y="-75" on="0"/>
        <pt x="300" y="-45" on="0"/>
        <pt x="338" y="-45" on="1"/>
        <pt x="376" y="-45" on="0"/>
        <pt x="408" y="-76" on="0"/>
        <pt x="408" y="-110" on="1"/>
        <pt x="408" y="-144" on="0"/>
        <pt x="376" y="-175" on="0"/>
      </contour>
    </TTGlyph>
    <TTGlyph name="I" xMin="58" yMin="0" xMax="240" yMax="740">
      <contour>
        <pt x="58" y="740" on="1"/>
        <pt x="240" y="740" on="1"/>
        <pt x="240" y="0" on="1"/>
        <pt x="58" y="0" on="1"/>
      </contour>
    </TTGlyph>
    <TTGlyph name="I.sc" xMin="56" yMin="0" xMax="227" yMax="577">
      <contour>
        <pt x="56" y="577" on="1"/>
        <pt x="227" y="577" on="1"/>
        <pt x="227" y="0" on="1"/>
        <pt x="56" y="0" on="1"/>
      </contour>
    </TTGlyph>
    <TTGlyph name="IJ" xMin="58" yMin="-210" xMax="540" yMax="740">
      <contour>
        <pt x="58" y="740" on="1"/>
        <pt x="240" y="740" on="1"/>
        <pt x="240" y="0" on="1"/>
        <pt x="58" y="0" on="1"/>
      </contour>
      <contour>
        <pt x="283" y="-159" on="1"/>
        <pt x="305" y="-109" on="0"/>
        <pt x="334" y="-24" on="0"/>
        <pt x="351" y="58" on="0"/>
        <pt x="358" y="144" on="0"/>
        <pt x="358" y="196" on="1"/>
        <pt x="358" y="740" on="1"/>
        <pt x="540" y="740" on="1"/>
        <pt x="540" y="181" on="1"/>
        <pt x="540" y="129" on="0"/>
        <pt x="525" y="36" on="0"/>
        <pt x="491" y="-57" on="0"/>
        <pt x="437" y="-154" on="0"/>
        <pt x="397" y="-210" on="1"/>
      </contour>
    </TTGlyph>
    <TTGlyph name="Iacute" xMin="58" yMin="0" xMax="326" yMax="982">
      <contour>
        <pt x="58" y="740" on="1"/>
        <pt x="240" y="740" on="1"/>
        <pt x="240" y="0" on="1"/>
        <pt x="58" y="0" on="1"/>
      </contour>
      <contour>
        <pt x="80" y="803" on="1"/>
        <pt x="145" y="982" on="1"/>
        <pt x="326" y="982" on="1"/>
        <pt x="207" y="794" on="1"/>
      </contour>
    </TTGlyph>
    <TTGlyph name="Iacute.sc" xMin="56" yMin="0" xMax="305" yMax="780">
      <contour>
        <pt x="56" y="577" on="1"/>
        <pt x="227" y="577" on="1"/>
        <pt x="227" y="0" on="1"/>
        <pt x="56" y="0" on="1"/>
      </contour>
      <contour>
        <pt x="77" y="629" on="1"/>
        <pt x="135" y="780" on="1"/>
        <pt x="305" y="780" on="1"/>
        <pt x="196" y="621" on="1"/>
      </contour>
    </TTGlyph>
    <TTGlyph name="Ibreve" xMin="-47" yMin="0" xMax="347" yMax="978">
      <contour>
        <pt x="58" y="740" on="1"/>
        <pt x="240" y="740" on="1"/>
        <pt x="240" y="0" on="1"/>
        <pt x="58" y="0" on="1"/>
      </contour>
      <contour>
        <pt x="150" y="798" on="1"/>
        <pt x="48" y="798" on="0"/>
        <pt x="-47" y="896" on="0"/>
        <pt x="-47" y="978" on="1"/>
        <pt x="71" y="978" on="1"/>
        <pt x="71" y="926" on="0"/>
        <pt x="104" y="881" on="0"/>
        <pt x="150" y="881" on="1"/>
        <pt x="195" y="881" on="0"/>
        <pt x="227" y="926" on="0"/>
        <pt x="227" y="978" on="1"/>
        <pt x="347" y="978" on="1"/>
        <pt x="347" y="896" on="0"/>
        <pt x="250" y="798" on="0"/>
      </contour>
    </TTGlyph>
    <TTGlyph name="Ibreve.sc" xMin="-40" yMin="0" xMax="324" yMax="771">
      <contour>
        <pt x="56" y="577" on="1"/>
        <pt x="227" y="577" on="1"/>
        <pt x="227" y="0" on="1"/>
        <pt x="56" y="0" on="1"/>
      </contour>
      <contour>
        <pt x="142" y="620" on="1"/>
        <pt x="47" y="620" on="0"/>
        <pt x="-40" y="703" on="0"/>
        <pt x="-40" y="771" on="1"/>
        <pt x="71" y="771" on="1"/>
        <pt x="71" y="729" on="0"/>
        <pt x="100" y="695" on="0"/>
        <pt x="142" y="695" on="1"/>
        <pt x="183" y="695" on="0"/>
        <pt x="212" y="729" on="0"/>
        <pt x="212" y="771" on="1"/>
        <pt x="324" y="771" on="1"/>
        <pt x="324" y="702" on="0"/>
        <pt x="236" y="620" on="0"/>
      </contour>
    </TTGlyph>
    <TTGlyph name="Icircumflex" xMin="-28" yMin="0" xMax="330" yMax="984">
      <contour>
        <pt x="58" y="740" on="1"/>
        <pt x="240" y="740" on="1"/>
        <pt x="240" y="0" on="1"/>
        <pt x="58" y="0" on="1"/>
      </contour>
      <contour>
        <pt x="-28" y="911" on="1"/>
        <pt x="151" y="984" on="1"/>
        <pt x="330" y="911" on="1"/>
        <pt x="330" y="793" on="1"/>
        <pt x="151" y="866" on="1"/>
        <pt x="-28" y="793" on="1"/>
      </contour>
    </TTGlyph>
    <TTGlyph name="Icircumflex.sc" xMin="-23" yMin="0" xMax="309" yMax="780">
      <contour>
        <pt x="56" y="577" on="1"/>
        <pt x="227" y="577" on="1"/>
        <pt x="227" y="0" on="1"/>
        <pt x="56" y="0" on="1"/>
      </contour>
      <contour>
        <pt x="-23" y="722" on="1"/>
        <pt x="143" y="780" on="1"/>
        <pt x="309" y="722" on="1"/>
        <pt x="309" y="614" on="1"/>
        <pt x="143" y="672" on="1"/>
        <pt x="-23" y="614" on="1"/>
      </contour>
    </TTGlyph>
    <TTGlyph name="Idblgrave" xMin="-110" yMin="0" xMax="312" yMax="982">
      <contour>
        <pt x="58" y="740" on="1"/>
        <pt x="240" y="740" on="1"/>
        <pt x="240" y="0" on="1"/>
        <pt x="58" y="0" on="1"/>
      </contour>
      <contour>
        <pt x="10" y="793" on="1"/>
        <pt x="-110" y="982" on="1"/>
        <pt x="46" y="982" on="1"/>
        <pt x="112" y="804" on="1"/>
      </contour>
      <contour>
        <pt x="210" y="793" on="1"/>
        <pt x="90" y="982" on="1"/>
        <pt x="246" y="982" on="1"/>
        <pt x="312" y="804" on="1"/>
      </contour>
    </TTGlyph>
    <TTGlyph name="Idblgrave.sc" xMin="-98" yMin="0" xMax="294" yMax="780">
      <contour>
        <pt x="56" y="577" on="1"/>
        <pt x="227" y="577" on="1"/>
        <pt x="227" y="0" on="1"/>
        <pt x="56" y="0" on="1"/>
      </contour>
      <contour>
        <pt x="12" y="621" on="1"/>
        <pt x="-98" y="780" on="1"/>
        <pt x="52" y="780" on="1"/>
        <pt x="109" y="628" on="1"/>
      </contour>
      <contour>
        <pt x="197" y="621" on="1"/>
        <pt x="87" y="780" on="1"/>
        <pt x="236" y="780" on="1"/>
        <pt x="294" y="628" on="1"/>
      </contour>
    </TTGlyph>
    <TTGlyph name="Idieresis" xMin="-79" yMin="0" xMax="380" yMax="988">
      <contour>
        <pt x="58" y="740" on="1"/>
        <pt x="240" y="740" on="1"/>
        <pt x="240" y="0" on="1"/>
        <pt x="58" y="0" on="1"/>
      </contour>
      <contour>
        <pt x="17" y="800" on="1"/>
        <pt x="-34" y="800" on="0"/>
        <pt x="-79" y="844" on="0"/>
        <pt x="-79" y="894" on="1"/>
        <pt x="-79" y="944" on="0"/>
        <pt x="-34" y="988" on="0"/>
        <pt x="17" y="988" on="1"/>
        <pt x="68" y="988" on="0"/>
        <pt x="114" y="943" on="0"/>
        <pt x="114" y="894" on="1"/>
        <pt x="114" y="844" on="0"/>
        <pt x="68" y="800" on="0"/>
      </contour>
      <contour>
        <pt x="284" y="800" on="1"/>
        <pt x="232" y="800" on="0"/>
        <pt x="187" y="844" on="0"/>
        <pt x="187" y="894" on="1"/>
        <pt x="187" y="944" on="0"/>
        <pt x="232" y="988" on="0"/>
        <pt x="284" y="988" on="1"/>
        <pt x="335" y="988" on="0"/>
        <pt x="380" y="943" on="0"/>
        <pt x="380" y="894" on="1"/>
        <pt x="380" y="844" on="0"/>
        <pt x="335" y="800" on="0"/>
      </contour>
    </TTGlyph>
    <TTGlyph name="Idieresis.sc" xMin="-70" yMin="0" xMax="356" yMax="793">
      <contour>
        <pt x="56" y="577" on="1"/>
        <pt x="227" y="577" on="1"/>
        <pt x="227" y="0" on="1"/>
        <pt x="56" y="0" on="1"/>
      </contour>
      <contour>
        <pt x="20" y="620" on="1"/>
        <pt x="-28" y="620" on="0"/>
        <pt x="-70" y="661" on="0"/>
        <pt x="-70" y="707" on="1"/>
        <pt x="-70" y="752" on="0"/>
        <pt x="-28" y="793" on="0"/>
        <pt x="20" y="793" on="1"/>
        <pt x="68" y="793" on="0"/>
        <pt x="111" y="752" on="0"/>
        <pt x="111" y="707" on="1"/>
        <pt x="111" y="662" on="0"/>
        <pt x="68" y="620" on="0"/>
      </contour>
      <contour>
        <pt x="265" y="620" on="1"/>
        <pt x="217" y="620" on="0"/>
        <pt x="175" y="661" on="0"/>
        <pt x="175" y="707" on="1"/>
        <pt x="175" y="752" on="0"/>
        <pt x="217" y="793" on="0"/>
        <pt x="265" y="793" on="1"/>
        <pt x="313" y="793" on="0"/>
        <pt x="356" y="752" on="0"/>
        <pt x="356" y="707" on="1"/>
        <pt x="356" y="662" on="0"/>
        <pt x="313" y="620" on="0"/>
      </contour>
    </TTGlyph>
    <TTGlyph name="Idotaccent" xMin="54" yMin="0" xMax="247" yMax="986">
      <contour>
        <pt x="58" y="740" on="1"/>
        <pt x="240" y="740" on="1"/>
        <pt x="240" y="0" on="1"/>
        <pt x="58" y="0" on="1"/>
      </contour>
      <contour>
        <pt x="150" y="798" on="1"/>
        <pt x="99" y="798" on="0"/>
        <pt x="54" y="842" on="0"/>
        <pt x="54" y="892" on="1"/>
        <pt x="54" y="942" on="0"/>
        <pt x="99" y="986" on="0"/>
        <pt x="150" y="986" on="1"/>
        <pt x="201" y="986" on="0"/>
        <pt x="247" y="942" on="0"/>
        <pt x="247" y="892" on="1"/>
        <pt x="247" y="843" on="0"/>
        <pt x="201" y="798" on="0"/>
      </contour>
    </TTGlyph>
    <TTGlyph name="Idotaccent.sc" xMin="52" yMin="0" xMax="233" yMax="793">
      <contour>
        <pt x="56" y="577" on="1"/>
        <pt x="227" y="577" on="1"/>
        <pt x="227" y="0" on="1"/>
        <pt x="56" y="0" on="1"/>
      </contour>
      <contour>
        <pt x="142" y="621" on="1"/>
        <pt x="94" y="621" on="0"/>
        <pt x="52" y="662" on="0"/>
        <pt x="52" y="708" on="1"/>
        <pt x="52" y="753" on="0"/>
        <pt x="94" y="793" on="0"/>
        <pt x="142" y="793" on="1"/>
        <pt x="190" y="793" on="0"/>
        <pt x="233" y="753" on="0"/>
        <pt x="233" y="708" on="1"/>
        <pt x="233" y="662" on="0"/>
        <pt x="190" y="621" on="0"/>
      </contour>
    </TTGlyph>
    <TTGlyph name="Idotbelow" xMin="58" yMin="-212" xMax="240" yMax="740">
      <contour>
        <pt x="58" y="740" on="1"/>
        <pt x="240" y="740" on="1"/>
        <pt x="240" y="0" on="1"/>
        <pt x="58" y="0" on="1"/>
      </contour>
      <contour>
        <pt x="149" y="-212" on="1"/>
        <pt x="108" y="-212" on="0"/>
        <pt x="74" y="-177" on="0"/>
        <pt x="74" y="-139" on="1"/>
        <pt x="74" y="-100" on="0"/>
        <pt x="108" y="-66" on="0"/>
        <pt x="149" y="-66" on="1"/>
        <pt x="190" y="-66" on="0"/>
        <pt x="225" y="-100" on="0"/>
        <pt x="225" y="-139" on="1"/>
        <pt x="225" y="-177" on="0"/>
        <pt x="190" y="-212" on="0"/>
      </contour>
    </TTGlyph>
    <TTGlyph name="Idotbelow.sc" xMin="56" yMin="-175" xMax="227" yMax="577">
      <contour>
        <pt x="56" y="577" on="1"/>
        <pt x="227" y="577" on="1"/>
        <pt x="227" y="0" on="1"/>
        <pt x="56" y="0" on="1"/>
      </contour>
      <contour>
        <pt x="142" y="-175" on="1"/>
        <pt x="104" y="-175" on="0"/>
        <pt x="72" y="-144" on="0"/>
        <pt x="72" y="-110" on="1"/>
        <pt x="72" y="-75" on="0"/>
        <pt x="104" y="-45" on="0"/>
        <pt x="142" y="-45" on="1"/>
        <pt x="180" y="-45" on="0"/>
        <pt x="213" y="-76" on="0"/>
        <pt x="213" y="-110" on="1"/>
        <pt x="213" y="-144" on="0"/>
        <pt x="180" y="-175" on="0"/>
      </contour>
    </TTGlyph>
    <TTGlyph name="Igrave" xMin="-31" yMin="0" xMax="240" yMax="982">
      <contour>
        <pt x="58" y="740" on="1"/>
        <pt x="240" y="740" on="1"/>
        <pt x="240" y="0" on="1"/>
        <pt x="58" y="0" on="1"/>
      </contour>
      <contour>
        <pt x="88" y="794" on="1"/>
        <pt x="-31" y="982" on="1"/>
        <pt x="150" y="982" on="1"/>
        <pt x="215" y="804" on="1"/>
      </contour>
    </TTGlyph>
    <TTGlyph name="Igrave.sc" xMin="-24" yMin="0" xMax="227" yMax="780">
      <contour>
        <pt x="56" y="577" on="1"/>
        <pt x="227" y="577" on="1"/>
        <pt x="227" y="0" on="1"/>
        <pt x="56" y="0" on="1"/>
      </contour>
      <contour>
        <pt x="86" y="621" on="1"/>
        <pt x="-24" y="780" on="1"/>
        <pt x="147" y="780" on="1"/>
        <pt x="205" y="628" on="1"/>
      </contour>
    </TTGlyph>
    <TTGlyph name="Iinvertedbreve" xMin="-45" yMin="0" xMax="349" yMax="988">
      <contour>
        <pt x="58" y="740" on="1"/>
        <pt x="240" y="740" on="1"/>
        <pt x="240" y="0" on="1"/>
        <pt x="58" y="0" on="1"/>
      </contour>
      <contour>
        <pt x="229" y="808" on="1"/>
        <pt x="229" y="860" on="0"/>
        <pt x="197" y="905" on="0"/>
        <pt x="152" y="905" on="1"/>
        <pt x="107" y="905" on="0"/>
        <pt x="74" y="860" on="0"/>
        <pt x="74" y="808" on="1"/>
        <pt x="-45" y="808" on="1"/>
        <pt x="-45" y="890" on="0"/>
        <pt x="51" y="988" on="0"/>
        <pt x="152" y="988" on="1"/>
        <pt x="253" y="988" on="0"/>
        <pt x="349" y="891" on="0"/>
        <pt x="349" y="808" on="1"/>
      </contour>
    </TTGlyph>
    <TTGlyph name="Iinvertedbreve.sc" xMin="-39" yMin="0" xMax="326" yMax="779">
      <contour>
        <pt x="56" y="577" on="1"/>
        <pt x="227" y="577" on="1"/>
        <pt x="227" y="0" on="1"/>
        <pt x="56" y="0" on="1"/>
      </contour>
      <contour>
        <pt x="214" y="628" on="1"/>
        <pt x="214" y="670" on="0"/>
        <pt x="185" y="703" on="0"/>
        <pt x="144" y="703" on="1"/>
        <pt x="102" y="703" on="0"/>
        <pt x="73" y="670" on="0"/>
        <pt x="73" y="628" on="1"/>
        <pt x="-39" y="628" on="1"/>
        <pt x="-39" y="662" on="0"/>
        <pt x="-18" y="717" on="0"/>
        <pt x="27" y="757" on="0"/>
        <pt x="96" y="779" on="0"/>
        <pt x="144" y="779" on="1"/>
        <pt x="238" y="779" on="0"/>
        <pt x="326" y="697" on="0"/>
        <pt x="326" y="628" on="1"/>
      </contour>
    </TTGlyph>
    <TTGlyph name="Imacron" xMin="-26" yMin="0" xMax="328" yMax="955">
      <contour>
        <pt x="58" y="740" on="1"/>
        <pt x="240" y="740" on="1"/>
        <pt x="240" y="0" on="1"/>
        <pt x="58" y="0" on="1"/>
      </contour>
      <contour>
        <pt x="-26" y="955" on="1"/>
        <pt x="328" y="955" on="1"/>
        <pt x="328" y="838" on="1"/>
        <pt x="-26" y="838" on="1"/>
      </contour>
    </TTGlyph>
    <TTGlyph name="Imacron.sc" xMin="-21" yMin="0" xMax="307" yMax="762">
      <contour>
        <pt x="56" y="577" on="1"/>
        <pt x="227" y="577" on="1"/>
        <pt x="227" y="0" on="1"/>
        <pt x="56" y="0" on="1"/>
      </contour>
      <contour>
        <pt x="-21" y="762" on="1"/>
        <pt x="307" y="762" on="1"/>
        <pt x="307" y="653" on="1"/>
        <pt x="-21" y="653" on="1"/>
      </contour>
    </TTGlyph>
    <TTGlyph name="Iogonek" xMin="15" yMin="-220" xMax="240" yMax="740">
      <contour>
        <pt x="58" y="740" on="1"/>
        <pt x="240" y="740" on="1"/>
        <pt x="240" y="-7" on="1"/>
        <pt x="177" y="-32" on="0"/>
        <pt x="129" y="-82" on="0"/>
        <pt x="129" y="-99" on="1"/>
        <pt x="129" y="-122" on="0"/>
        <pt x="164" y="-122" on="1"/>
        <pt x="181" y="-122" on="0"/>
        <pt x="223" y="-113" on="0"/>
        <pt x="240" y="-108" on="1"/>
        <pt x="240" y="-208" on="1"/>
        <pt x="217" y="-213" on="0"/>
        <pt x="175" y="-220" on="0"/>
        <pt x="151" y="-220" on="1"/>
        <pt x="15" y="-220" on="0"/>
        <pt x="15" y="-121" on="1"/>
        <pt x="15" y="-87" on="0"/>
        <pt x="52" y="-29" on="0"/>
        <pt x="94" y="0" on="1"/>
        <pt x="58" y="0" on="1"/>
      </contour>
    </TTGlyph>
    <TTGlyph name="Iogonek.sc" xMin="20" yMin="-172" xMax="228" yMax="577">
      <contour>
        <pt x="57" y="577" on="1"/>
        <pt x="228" y="577" on="1"/>
        <pt x="228" y="-3" on="1"/>
        <pt x="197" y="-14" on="0"/>
        <pt x="158" y="-34" on="0"/>
        <pt x="135" y="-51" on="0"/>
        <pt x="127" y="-65" on="0"/>
        <pt x="127" y="-69" on="1"/>
        <pt x="127" y="-81" on="0"/>
        <pt x="157" y="-81" on="1"/>
        <pt x="172" y="-81" on="0"/>
        <pt x="214" y="-74" on="0"/>
        <pt x="228" y="-71" on="1"/>
        <pt x="228" y="-162" on="1"/>
        <pt x="206" y="-167" on="0"/>
        <pt x="167" y="-172" on="0"/>
        <pt x="146" y="-172" on="1"/>
        <pt x="84" y="-172" on="0"/>
        <pt x="20" y="-130" on="0"/>
        <pt x="20" y="-91" on="1"/>
        <pt x="20" y="-65" on="0"/>
        <pt x="52" y="-22" on="0"/>
        <pt x="86" y="0" on="1"/>
        <pt x="57" y="0" on="1"/>
      </contour>
    </TTGlyph>
    <TTGlyph name="Itilde" xMin="-52" yMin="0" xMax="371" yMax="966">
      <contour>
        <pt x="58" y="740" on="1"/>
        <pt x="240" y="740" on="1"/>
        <pt x="240" y="0" on="1"/>
        <pt x="58" y="0" on="1"/>
      </contour>
      <contour>
        <pt x="-52" y="842" on="1"/>
        <pt x="-20" y="905" on="0"/>
        <pt x="59" y="966" on="0"/>
        <pt x="97" y="966" on="1"/>
        <pt x="119" y="966" on="0"/>
        <pt x="161" y="954" on="0"/>
        <pt x="202" y="940" on="0"/>
        <pt x="244" y="928" on="0"/>
        <pt x="266" y="928" on="1"/>
        <pt x="286" y="928" on="0"/>
        <pt x="325" y="944" on="0"/>
        <pt x="348" y="966" on="1"/>
        <pt x="371" y="941" on="1"/>
        <pt x="341" y="878" on="0"/>
        <pt x="261" y="816" on="0"/>
        <pt x="223" y="816" on="1"/>
        <pt x="202" y="816" on="0"/>
        <pt x="159" y="828" on="0"/>
        <pt x="117" y="842" on="0"/>
        <pt x="75" y="854" on="0"/>
        <pt x="54" y="854" on="1"/>
        <pt x="33" y="854" on="0"/>
        <pt x="-6" y="838" on="0"/>
        <pt x="-29" y="817" on="1"/>
      </contour>
    </TTGlyph>
    <TTGlyph name="Itilde.sc" xMin="-45" yMin="0" xMax="347" yMax="768">
      <contour>
        <pt x="56" y="577" on="1"/>
        <pt x="227" y="577" on="1"/>
        <pt x="227" y="0" on="1"/>
        <pt x="56" y="0" on="1"/>
      </contour>
      <contour>
        <pt x="-45" y="656" on="1"/>
        <pt x="-16" y="713" on="0"/>
        <pt x="58" y="768" on="0"/>
        <pt x="93" y="768" on="1"/>
        <pt x="113" y="768" on="0"/>
        <pt x="152" y="759" on="0"/>
        <pt x="190" y="749" on="0"/>
        <pt x="229" y="740" on="0"/>
        <pt x="249" y="740" on="1"/>
        <pt x="268" y="740" on="0"/>
        <pt x="303" y="751" on="0"/>
        <pt x="326" y="768" on="1"/>
        <pt x="347" y="747" on="1"/>
        <pt x="318" y="690" on="0"/>
        <pt x="244" y="635" on="0"/>
        <pt x="209" y="635" on="1"/>
        <pt x="189" y="635" on="0"/>
        <pt x="150" y="644" on="0"/>
        <pt x="111" y="655" on="0"/>
        <pt x="72" y="664" on="0"/>
        <pt x="52" y="664" on="1"/>
        <pt x="33" y="664" on="0"/>
        <pt x="-2" y="653" on="0"/>
        <pt x="-24" y="636" on="1"/>
      </contour>
    </TTGlyph>
    <TTGlyph name="J" xMin="-15" yMin="-210" xMax="242" yMax="740">
      <contour>
        <pt x="-15" y="-159" on="1"/>
        <pt x="7" y="-109" on="0"/>
        <pt x="36" y="-24" on="0"/>
        <pt x="53" y="58" on="0"/>
        <pt x="60" y="144" on="0"/>
        <pt x="60" y="196" on="1"/>
        <pt x="60" y="740" on="1"/>
        <pt x="242" y="740" on="1"/>
        <pt x="242" y="181" on="1"/>
        <pt x="242" y="129" on="0"/>
        <pt x="227" y="36" on="0"/>
        <pt x="193" y="-57" on="0"/>
        <pt x="139" y="-154" on="0"/>
        <pt x="99" y="-210" on="1"/>
      </contour>
    </TTGlyph>
    <TTGlyph name="J.sc" xMin="-9" yMin="-170" xMax="230" yMax="577">
      <contour>
        <pt x="-9" y="-124" on="1"/>
        <pt x="10" y="-85" on="0"/>
        <pt x="36" y="-19" on="0"/>
        <pt x="52" y="46" on="0"/>
        <pt x="58" y="115" on="0"/>
        <pt x="58" y="156" on="1"/>
        <pt x="58" y="577" on="1"/>
        <pt x="230" y="577" on="1"/>
        <pt x="230" y="142" on="1"/>
        <pt x="230" y="100" on="0"/>
        <pt x="216" y="26" on="0"/>
        <pt x="185" y="-47" on="0"/>
        <pt x="135" y="-125" on="0"/>
        <pt x="99" y="-170" on="1"/>
      </contour>
    </TTGlyph>
    <TTGlyph name="Jcircumflex" xMin="-25" yMin="-210" xMax="333" yMax="984">
      <contour>
        <pt x="-15" y="-159" on="1"/>
        <pt x="7" y="-109" on="0"/>
        <pt x="36" y="-24" on="0"/>
        <pt x="53" y="58" on="0"/>
        <pt x="60" y="144" on="0"/>
        <pt x="60" y="196" on="1"/>
        <pt x="60" y="740" on="1"/>
        <pt x="242" y="740" on="1"/>
        <pt x="242" y="181" on="1"/>
        <pt x="242" y="129" on="0"/>
        <pt x="227" y="36" on="0"/>
        <pt x="193" y="-57" on="0"/>
        <pt x="139" y="-154" on="0"/>
        <pt x="99" y="-210" on="1"/>
      </contour>
      <contour>
        <pt x="-25" y="911" on="1"/>
        <pt x="154" y="984" on="1"/>
        <pt x="333" y="911" on="1"/>
        <pt x="333" y="793" on="1"/>
        <pt x="154" y="866" on="1"/>
        <pt x="-25" y="793" on="1"/>
      </contour>
    </TTGlyph>
    <TTGlyph name="Jcircumflex.sc" xMin="-19" yMin="-170" xMax="312" yMax="780">
      <contour>
        <pt x="-9" y="-124" on="1"/>
        <pt x="10" y="-85" on="0"/>
        <pt x="36" y="-19" on="0"/>
        <pt x="52" y="46" on="0"/>
        <pt x="58" y="115" on="0"/>
        <pt x="58" y="156" on="1"/>
        <pt x="58" y="577" on="1"/>
        <pt x="230" y="577" on="1"/>
        <pt x="230" y="142" on="1"/>
        <pt x="230" y="100" on="0"/>
        <pt x="216" y="26" on="0"/>
        <pt x="185" y="-47" on="0"/>
        <pt x="135" y="-125" on="0"/>
        <pt x="99" y="-170" on="1"/>
      </contour>
      <contour>
        <pt x="-19" y="722" on="1"/>
        <pt x="146" y="780" on="1"/>
        <pt x="312" y="722" on="1"/>
        <pt x="312" y="614" on="1"/>
        <pt x="147" y="672" on="1"/>
        <pt x="-19" y="614" on="1"/>
      </contour>
    </TTGlyph>
    <TTGlyph name="K" xMin="58" yMin="0" xMax="676" yMax="740">
      <contour>
        <pt x="58" y="740" on="1"/>
        <pt x="240" y="740" on="1"/>
        <pt x="240" y="450" on="1"/>
        <pt x="319" y="450" on="1"/>
        <pt x="455" y="740" on="1"/>
        <pt x="656" y="740" on="1"/>
        <pt x="489" y="410" on="1"/>
        <pt x="433" y="383" on="1"/>
        <pt x="433" y="376" on="1"/>
        <pt x="491" y="349" on="1"/>
        <pt x="676" y="0" on="1"/>
        <pt x="474" y="0" on="1"/>
        <pt x="319" y="302" on="1"/>
        <pt x="240" y="302" on="1"/>
        <pt x="240" y="0" on="1"/>
        <pt x="58" y="0" on="1"/>
      </contour>
    </TTGlyph>
    <TTGlyph name="K.sc" xMin="56" yMin="0" xMax="623" yMax="577">
      <contour>
        <pt x="56" y="577" on="1"/>
        <pt x="227" y="577" on="1"/>
        <pt x="227" y="361" on="1"/>
        <pt x="298" y="361" on="1"/>
        <pt x="417" y="577" on="1"/>
        <pt x="605" y="577" on="1"/>
        <pt x="457" y="322" on="1"/>
        <pt x="399" y="300" on="1"/>
        <pt x="399" y="294" on="1"/>
        <pt x="459" y="272" on="1"/>
        <pt x="623" y="0" on="1"/>
        <pt x="433" y="0" on="1"/>
        <pt x="298" y="225" on="1"/>
        <pt x="227" y="225" on="1"/>
        <pt x="227" y="0" on="1"/>
        <pt x="56" y="0" on="1"/>
      </contour>
    </TTGlyph>
    <TTGlyph name="Kcommaaccent" xMin="58" yMin="-220" xMax="676" yMax="740">
      <contour>
        <pt x="247" y="-70" on="1"/>
        <pt x="428" y="-70" on="1"/>
        <pt x="337" y="-220" on="1"/>
        <pt x="205" y="-220" on="1"/>
      </contour>
      <contour>
        <pt x="58" y="740" on="1"/>
        <pt x="240" y="740" on="1"/>
        <pt x="240" y="450" on="1"/>
        <pt x="319" y="450" on="1"/>
        <pt x="455" y="740" on="1"/>
        <pt x="656" y="740" on="1"/>
        <pt x="489" y="410" on="1"/>
        <pt x="433" y="383" on="1"/>
        <pt x="433" y="376" on="1"/>
        <pt x="491" y="349" on="1"/>
        <pt x="676" y="0" on="1"/>
        <pt x="474" y="0" on="1"/>
        <pt x="319" y="302" on="1"/>
        <pt x="240" y="302" on="1"/>
        <pt x="240" y="0" on="1"/>
        <pt x="58" y="0" on="1"/>
      </contour>
    </TTGlyph>
    <TTGlyph name="Kcommaaccent.sc" xMin="56" yMin="-172" xMax="623" yMax="577">
      <contour>
        <pt x="56" y="577" on="1"/>
        <pt x="227" y="577" on="1"/>
        <pt x="227" y="361" on="1"/>
        <pt x="298" y="361" on="1"/>
        <pt x="417" y="577" on="1"/>
        <pt x="605" y="577" on="1"/>
        <pt x="457" y="322" on="1"/>
        <pt x="399" y="300" on="1"/>
        <pt x="399" y="294" on="1"/>
        <pt x="459" y="272" on="1"/>
        <pt x="623" y="0" on="1"/>
        <pt x="433" y="0" on="1"/>
        <pt x="298" y="225" on="1"/>
        <pt x="227" y="225" on="1"/>
        <pt x="227" y="0" on="1"/>
        <pt x="56" y="0" on="1"/>
      </contour>
      <contour>
        <pt x="235" y="-55" on="1"/>
        <pt x="406" y="-55" on="1"/>
        <pt x="323" y="-172" on="1"/>
        <pt x="198" y="-172" on="1"/>
      </contour>
    </TTGlyph>
    <TTGlyph name="L" xMin="58" yMin="0" xMax="495" yMax="740">
      <contour>
        <pt x="58" y="740" on="1"/>
        <pt x="240" y="740" on="1"/>
        <pt x="240" y="147" on="1"/>
        <pt x="495" y="147" on="1"/>
        <pt x="495" y="0" on="1"/>
        <pt x="58" y="0" on="1"/>
      </contour>
    </TTGlyph>
    <TTGlyph name="L.sc" xMin="56" yMin="0" xMax="460" yMax="577">
      <contour>
        <pt x="56" y="577" on="1"/>
        <pt x="227" y="577" on="1"/>
        <pt x="227" y="137" on="1"/>
        <pt x="460" y="137" on="1"/>
        <pt x="460" y="0" on="1"/>
        <pt x="56" y="0" on="1"/>
      </contour>
    </TTGlyph>
    <TTGlyph name="Lacute" xMin="58" yMin="0" xMax="495" yMax="982">
      <contour>
        <pt x="86" y="803" on="1"/>
        <pt x="151" y="982" on="1"/>
        <pt x="332" y="982" on="1"/>
        <pt x="213" y="794" on="1"/>
      </contour>
      <contour>
        <pt x="58" y="740" on="1"/>
        <pt x="240" y="740" on="1"/>
        <pt x="240" y="147" on="1"/>
        <pt x="495" y="147" on="1"/>
        <pt x="495" y="0" on="1"/>
        <pt x="58" y="0" on="1"/>
      </contour>
    </TTGlyph>
    <TTGlyph name="Lacute.sc" xMin="56" yMin="0" xMax="460" yMax="780">
      <contour>
        <pt x="56" y="577" on="1"/>
        <pt x="227" y="577" on="1"/>
        <pt x="227" y="137" on="1"/>
        <pt x="460" y="137" on="1"/>
        <pt x="460" y="0" on="1"/>
        <pt x="56" y="0" on="1"/>
      </contour>
      <contour>
        <pt x="82" y="629" on="1"/>
        <pt x="139" y="780" on="1"/>
        <pt x="310" y="780" on="1"/>
        <pt x="201" y="621" on="1"/>
      </contour>
    </TTGlyph>
    <TTGlyph name="Lcaron" xMin="58" yMin="0" xMax="533" yMax="798">
      <contour>
        <pt x="394" y="798" on="1"/>
        <pt x="533" y="798" on="1"/>
        <pt x="489" y="570" on="1"/>
        <pt x="394" y="570" on="1"/>
      </contour>
      <contour>
        <pt x="58" y="740" on="1"/>
        <pt x="240" y="740" on="1"/>
        <pt x="240" y="147" on="1"/>
        <pt x="495" y="147" on="1"/>
        <pt x="495" y="0" on="1"/>
        <pt x="58" y="0" on="1"/>
      </contour>
    </TTGlyph>
    <TTGlyph name="Lcaron.sc" xMin="57" yMin="0" xMax="493" yMax="634">
      <contour>
        <pt x="57" y="577" on="1"/>
        <pt x="228" y="577" on="1"/>
        <pt x="228" y="137" on="1"/>
        <pt x="460" y="137" on="1"/>
        <pt x="460" y="0" on="1"/>
        <pt x="57" y="0" on="1"/>
      </contour>
      <contour>
        <pt x="363" y="634" on="1"/>
        <pt x="493" y="634" on="1"/>
        <pt x="452" y="456" on="1"/>
        <pt x="363" y="456" on="1"/>
      </contour>
    </TTGlyph>
    <TTGlyph name="Lcommaaccent" xMin="58" yMin="-220" xMax="495" yMax="740">
      <contour>
        <pt x="185" y="-70" on="1"/>
        <pt x="366" y="-70" on="1"/>
        <pt x="275" y="-220" on="1"/>
        <pt x="143" y="-220" on="1"/>
      </contour>
      <contour>
        <pt x="58" y="740" on="1"/>
        <pt x="240" y="740" on="1"/>
        <pt x="240" y="147" on="1"/>
        <pt x="495" y="147" on="1"/>
        <pt x="495" y="0" on="1"/>
        <pt x="58" y="0" on="1"/>
      </contour>
    </TTGlyph>
    <TTGlyph name="Lcommaaccent.sc" xMin="56" yMin="-172" xMax="460" yMax="577">
      <contour>
        <pt x="56" y="577" on="1"/>
        <pt x="227" y="577" on="1"/>
        <pt x="227" y="137" on="1"/>
        <pt x="460" y="137" on="1"/>
        <pt x="460" y="0" on="1"/>
        <pt x="56" y="0" on="1"/>
      </contour>
      <contour>
        <pt x="168" y="-55" on="1"/>
        <pt x="339" y="-55" on="1"/>
        <pt x="256" y="-172" on="1"/>
        <pt x="131" y="-172" on="1"/>
      </contour>
    </TTGlyph>
    <TTGlyph name="Ldot" xMin="58" yMin="0" xMax="514" yMax="740">
      <contour>
        <pt x="58" y="740" on="1"/>
        <pt x="240" y="740" on="1"/>
        <pt x="240" y="147" on="1"/>
        <pt x="495" y="147" on="1"/>
        <pt x="495" y="0" on="1"/>
        <pt x="58" y="0" on="1"/>
      </contour>
      <contour>
        <pt x="417" y="283" on="1"/>
        <pt x="366" y="283" on="0"/>
        <pt x="321" y="327" on="0"/>
        <pt x="321" y="377" on="1"/>
        <pt x="321" y="427" on="0"/>
        <pt x="366" y="471" on="0"/>
        <pt x="417" y="471" on="1"/>
        <pt x="468" y="471" on="0"/>
        <pt x="514" y="427" on="0"/>
        <pt x="514" y="377" on="1"/>
        <pt x="514" y="327" on="0"/>
        <pt x="468" y="283" on="0"/>
      </contour>
    </TTGlyph>
    <TTGlyph name="Ldot.sc" xMin="56" yMin="0" xMax="480" yMax="577">
      <contour>
        <pt x="56" y="577" on="1"/>
        <pt x="227" y="577" on="1"/>
        <pt x="227" y="137" on="1"/>
        <pt x="460" y="137" on="1"/>
        <pt x="460" y="0" on="1"/>
        <pt x="56" y="0" on="1"/>
      </contour>
      <contour>
        <pt x="389" y="211" on="1"/>
        <pt x="341" y="211" on="0"/>
        <pt x="299" y="252" on="0"/>
        <pt x="299" y="298" on="1"/>
        <pt x="299" y="343" on="0"/>
        <pt x="341" y="384" on="0"/>
        <pt x="389" y="384" on="1"/>
        <pt x="437" y="384" on="0"/>
        <pt x="480" y="343" on="0"/>
        <pt x="480" y="298" on="1"/>
        <pt x="480" y="253" on="0"/>
        <pt x="437" y="211" on="0"/>
      </contour>
    </TTGlyph>
    <TTGlyph name="Lslash" xMin="8" yMin="0" xMax="512" yMax="740">
      <contour>
        <pt x="8" y="355" on="1"/>
        <pt x="75" y="391" on="1"/>
        <pt x="75" y="740" on="1"/>
        <pt x="257" y="740" on="1"/>
        <pt x="257" y="490" on="1"/>
        <pt x="368" y="551" on="1"/>
        <pt x="368" y="421" on="1"/>
        <pt x="257" y="360" on="1"/>
        <pt x="257" y="147" on="1"/>
        <pt x="512" y="147" on="1"/>
        <pt x="512" y="0" on="1"/>
        <pt x="75" y="0" on="1"/>
        <pt x="75" y="261" on="1"/>
        <pt x="8" y="225" on="1"/>
      </contour>
    </TTGlyph>
    <TTGlyph name="Lslash.sc" xMin="12" yMin="0" xMax="475" yMax="577">
      <contour>
        <pt x="12" y="295" on="1"/>
        <pt x="71" y="324" on="1"/>
        <pt x="71" y="577" on="1"/>
        <pt x="242" y="577" on="1"/>
        <pt x="242" y="396" on="1"/>
        <pt x="343" y="442" on="1"/>
        <pt x="343" y="324" on="1"/>
        <pt x="242" y="277" on="1"/>
        <pt x="242" y="137" on="1"/>
        <pt x="475" y="137" on="1"/>
        <pt x="475" y="0" on="1"/>
        <pt x="71" y="0" on="1"/>
        <pt x="71" y="205" on="1"/>
        <pt x="12" y="176" on="1"/>
      </contour>
    </TTGlyph>
    <TTGlyph name="M" xMin="58" yMin="0" xMax="868" yMax="740">
      <contour>
        <pt x="58" y="740" on="1"/>
        <pt x="314" y="740" on="1"/>
        <pt x="430" y="391" on="1"/>
        <pt x="459" y="258" on="1"/>
        <pt x="466" y="258" on="1"/>
        <pt x="496" y="391" on="1"/>
        <pt x="613" y="740" on="1"/>
        <pt x="868" y="740" on="1"/>
        <pt x="868" y="0" on="1"/>
        <pt x="702" y="0" on="1"/>
        <pt x="702" y="527" on="1"/>
        <pt x="695" y="527" on="1"/>
        <pt x="652" y="376" on="1"/>
        <pt x="537" y="36" on="1"/>
        <pt x="387" y="36" on="1"/>
        <pt x="273" y="376" on="1"/>
        <pt x="229" y="527" on="1"/>
        <pt x="222" y="527" on="1"/>
        <pt x="222" y="0" on="1"/>
        <pt x="58" y="0" on="1"/>
      </contour>
    </TTGlyph>
    <TTGlyph name="M.sc" xMin="56" yMin="0" xMax="797" yMax="577">
      <contour>
        <pt x="56" y="577" on="1"/>
        <pt x="292" y="577" on="1"/>
        <pt x="395" y="321" on="1"/>
        <pt x="422" y="232" on="1"/>
        <pt x="430" y="232" on="1"/>
        <pt x="457" y="321" on="1"/>
        <pt x="560" y="577" on="1"/>
        <pt x="797" y="577" on="1"/>
        <pt x="797" y="0" on="1"/>
        <pt x="641" y="0" on="1"/>
        <pt x="641" y="390" on="1"/>
        <pt x="633" y="389" on="1"/>
        <pt x="585" y="259" on="1"/>
        <pt x="495" y="28" on="1"/>
        <pt x="357" y="28" on="1"/>
        <pt x="268" y="259" on="1"/>
        <pt x="220" y="389" on="1"/>
        <pt x="212" y="390" on="1"/>
        <pt x="212" y="0" on="1"/>
        <pt x="56" y="0" on="1"/>
      </contour>
    </TTGlyph>
    <TTGlyph name="N" xMin="58" yMin="0" xMax="671" yMax="740">
      <contour>
        <pt x="58" y="740" on="1"/>
        <pt x="206" y="740" on="1"/>
        <pt x="457" y="379" on="1"/>
        <pt x="502" y="299" on="1"/>
        <pt x="512" y="299" on="1"/>
        <pt x="512" y="740" on="1"/>
        <pt x="671" y="740" on="1"/>
        <pt x="671" y="0" on="1"/>
        <pt x="523" y="0" on="1"/>
        <pt x="274" y="360" on="1"/>
        <pt x="227" y="443" on="1"/>
        <pt x="217" y="443" on="1"/>
        <pt x="217" y="0" on="1"/>
        <pt x="58" y="0" on="1"/>
      </contour>
    </TTGlyph>
    <TTGlyph name="N.sc" xMin="56" yMin="0" xMax="610" yMax="577">
      <contour>
        <pt x="56" y="577" on="1"/>
        <pt x="192" y="577" on="1"/>
        <pt x="403" y="324" on="1"/>
        <pt x="450" y="261" on="1"/>
        <pt x="459" y="261" on="1"/>
        <pt x="459" y="577" on="1"/>
        <pt x="610" y="577" on="1"/>
        <pt x="610" y="0" on="1"/>
        <pt x="475" y="0" on="1"/>
        <pt x="266" y="252" on="1"/>
        <pt x="216" y="318" on="1"/>
        <pt x="207" y="319" on="1"/>
        <pt x="207" y="0" on="1"/>
        <pt x="56" y="0" on="1"/>
      </contour>
    </TTGlyph>
    <TTGlyph name="Nacute" xMin="58" yMin="0" xMax="671" yMax="982">
      <contour>
        <pt x="281" y="803" on="1"/>
        <pt x="346" y="982" on="1"/>
        <pt x="527" y="982" on="1"/>
        <pt x="408" y="794" on="1"/>
      </contour>
      <contour>
        <pt x="58" y="740" on="1"/>
        <pt x="206" y="740" on="1"/>
        <pt x="457" y="379" on="1"/>
        <pt x="502" y="299" on="1"/>
        <pt x="512" y="299" on="1"/>
        <pt x="512" y="740" on="1"/>
        <pt x="671" y="740" on="1"/>
        <pt x="671" y="0" on="1"/>
        <pt x="523" y="0" on="1"/>
        <pt x="274" y="360" on="1"/>
        <pt x="227" y="443" on="1"/>
        <pt x="217" y="443" on="1"/>
        <pt x="217" y="0" on="1"/>
        <pt x="58" y="0" on="1"/>
      </contour>
    </TTGlyph>
    <TTGlyph name="Nacute.sc" xMin="56" yMin="0" xMax="610" yMax="780">
      <contour>
        <pt x="56" y="577" on="1"/>
        <pt x="192" y="577" on="1"/>
        <pt x="403" y="324" on="1"/>
        <pt x="450" y="261" on="1"/>
        <pt x="459" y="261" on="1"/>
        <pt x="459" y="577" on="1"/>
        <pt x="610" y="577" on="1"/>
        <pt x="610" y="0" on="1"/>
        <pt x="475" y="0" on="1"/>
        <pt x="266" y="252" on="1"/>
        <pt x="216" y="318" on="1"/>
        <pt x="207" y="319" on="1"/>
        <pt x="207" y="0" on="1"/>
        <pt x="56" y="0" on="1"/>
      </contour>
      <contour>
        <pt x="254" y="629" on="1"/>
        <pt x="312" y="780" on="1"/>
        <pt x="483" y="780" on="1"/>
        <pt x="374" y="621" on="1"/>
      </contour>
    </TTGlyph>
    <TTGlyph name="Ncaron" xMin="58" yMin="0" xMax="671" yMax="982">
      <contour>
        <pt x="186" y="982" on="1"/>
        <pt x="365" y="909" on="1"/>
        <pt x="544" y="982" on="1"/>
        <pt x="544" y="864" on="1"/>
        <pt x="365" y="791" on="1"/>
        <pt x="186" y="864" on="1"/>
      </contour>
      <contour>
        <pt x="58" y="740" on="1"/>
        <pt x="206" y="740" on="1"/>
        <pt x="457" y="379" on="1"/>
        <pt x="502" y="299" on="1"/>
        <pt x="512" y="299" on="1"/>
        <pt x="512" y="740" on="1"/>
        <pt x="671" y="740" on="1"/>
        <pt x="671" y="0" on="1"/>
        <pt x="523" y="0" on="1"/>
        <pt x="274" y="360" on="1"/>
        <pt x="227" y="443" on="1"/>
        <pt x="217" y="443" on="1"/>
        <pt x="217" y="0" on="1"/>
        <pt x="58" y="0" on="1"/>
      </contour>
    </TTGlyph>
    <TTGlyph name="Ncaron.sc" xMin="56" yMin="0" xMax="610" yMax="781">
      <contour>
        <pt x="56" y="577" on="1"/>
        <pt x="192" y="577" on="1"/>
        <pt x="403" y="324" on="1"/>
        <pt x="450" y="261" on="1"/>
        <pt x="459" y="261" on="1"/>
        <pt x="459" y="577" on="1"/>
        <pt x="610" y="577" on="1"/>
        <pt x="610" y="0" on="1"/>
        <pt x="475" y="0" on="1"/>
        <pt x="266" y="252" on="1"/>
        <pt x="216" y="318" on="1"/>
        <pt x="207" y="319" on="1"/>
        <pt x="207" y="0" on="1"/>
        <pt x="56" y="0" on="1"/>
      </contour>
      <contour>
        <pt x="168" y="673" on="1"/>
        <pt x="168" y="781" on="1"/>
        <pt x="333" y="722" on="1"/>
        <pt x="499" y="781" on="1"/>
        <pt x="499" y="673" on="1"/>
        <pt x="333" y="615" on="1"/>
      </contour>
    </TTGlyph>
    <TTGlyph name="Ncommaaccent" xMin="58" yMin="-220" xMax="671" yMax="740">
      <contour>
        <pt x="285" y="-70" on="1"/>
        <pt x="466" y="-70" on="1"/>
        <pt x="375" y="-220" on="1"/>
        <pt x="243" y="-220" on="1"/>
      </contour>
      <contour>
        <pt x="58" y="740" on="1"/>
        <pt x="206" y="740" on="1"/>
        <pt x="457" y="379" on="1"/>
        <pt x="502" y="299" on="1"/>
        <pt x="512" y="299" on="1"/>
        <pt x="512" y="740" on="1"/>
        <pt x="671" y="740" on="1"/>
        <pt x="671" y="0" on="1"/>
        <pt x="523" y="0" on="1"/>
        <pt x="274" y="360" on="1"/>
        <pt x="227" y="443" on="1"/>
        <pt x="217" y="443" on="1"/>
        <pt x="217" y="0" on="1"/>
        <pt x="58" y="0" on="1"/>
      </contour>
    </TTGlyph>
    <TTGlyph name="Ncommaaccent.sc" xMin="56" yMin="-172" xMax="610" yMax="577">
      <contour>
        <pt x="56" y="577" on="1"/>
        <pt x="192" y="577" on="1"/>
        <pt x="403" y="324" on="1"/>
        <pt x="450" y="261" on="1"/>
        <pt x="459" y="261" on="1"/>
        <pt x="459" y="577" on="1"/>
        <pt x="610" y="577" on="1"/>
        <pt x="610" y="0" on="1"/>
        <pt x="475" y="0" on="1"/>
        <pt x="266" y="252" on="1"/>
        <pt x="216" y="318" on="1"/>
        <pt x="207" y="319" on="1"/>
        <pt x="207" y="0" on="1"/>
        <pt x="56" y="0" on="1"/>
      </contour>
      <contour>
        <pt x="257" y="-55" on="1"/>
        <pt x="427" y="-55" on="1"/>
        <pt x="345" y="-172" on="1"/>
        <pt x="220" y="-172" on="1"/>
      </contour>
    </TTGlyph>
    <TTGlyph name="Ndotaccent" xMin="58" yMin="0" xMax="671" yMax="986">
      <contour>
        <pt x="358" y="798" on="1"/>
        <pt x="307" y="798" on="0"/>
        <pt x="262" y="842" on="0"/>
        <pt x="262" y="892" on="1"/>
        <pt x="262" y="942" on="0"/>
        <pt x="307" y="986" on="0"/>
        <pt x="358" y="986" on="1"/>
        <pt x="409" y="986" on="0"/>
        <pt x="455" y="942" on="0"/>
        <pt x="455" y="892" on="1"/>
        <pt x="455" y="843" on="0"/>
        <pt x="409" y="798" on="0"/>
      </contour>
      <contour>
        <pt x="58" y="740" on="1"/>
        <pt x="206" y="740" on="1"/>
        <pt x="457" y="379" on="1"/>
        <pt x="502" y="299" on="1"/>
        <pt x="512" y="299" on="1"/>
        <pt x="512" y="740" on="1"/>
        <pt x="671" y="740" on="1"/>
        <pt x="671" y="0" on="1"/>
        <pt x="523" y="0" on="1"/>
        <pt x="274" y="360" on="1"/>
        <pt x="227" y="443" on="1"/>
        <pt x="217" y="443" on="1"/>
        <pt x="217" y="0" on="1"/>
        <pt x="58" y="0" on="1"/>
      </contour>
    </TTGlyph>
    <TTGlyph name="Ndotaccent.sc" xMin="56" yMin="0" xMax="610" yMax="793">
      <contour>
        <pt x="56" y="577" on="1"/>
        <pt x="192" y="577" on="1"/>
        <pt x="403" y="324" on="1"/>
        <pt x="450" y="261" on="1"/>
        <pt x="459" y="261" on="1"/>
        <pt x="459" y="577" on="1"/>
        <pt x="610" y="577" on="1"/>
        <pt x="610" y="0" on="1"/>
        <pt x="475" y="0" on="1"/>
        <pt x="266" y="252" on="1"/>
        <pt x="216" y="318" on="1"/>
        <pt x="207" y="319" on="1"/>
        <pt x="207" y="0" on="1"/>
        <pt x="56" y="0" on="1"/>
      </contour>
      <contour>
        <pt x="328" y="621" on="1"/>
        <pt x="280" y="621" on="0"/>
        <pt x="238" y="662" on="0"/>
        <pt x="238" y="708" on="1"/>
        <pt x="238" y="753" on="0"/>
        <pt x="280" y="793" on="0"/>
        <pt x="328" y="793" on="1"/>
        <pt x="376" y="793" on="0"/>
        <pt x="419" y="753" on="0"/>
        <pt x="419" y="708" on="1"/>
        <pt x="419" y="662" on="0"/>
        <pt x="376" y="621" on="0"/>
      </contour>
    </TTGlyph>
    <TTGlyph name="Ntilde" xMin="58" yMin="0" xMax="671" yMax="966">
      <contour>
        <pt x="156" y="842" on="1"/>
        <pt x="188" y="905" on="0"/>
        <pt x="267" y="966" on="0"/>
        <pt x="305" y="966" on="1"/>
        <pt x="327" y="966" on="0"/>
        <pt x="369" y="954" on="0"/>
        <pt x="410" y="940" on="0"/>
        <pt x="452" y="928" on="0"/>
        <pt x="474" y="928" on="1"/>
        <pt x="494" y="928" on="0"/>
        <pt x="533" y="944" on="0"/>
        <pt x="556" y="966" on="1"/>
        <pt x="579" y="941" on="1"/>
        <pt x="549" y="878" on="0"/>
        <pt x="469" y="816" on="0"/>
        <pt x="431" y="816" on="1"/>
        <pt x="410" y="816" on="0"/>
        <pt x="367" y="828" on="0"/>
        <pt x="325" y="842" on="0"/>
        <pt x="283" y="854" on="0"/>
        <pt x="262" y="854" on="1"/>
        <pt x="241" y="854" on="0"/>
        <pt x="202" y="838" on="0"/>
        <pt x="179" y="817" on="1"/>
      </contour>
      <contour>
        <pt x="58" y="740" on="1"/>
        <pt x="206" y="740" on="1"/>
        <pt x="457" y="379" on="1"/>
        <pt x="502" y="299" on="1"/>
        <pt x="512" y="299" on="1"/>
        <pt x="512" y="740" on="1"/>
        <pt x="671" y="740" on="1"/>
        <pt x="671" y="0" on="1"/>
        <pt x="523" y="0" on="1"/>
        <pt x="274" y="360" on="1"/>
        <pt x="227" y="443" on="1"/>
        <pt x="217" y="443" on="1"/>
        <pt x="217" y="0" on="1"/>
        <pt x="58" y="0" on="1"/>
      </contour>
    </TTGlyph>
    <TTGlyph name="Ntilde.sc" xMin="56" yMin="0" xMax="610" yMax="768">
      <contour>
        <pt x="141" y="656" on="1"/>
        <pt x="170" y="713" on="0"/>
        <pt x="244" y="768" on="0"/>
        <pt x="279" y="768" on="1"/>
        <pt x="299" y="768" on="0"/>
        <pt x="338" y="759" on="0"/>
        <pt x="377" y="749" on="0"/>
        <pt x="416" y="740" on="0"/>
        <pt x="436" y="740" on="1"/>
        <pt x="454" y="740" on="0"/>
        <pt x="489" y="751" on="0"/>
        <pt x="511" y="768" on="1"/>
        <pt x="532" y="747" on="1"/>
        <pt x="503" y="690" on="0"/>
        <pt x="429" y="635" on="0"/>
        <pt x="394" y="635" on="1"/>
        <pt x="374" y="635" on="0"/>
        <pt x="336" y="644" on="0"/>
        <pt x="297" y="655" on="0"/>
        <pt x="258" y="664" on="0"/>
        <pt x="238" y="664" on="1"/>
        <pt x="218" y="664" on="0"/>
        <pt x="184" y="653" on="0"/>
        <pt x="161" y="636" on="1"/>
      </contour>
      <contour>
        <pt x="56" y="577" on="1"/>
        <pt x="192" y="577" on="1"/>
        <pt x="403" y="324" on="1"/>
        <pt x="450" y="261" on="1"/>
        <pt x="459" y="261" on="1"/>
        <pt x="459" y="577" on="1"/>
        <pt x="610" y="577" on="1"/>
        <pt x="610" y="0" on="1"/>
        <pt x="475" y="0" on="1"/>
        <pt x="266" y="252" on="1"/>
        <pt x="216" y="318" on="1"/>
        <pt x="207" y="319" on="1"/>
        <pt x="207" y="0" on="1"/>
        <pt x="56" y="0" on="1"/>
      </contour>
    </TTGlyph>
    <TTGlyph name="O" xMin="31" yMin="-10" xMax="687" yMax="750">
      <contour>
        <pt x="358" y="-10" on="1"/>
        <pt x="31" y="-10" on="0"/>
        <pt x="31" y="369" on="1"/>
        <pt x="31" y="750" on="0"/>
        <pt x="358" y="750" on="1"/>
        <pt x="687" y="750" on="0"/>
        <pt x="687" y="369" on="1"/>
        <pt x="687" y="-10" on="0"/>
      </contour>
      <contour>
        <pt x="358" y="137" on="1"/>
        <pt x="398" y="137" on="0"/>
        <pt x="454" y="160" on="0"/>
        <pt x="487" y="214" on="0"/>
        <pt x="502" y="303" on="0"/>
        <pt x="502" y="369" on="1"/>
        <pt x="502" y="435" on="0"/>
        <pt x="487" y="525" on="0"/>
        <pt x="453" y="579" on="0"/>
        <pt x="398" y="603" on="0"/>
        <pt x="358" y="603" on="1"/>
        <pt x="319" y="603" on="0"/>
        <pt x="265" y="579" on="0"/>
        <pt x="232" y="525" on="0"/>
        <pt x="217" y="435" on="0"/>
        <pt x="217" y="369" on="1"/>
        <pt x="217" y="304" on="0"/>
        <pt x="232" y="215" on="0"/>
        <pt x="265" y="161" on="0"/>
        <pt x="319" y="137" on="0"/>
      </contour>
    </TTGlyph>
</ttFont>
